SplineFontDB: 3.2
FontName: SeriousShannsBold
FullName: Serious Shanns Bold
FamilyName: Serious Shanns Bold
Weight: Bold
Copyright: https://github.com/kaBeech/serious-shanns/blob/main/LICENSE
Version: 6.0.0
ItalicAngle: 0
UnderlinePosition: 0
UnderlineWidth: 0
Ascent: 800
Descent: 200
InvalidEm: 0
sfntRevision: 0x00003333
LayerCount: 2
Layer: 0 0 "Back" 1
Layer: 1 0 "Fore" 0
XUID: [1021 45 630387186 1689187]
StyleMap: 0x0040
FSType: 4
OS2Version: 3
OS2_WeightWidthSlopeOnly: 0
OS2_UseTypoMetrics: 0
CreationTime: 1532631502
ModificationTime: 315532800
PfmFamily: 81
TTFWeight: 700
TTFWidth: 5
LineGap: 0
VLineGap: 0
Panose: 0 0 0 0 0 0 0 0 0 0
OS2TypoAscent: 613
OS2TypoAOffset: 0
OS2TypoDescent: -188
OS2TypoDOffset: 0
OS2TypoLinegap: 98
OS2WinAscent: 778
OS2WinAOffset: 0
OS2WinDescent: 308
OS2WinDOffset: 0
HheadAscent: 796
HheadAOffset: 0
HheadDescent: -317
HheadDOffset: 0
OS2SubXSize: 317
OS2SubYSize: 293
OS2SubXOff: 0
OS2SubYOff: 37
OS2SupXSize: 317
OS2SupYSize: 293
OS2SupXOff: 0
OS2SupYOff: 171
OS2StrikeYSize: 0
OS2StrikeYPos: 132
OS2CapHeight: 576
OS2XHeight: 485
OS2Vendor: 'NONE'
OS2CodePages: 00000001.00000000
OS2UnicodeRanges: 00000001.00000000.00000000.00000000
MarkAttachClasses: 1
DEI: 91125
LangName: 1033 "" "" "Normal" "" "" "Version 0.2.0"
Encoding: UnicodeBmp
Compacted: 1
UnicodeInterp: none
NameList: AGL For New Fonts
DisplaySize: -48
AntiAlias: 1
FitToEm: 0
WinInfo: 0 16 14
BeginPrivate: 9
BlueValues 32 [-39 -6 502 523 708 718 765 769]
OtherBlues 11 [-297 -287]
BlueScale 9 0.0291667
BlueShift 1 2
StdHW 5 [110]
StdVW 5 [128]
StemSnapH 5 [110]
StemSnapV 9 [128 134]
ForceBold 4 true
EndPrivate
BeginChars: 65537 105

StartChar: .notdef
Encoding: 65536 -1 0
Width: 630
GlyphClass: 1
Flags: W
HStem: -280 78<167 463> 683 78<167 463>
VStem: 89 78<-202 683> 463 78<-202 683>
LayerCount: 2
Fore
SplineSet
89 -280 m 1
 89 761 l 1
 541 761 l 1
 541 -280 l 1
 89 -280 l 1
167 683 m 1
 167 -202 l 1
 463 -202 l 1
 463 683 l 1
 167 683 l 1
EndSplineSet
Validated: 1
EndChar

StartChar: exclam
Encoding: 33 33 1
Width: 630
GlyphClass: 2
Flags: W
HStem: -37.002 179.001<258.347 375.352>
VStem: 221.481 187.037<-3.98231 106.918> 255.479 122.001<248.311 379.795> 263.479 115.001<294.405 784.434>
LayerCount: 2
Fore
SplineSet
385.479492188 738 m 0x90
 385.479492188 732 384.147460938 694.665039062 381.48046875 625.998046875 c 0
 379.48046875 557.331054688 378.48046875 502.331054688 378.48046875 460.998046875 c 0
 378.48046875 441.665039062 378.813476562 421.33203125 379.48046875 399.999023438 c 0
 380.147460938 379.33203125 380.48046875 361.33203125 380.48046875 345.999023438 c 0
 380.48046875 330.666015625 379.813476562 320.333007812 378.48046875 315 c 0x90
 377.813476562 309.666992188 377.48046875 302.666992188 377.48046875 294 c 0xa0
 377.48046875 285.333007812 377.813476562 277.333007812 378.48046875 270 c 0x90
 376.48046875 251.333007812 369.147460938 237 356.48046875 227 c 0
 345.147460938 217.666992188 331.48046875 212.666992188 315.48046875 212 c 2
 311.48046875 212 l 2
 294.813476562 212 281.147460938 218 270.479492188 230 c 0
 260.479492188 240 255.479492188 253.333007812 255.479492188 270 c 0xa0
 255.479492188 278 256.8125 288.333007812 259.479492188 301 c 0
 261.479492188 314.333007812 262.8125 324 263.479492188 330 c 0
 264.147460938 336 264.479492188 346.333007812 264.479492188 361 c 2
 264.479492188 402 l 2
 264.479492188 415.333007812 264.147460938 435.666015625 263.479492188 462.999023438 c 0
 262.147460938 494.999023438 261.479492188 525.666015625 261.479492188 554.999023438 c 2
 261.479492188 623.999023438 l 2
 262.147460938 640.666015625 262.813476562 661.333007812 263.48046875 686 c 0
 264.147460938 710.666992188 264.48046875 727 264.48046875 735 c 1
 265.147460938 756.333007812 271.48046875 773 283.48046875 785 c 0
 294.813476562 796.333007812 309.147460938 802 326.479492188 802 c 2
 329.479492188 802 l 2
 345.479492188 802 358.8125 796.666992188 369.479492188 786 c 0
 380.147460938 775.333007812 385.479492188 759.333007812 385.479492188 738 c 0x90
307.48046875 -37.001953125 m 2
 284.147460938 -37.001953125 264.481445312 -29.0009765625 248.481445312 -13.0009765625 c 0
 230.481445312 5.666015625 221.481445312 27.9990234375 221.481445312 53.9990234375 c 0
 221.481445312 77.9990234375 231.481445312 98.33203125 251.481445312 114.999023438 c 0
 272.1484375 132.999023438 295.1484375 141.999023438 320.481445312 141.999023438 c 0
 345.815429688 141.999023438 366.815429688 133.999023438 383.481445312 117.999023438 c 0
 400.171875 101.30859375 408.518554688 81.2177734375 408.518554688 57.7255859375 c 0xc0
 408.518554688 44.673828125 407.948242188 17.443359375 384.48046875 -7.001953125 c 0
 367.813476562 -23.6689453125 345.813476562 -33.6689453125 318.48046875 -37.001953125 c 2
 307.48046875 -37.001953125 l 2
EndSplineSet
Validated: 524289
EndChar

StartChar: quotedbl
Encoding: 34 34 2
Width: 630
GlyphClass: 2
Flags: W
VStem: 170.5 122<438.439 586.418> 173.5 127<442.249 783.227> 330.5 130<442.134 783.794>
LayerCount: 2
Fore
SplineSet
460.5 738 m 2x20
 460.5 719 l 2
 460.5 685 460.169921875 641.666992188 459.502929688 589 c 0
 458.169921875 533.666992188 456.169921875 495 453.502929688 473 c 0
 450.8359375 456.333007812 443.16796875 443.666015625 430.501953125 434.999023438 c 0
 419.834960938 426.999023438 408.16796875 422.999023438 395.5 422.999023438 c 0
 378.833984375 422.999023438 363.833984375 427.999023438 350.5 437.999023438 c 0
 337.833984375 447.33203125 331.5 459.999023438 331.5 475.999023438 c 2
 331.5 481.999023438 l 2
 332.833984375 504.666015625 333.5 531.999023438 333.5 563.999023438 c 0
 333.5 631.33203125 332.5 690.999023438 330.5 742.999023438 c 2
 330.5 745.999023438 l 2
 330.5 755.33203125 332.833984375 763.83203125 337.5 771.499023438 c 0
 342.16796875 779.166015625 348.834960938 784.666015625 357.501953125 787.999023438 c 0
 369.501953125 792.666015625 381.501953125 795.333007812 393.501953125 796 c 0
 403.501953125 796 411.66796875 795 418.001953125 793 c 0
 424.334960938 791 430.501953125 788.333007812 436.501953125 785 c 0
 443.834960938 781 449.66796875 774.833007812 454 766.5 c 0
 458.333984375 758.166992188 460.5 748.666992188 460.5 738 c 2x20
300.5 739 m 2x60
 300.5 697 l 2x60
 300.5 677.666992188 299.833984375 641.666992188 298.5 589 c 0
 297.16796875 533.666992188 295.16796875 495 292.5 473 c 0
 289.833984375 456.333007812 282.5 443.666015625 270.5 434.999023438 c 0
 259.833984375 426.999023438 248.166992188 422.999023438 235.5 422.999023438 c 0
 218.83203125 422.999023438 203.5 427.999023438 189.5 437.999023438 c 0
 176.83203125 447.33203125 170.5 459.999023438 170.5 475.999023438 c 0xa0
 170.5 477.999023438 170.83203125 480.33203125 171.5 482.999023438 c 0
 173 502.498046875 173.75 525.185546875 173.75 551.059570312 c 0
 173.75 559.684570312 173.666992188 568.665039062 173.5 577.999023438 c 2
 173.5 611.999023438 l 2
 172.83203125 679.33203125 171.5 724.33203125 169.5 746.999023438 c 0
 169.5 755.666015625 171.83203125 763.666015625 176.5 770.999023438 c 0
 181.83203125 778.999023438 188.5 784.666015625 196.5 787.999023438 c 0
 208.5 792.666015625 220.83203125 795.333007812 233.5 796 c 0
 243.5 796 251.666992188 795 258 793 c 0
 264.33203125 791 270.83203125 788 277.5 784 c 0
 284.166992188 780 289.5 774 293.5 766 c 0
 297.5 758 299.83203125 749 300.5 739 c 2x60
EndSplineSet
Validated: 524289
EndChar

StartChar: numbersign
Encoding: 35 35 3
Width: 630
GlyphClass: 2
Flags: W
HStem: -13.999 20.9004G<141.333 149.333 367.998 375.998> 179.001 107.003<55.5032 115 263.003 335.999 481 548.621> 433.004 109<94.4746 166 312.999 382.003 526 571.404>
LayerCount: 2
Fore
SplineSet
382.002929688 433.00390625 m 1
 292.002929688 433.00390625 l 1
 263.002929688 286.00390625 l 1
 287.002929688 286.670898438 317.669921875 287.001953125 355.002929688 287.001953125 c 1
 364.3359375 334.334960938 373.3359375 383.00390625 382.002929688 433.00390625 c 1
166 431 m 1
 148 430.333007812 138.002929688 430.333007812 136.002929688 431 c 0
 118.002929688 431 104.002929688 435.334960938 94.0029296875 444.001953125 c 0
 82.669921875 454.001953125 76.669921875 466.668945312 76.0029296875 482.001953125 c 2
 76.0029296875 485.001953125 l 2
 76.0029296875 499.001953125 81.3330078125 511.334960938 92 522.001953125 c 0
 102.666992188 532.668945312 118.002929688 538.3359375 138.002929688 539.002929688 c 0
 149.3359375 539.669921875 165.668945312 540.002929688 187.001953125 540.002929688 c 1
 214.001953125 686.002929688 l 2
 220.001953125 706.669921875 230.334960938 720.669921875 245.001953125 728.002929688 c 0
 254.334960938 733.3359375 264.334960938 736.3359375 275.001953125 737.002929688 c 0
 279.668945312 737.002929688 284.33203125 736.3359375 288.999023438 735.002929688 c 0
 306.33203125 731.669921875 319.668945312 723.336914062 329.001953125 710.00390625 c 0
 335.668945312 700.670898438 339.001953125 689.670898438 339.001953125 677.00390625 c 0
 339.001953125 671.00390625 338.334960938 665.00390625 337.001953125 659.00390625 c 2
 312.999023438 542.00390625 l 1
 401.001953125 542.00390625 l 1
 426.001953125 678.00390625 l 2
 432.001953125 699.336914062 442.334960938 714.00390625 457.001953125 722.00390625 c 0
 466.334960938 727.336914062 476.334960938 730.00390625 487.001953125 730.00390625 c 0
 492.334960938 730.00390625 497.334960938 729.3359375 502.001953125 728.002929688 c 0
 519.334960938 724.669921875 532.66796875 716.337890625 542.000976562 703.004882812 c 0
 548.000976562 694.337890625 551.333007812 684.004882812 552 672.004882812 c 0
 552 665.337890625 551 658.337890625 549 651.004882812 c 0
 542.333007812 626.337890625 534.666992188 590.337890625 526 543.004882812 c 1
 544 542.337890625 559.333007812 537.004882812 572 527.004882812 c 0
 585.333007812 515.671875 592.333007812 503.004882812 593 489.004882812 c 0
 593 473.671875 588 460.671875 578 450.004882812 c 0
 568 439.337890625 553 433.670898438 533 433.00390625 c 2
 532 433.00390625 l 1
 506 433.00390625 l 1
 481 286.00390625 l 1
 508 286.00390625 l 2
 527.333007812 286.00390625 541 281.336914062 549 272.00390625 c 0
 557 262.670898438 561.666992188 251.00390625 563 237.00390625 c 2
 563 236.00390625 l 2
 563 220.00390625 559.333007812 207.336914062 552 198.00390625 c 0
 542.666992188 186.00390625 528 180.00390625 508 180.00390625 c 2
 463 180.00390625 l 1
 450.333007812 109.336914062 441 60.669921875 435 34.0029296875 c 0
 428.333007812 16.0029296875 416.666015625 2.669921875 399.999023438 -5.9970703125 c 0
 390.3984375 -11.3974609375 380.797851562 -14.0986328125 371.197265625 -14.0986328125 c 0
 367.998046875 -13.9990234375 l 0
 362.665039062 -13.9990234375 357.33203125 -13.33203125 351.999023438 -11.9990234375 c 0
 335.999023438 -8.666015625 323.999023438 1.6689453125 315.999023438 19.001953125 c 0
 311.999023438 28.3349609375 309.666015625 37.66796875 308.999023438 47.0009765625 c 0
 308.999023438 55.0009765625 310.33203125 63.333984375 312.999023438 72.0009765625 c 0
 318.999023438 96.0009765625 326.666015625 131.66796875 335.999023438 179.000976562 c 1
 288.999023438 179.000976562 l 2
 269.666015625 179.000976562 253.999023438 178.66796875 241.999023438 178.000976562 c 1
 223.999023438 88.0009765625 213.999023438 41.0009765625 211.999023438 37.0009765625 c 0
 205.999023438 20.333984375 194.666015625 7.0009765625 177.999023438 -2.9990234375 c 0
 165.999023438 -10.33203125 154.666015625 -13.9990234375 143.999023438 -13.9990234375 c 0
 138.666015625 -13.9990234375 133.333007812 -13.33203125 128 -11.9990234375 c 0
 112 -8.666015625 100 2.333984375 92 21.0009765625 c 0
 88 30.333984375 86 39.333984375 86 48.0009765625 c 0
 86 57.333984375 87.6669921875 66.6669921875 91 76 c 0
 95.6669921875 92 103.666992188 125.666992188 115 177 c 1
 100 177 l 2
 80.6669921875 177 65.6669921875 181 55 189 c 0
 43 197.666992188 37 209.666992188 37 225 c 2
 37 228 l 2
 37 242 42 254.333007812 52 265 c 0
 62 275 77 280.666992188 97 282 c 0
 102.333007812 282 109.333007812 282.333007812 118 283 c 2
 137 283 l 1
 166 431 l 1
EndSplineSet
Validated: 524289
EndChar

StartChar: dollar
Encoding: 36 36 4
Width: 630
GlyphClass: 2
Flags: W
HStem: -32.0029 106.998<194.386 253>
VStem: 64 118<485.148 581.759> 258 117.002<-87.3984 -32.0029 92.9971 317.997 456.997 612.974> 466.033 117.967<146.588 273.466>
LayerCount: 2
Fore
SplineSet
350.5 -130 m 0
 337.5 -140 322.333984375 -145.002929688 305 -145.002929688 c 2
 303 -145.002929688 l 2
 285 -145.002929688 271.333984375 -139.002929688 262 -127.002929688 c 0
 254.66796875 -118.3359375 251 -106.668945312 251 -92.001953125 c 0
 251 -88.6689453125 251.333984375 -82.8359375 252 -74.5029296875 c 0
 252.66796875 -66.169921875 253 -52.0029296875 253 -32.0029296875 c 1
 229 -31.3359375 206 -28.0029296875 184 -22.0029296875 c 0
 162 -16.0029296875 143 -8.0029296875 127 1.9970703125 c 0
 95 21.9970703125 71.333984375 45.9970703125 56 73.9970703125 c 0
 49.333984375 88.6640625 46 101.997070312 46 113.997070312 c 0
 46 117.997070312 46.333984375 121.6640625 47 124.997070312 c 0
 50.333984375 140.330078125 59.666015625 151.330078125 75 157.997070312 c 0
 83.666015625 161.997070312 90.333984375 164.497070312 95 165.497070312 c 0
 99.66796875 166.497070312 103.66796875 166.997070312 107 166.997070312 c 0
 110.333984375 166.997070312 113.333984375 166.6640625 116 165.997070312 c 0
 124 165.330078125 131.333984375 162.163085938 138 156.49609375 c 0
 144.66796875 150.829101562 151.66796875 143.329101562 159 133.99609375 c 0
 172.333984375 115.329101562 187.333984375 100.662109375 204 89.9951171875 c 0
 218 81.328125 235.333984375 76.328125 256 74.9951171875 c 1
 257.333984375 174.328125 258 263.661132812 258 342.994140625 c 1
 256 342.994140625 252.333984375 343.661132812 247 344.994140625 c 0
 243 345.661132812 237.66796875 345.994140625 231 345.994140625 c 0
 203.66796875 348.661132812 178.66796875 355.328125 156 365.995117188 c 0
 135.333984375 376.662109375 118.333984375 389.329101562 105 403.99609375 c 0
 91.66796875 418.663085938 81.5 434.330078125 74.5 450.997070312 c 0
 67.5 467.6640625 64 484.6640625 64 501.997070312 c 0
 64 526.6640625 67.833984375 550.331054688 75.5 572.998046875 c 0
 83.16796875 595.665039062 95 616.83203125 111 636.499023438 c 0
 127 656.166015625 148.333984375 672.999023438 175 686.999023438 c 0
 200.333984375 699.666015625 228.666992188 708.999023438 260 714.999023438 c 1
 260.666992188 728.33203125 261 743.999023438 261 761.999023438 c 1
 261.666992188 793.999023438 272.666992188 814.33203125 294 822.999023438 c 0
 301.33203125 825.666015625 310.33203125 826.999023438 321 826.999023438 c 0
 343 826.999023438 359 819.999023438 369 805.999023438 c 0
 376.33203125 795.999023438 380.33203125 782.33203125 381 764.999023438 c 2
 381 723.999023438 l 1
 396.33203125 722.666015625 416.666015625 718.999023438 441.999023438 712.999023438 c 0
 467.33203125 707.666015625 486.6640625 702.666015625 499.998046875 697.999023438 c 0
 515.331054688 692.666015625 526.6640625 683.666015625 533.99609375 670.999023438 c 0
 539.330078125 661.666015625 541.99609375 651.999023438 541.99609375 641.999023438 c 0
 541.99609375 638.666015625 541.6640625 635.333007812 540.99609375 632 c 0
 539.6640625 622 535.831054688 613.833007812 529.498046875 607.5 c 0
 523.1640625 601.166992188 515.33203125 597.333984375 505.999023438 596.000976562 c 0
 501.33203125 595.333984375 497.33203125 595.000976562 493.999023438 595.000976562 c 0
 490.666015625 595.000976562 486.83203125 595.16796875 482.5 595.500976562 c 0
 478.166992188 595.833984375 472.666992188 597.000976562 466 599.000976562 c 0
 458.666992188 600.333984375 450 603.333984375 440 608.000976562 c 0
 420 616.66796875 399.666992188 621.66796875 379 623.000976562 c 1
 377.666992188 558.333984375 376.666992188 497.000976562 376 439.000976562 c 1
 406 434.333984375 433.666992188 427.333984375 459 418.000976562 c 0
 483 408.000976562 502.83203125 396.000976562 518.5 382.000976562 c 0
 534.166992188 368.000976562 547.166992188 352.000976562 557.5 334.000976562 c 0
 567.83203125 316.000976562 574.83203125 298.333984375 578.5 281.000976562 c 0
 582.166992188 263.66796875 584 245.66796875 584 227.000976562 c 0
 584 195.66796875 578.5 166.16796875 567.5 138.500976562 c 0
 556.5 110.833984375 541.166992188 86.6669921875 521.5 66 c 0
 501.83203125 45.3330078125 479 27.666015625 453 12.9990234375 c 0
 428.33203125 -0.333984375 401.33203125 -10.6669921875 372 -18 c 1
 372 -52 372.666992188 -75.3330078125 374 -88 c 0
 371.33203125 -106 363.5 -120 350.5 -130 c 0
207 584.997070312 m 0
 190.333984375 569.6640625 182 551.6640625 182 530.997070312 c 0
 182 512.997070312 189.66796875 497.330078125 205 483.997070312 c 0
 218.333984375 471.997070312 236 462.997070312 258 456.997070312 c 1
 258.66796875 498.330078125 259 551.330078125 259 615.997070312 c 1
 238.333984375 607.997070312 221 597.6640625 207 584.997070312 c 0
436 136.997070312 m 0
 456.021484375 157.017578125 466.033203125 179.85546875 466.033203125 205.506835938 c 0
 466.033203125 214.470703125 465.65625 226.20703125 462.001953125 238.998046875 c 0
 459.334960938 248.331054688 454.334960938 258.6640625 447.001953125 269.997070312 c 0
 434.334960938 288.6640625 410.334960938 304.6640625 375.001953125 317.997070312 c 1
 374.334960938 241.330078125 373.834960938 191.330078125 373.501953125 167.997070312 c 0
 373.16796875 144.6640625 372.66796875 119.6640625 372.001953125 92.9970703125 c 1
 397.334960938 104.997070312 418.66796875 119.6640625 436 136.997070312 c 0
EndSplineSet
Validated: 524289
EndChar

StartChar: percent
Encoding: 37 37 5
Width: 630
GlyphClass: 2
Flags: W
HStem: -40.0039 101.001<424.769 489.75> 158.997 98<427.895 495.971> 420 98.9961<136.256 202.686> 607.996 97.0039<138.148 207.395>
VStem: 32 96.001<530.28 596.587> 216 103.001<529.373 597.165> 311 104.999<72.8275 145.526> 503.001 94.999<71.4058 144.619>
LayerCount: 2
Fore
SplineSet
46.501953125 491.5 m 0xfd
 36.8349609375 511.833007812 32 533.333007812 32 556 c 2
 32 558 l 2
 32 600 44.5 635 69.5 663 c 0
 94.5 691 130.666992188 705 178 705 c 0
 218.666992188 705 252.333984375 693 279.000976562 669 c 0
 293.000976562 656.333007812 303.66796875 640 311.000976562 620 c 0
 316.333984375 604 319.000976562 586 319.000976562 566 c 0
 319.000976562 516 304.66796875 478.333007812 276.000976562 453 c 0
 250.66796875 431 213.000976562 420 163.000976562 420 c 0
 135.66796875 420 111.834960938 426.833007812 91.501953125 440.5 c 0
 71.1689453125 454.166992188 56.1689453125 471.166992188 46.501953125 491.5 c 0xfd
80 -45 m 0
 71.3330078125 -41 64.3330078125 -36.00390625 59 -30.00390625 c 0
 51.6669921875 -22.00390625 48 -12.50390625 48 -1.50390625 c 0
 48 9.49609375 51.3330078125 21.3291015625 58 33.99609375 c 0
 72 61.99609375 105.333007812 120.329101562 158 208.99609375 c 0
 271.333007812 387.663085938 328 477.330078125 328 477.997070312 c 0
 384.666992188 567.997070312 422.666992188 632.6640625 442 671.997070312 c 1
 442 664.6640625 442.333007812 664.997070312 443 672.997070312 c 1
 453.666992188 687.6640625 467.333984375 696.331054688 484.000976562 698.998046875 c 0
 488.66796875 700.331054688 493.334960938 700.998046875 498.001953125 700.998046875 c 0
 508.668945312 700.998046875 519.001953125 698.331054688 529.001953125 692.998046875 c 0
 544.334960938 685.665039062 553.001953125 675.33203125 555.001953125 661.999023438 c 0
 555.668945312 659.33203125 556.001953125 656.665039062 556.001953125 653.998046875 c 0
 556.001953125 642.665039062 551.668945312 630.33203125 543.001953125 616.999023438 c 0
 518.334960938 577.666015625 456.66796875 477.333007812 358.000976562 316 c 0
 257.333984375 154.666992188 190.666992188 45.6669921875 158 -11 c 0
 142.666992188 -37.6669921875 124.666992188 -51 104 -51 c 0
 96.6669921875 -51 88.6669921875 -49 80 -45 c 0
204.5 597.49609375 m 0
 196.833007812 604.49609375 185 607.99609375 169 607.99609375 c 0
 156.333007812 607.99609375 147 604.329101562 141 596.99609375 c 0
 133.666992188 588.329101562 129.333984375 575.99609375 128.000976562 559.99609375 c 2
 128.000976562 556.99609375 l 2
 128.000976562 544.99609375 130.66796875 535.99609375 136.000976562 529.99609375 c 0
 141.333984375 523.99609375 153.666992188 520.329101562 173 518.99609375 c 2
 174 518.99609375 l 2
 186.666992188 518.99609375 196.333984375 522.329101562 203.000976562 528.99609375 c 0
 210.333984375 536.99609375 214.666992188 547.663085938 216 560.99609375 c 2
 216 563.99609375 l 2
 216 579.329101562 212.166992188 590.49609375 204.5 597.49609375 c 0
326.5 34.49609375 m 0
 316.166992188 55.49609375 311 77.9970703125 311 101.997070312 c 2
 311 103.997070312 l 2xfb
 311 147.997070312 324.666992188 184.497070312 352 213.497070312 c 0
 379.333007812 242.497070312 417.333007812 256.997070312 466 256.997070312 c 0
 504 256.997070312 536 244.6640625 562 219.997070312 c 0
 575.333007812 207.330078125 585 189.997070312 591 167.997070312 c 0
 595.666992188 151.997070312 598 134.330078125 598 114.997070312 c 0
 598 108.330078125 597.666992188 101.663085938 597 94.99609375 c 0
 595 50.99609375 582.333007812 17.49609375 559 -5.50390625 c 0
 535.666992188 -28.50390625 500.666992188 -40.00390625 454 -40.00390625 c 2
 449 -40.00390625 l 2
 421 -39.3369140625 396.166992188 -32.00390625 374.5 -18.00390625 c 0
 352.833007812 -4.00390625 336.833007812 13.49609375 326.5 34.49609375 c 0
461 60.9970703125 m 0
 461.666992188 60.9970703125 462.668945312 60.6640625 464.001953125 59.9970703125 c 0
 476.001953125 59.9970703125 484.668945312 63.6640625 490.001953125 70.9970703125 c 0
 497.334960938 79.6640625 501.66796875 91.6640625 503.000976562 106.997070312 c 2
 503.000976562 108.997070312 l 2
 503.000976562 124.997070312 500.000976562 136.997070312 494.000976562 144.997070312 c 0
 487.333984375 154.330078125 475.666992188 158.997070312 459 158.997070312 c 0
 446.333007812 158.997070312 436.666015625 154.6640625 429.999023438 145.997070312 c 0
 421.999023438 135.997070312 417.33203125 122.6640625 415.999023438 105.997070312 c 2
 415.999023438 102.997070312 l 2
 415.999023438 89.6640625 418.83203125 79.4970703125 424.499023438 72.4970703125 c 0
 430.166015625 65.4970703125 442.333007812 61.6640625 461 60.9970703125 c 0
EndSplineSet
Validated: 524289
EndChar

StartChar: ampersand
Encoding: 38 38 6
Width: 630
GlyphClass: 2
Flags: W
HStem: -53.9932 118<202.518 328.751> 633.005 103<258.923 348.088>
VStem: 43.999 124.001<100.286 273.189> 130.999 119.001<504.635 620.91> 365 108<508.115 617.229>
LayerCount: 2
Fore
SplineSet
572.000976562 11 m 0xd8
 572.000976562 7.6669921875 571.666992188 4.0048828125 571 0.0048828125 c 0
 568.333007812 -23.328125 560.333007812 -38.6611328125 547 -45.994140625 c 0
 534.333007812 -50.6611328125 526.333007812 -52.994140625 523 -52.994140625 c 2
 522 -52.994140625 l 2
 513.333007812 -52.994140625 504 -50.6611328125 494 -45.994140625 c 0
 476.666992188 -37.3271484375 462 -22.3271484375 450 -0.994140625 c 0
 448 2.3388671875 444.833007812 9.8388671875 440.5 21.505859375 c 0
 436.166992188 33.1728515625 433 41.6728515625 431 47.005859375 c 1
 416 27.505859375 l 2
 412.666992188 23.1728515625 407 16.83984375 399 8.5068359375 c 0
 391 0.173828125 384.166992188 -6.326171875 378.5 -10.9931640625 c 0
 372.833007812 -15.66015625 365.165039062 -21.16015625 355.499023438 -27.4931640625 c 0
 345.83203125 -33.826171875 336.33203125 -38.4931640625 326.999023438 -41.4931640625 c 0
 317.665039062 -44.4931640625 306.999023438 -47.326171875 294.999023438 -49.9931640625 c 0
 282.999023438 -52.66015625 270.665039062 -53.9931640625 257.999023438 -53.9931640625 c 0
 217.999023438 -53.9931640625 181.499023438 -43.826171875 148.499023438 -23.4931640625 c 0
 115.499023438 -3.16015625 89.83203125 23.6728515625 71.4990234375 57.005859375 c 0
 53.166015625 90.3388671875 43.9990234375 126.338867188 43.9990234375 165.005859375 c 0xe8
 43.9990234375 223.005859375 54.666015625 272.672851562 75.9990234375 314.005859375 c 0
 101.33203125 362.672851562 140.999023438 400.672851562 194.999023438 428.005859375 c 1
 177.499023438 455.505859375 l 2
 170.499023438 466.505859375 165.165039062 475.005859375 161.499023438 481.005859375 c 0
 157.83203125 487.005859375 153.499023438 494.838867188 148.499023438 504.505859375 c 0
 143.499023438 514.172851562 139.999023438 522.672851562 137.999023438 530.005859375 c 0
 133.33203125 550.005859375 130.999023438 569.672851562 130.999023438 589.005859375 c 0
 130.999023438 601.672851562 132.665039062 614.505859375 135.999023438 627.505859375 c 0
 139.33203125 640.505859375 145.33203125 653.672851562 153.999023438 667.005859375 c 0
 162.665039062 680.338867188 173.333007812 692.171875 186 702.504882812 c 0
 198.666992188 712.837890625 215 721.004882812 235 727.004882812 c 0
 255 733.004882812 277.333007812 736.004882812 302 736.004882812 c 0
 322.666992188 736.004882812 343 732.837890625 363 726.504882812 c 0
 383 720.171875 401.333007812 710.671875 418 698.004882812 c 0
 434.666992188 685.337890625 448 668.670898438 458 648.00390625 c 0
 468 627.336914062 473 604.336914062 473 579.00390625 c 0
 473 556.336914062 470 535.169921875 464 515.502929688 c 0
 458 495.8359375 450.5 479.3359375 441.5 466.002929688 c 0
 432.5 452.669921875 421.333007812 440.169921875 408 428.502929688 c 0
 394.666992188 416.8359375 383.333007812 408.002929688 374.000976562 402.002929688 c 0
 364.66796875 396.002929688 355.000976562 390.669921875 345.000976562 386.002929688 c 1
 357.000976562 366.002929688 373.833007812 340.8359375 395.500976562 310.502929688 c 0
 417.16796875 280.169921875 433.000976562 257.669921875 443.000976562 243.002929688 c 1
 445.000976562 247.002929688 447.833007812 253.169921875 451.500976562 261.502929688 c 0
 455.16796875 269.8359375 458.834960938 278.002929688 462.500976562 286.002929688 c 0
 466.168945312 294.002929688 469.3359375 300.002929688 472.002929688 304.002929688 c 0
 485.3359375 324.002929688 498.668945312 336.3359375 512.000976562 341.002929688 c 0
 517.334960938 343.002929688 523.000976562 344.002929688 529.000976562 344.002929688 c 0
 538.334960938 344.002929688 547.66796875 341.669921875 557.000976562 337.002929688 c 0
 572.333007812 329.669921875 581.333007812 317.002929688 584.000976562 299.002929688 c 0
 584.66796875 295.002929688 585.334960938 290.669921875 586.000976562 286.002929688 c 0
 586.000976562 272.002929688 582.000976562 257.3359375 574.000976562 242.002929688 c 0
 570.668945312 235.3359375 561.000976562 222.168945312 545.000976562 202.501953125 c 0
 529.000976562 182.834960938 516.000976562 165.66796875 506.000976562 151.000976562 c 1
 513.334960938 139.000976562 523.16796875 122.16796875 535.500976562 100.500976562 c 0
 547.833007812 78.833984375 555.333007812 65.6669921875 558.000976562 61 c 0
 567.333007812 45 572.000976562 28.3330078125 572.000976562 11 c 0xd8
250 572.004882812 m 0xd8
 250 557.337890625 254 541.338867188 262 524.005859375 c 0
 270 506.672851562 279 491.672851562 289 479.005859375 c 1
 299.666992188 482.338867188 309.166992188 486.171875 317.5 490.504882812 c 0
 325.833007812 494.837890625 334 500.337890625 342 507.004882812 c 0
 350 513.671875 355.833007812 522.004882812 359.5 532.004882812 c 0
 363.166992188 542.004882812 365 554.337890625 365 569.004882812 c 0
 365 589.671875 358.666992188 605.504882812 346 616.504882812 c 0
 333.333007812 627.504882812 317.833007812 633.004882812 299.5 633.004882812 c 0
 281.166992188 633.004882812 268 627.337890625 260 616.004882812 c 0
 253.333007812 606.004882812 250 591.337890625 250 572.004882812 c 0xd8
168 174.005859375 m 0xe8
 168 142.005859375 176.504882812 115.673828125 193.504882812 95.0068359375 c 0
 210.504882812 74.33984375 232.336914062 64.0068359375 259.004882812 64.0068359375 c 0
 273.671875 64.0068359375 289.004882812 66.673828125 305.004882812 72.0068359375 c 0
 310.336914062 74.0068359375 316.170898438 77.173828125 322.50390625 81.5068359375 c 0
 328.836914062 85.83984375 333.668945312 89.33984375 337.002929688 92.0068359375 c 0
 340.3359375 94.673828125 344.668945312 99.0068359375 350.000976562 105.006835938 c 0
 355.334960938 111.006835938 359.000976562 115.173828125 361.000976562 117.506835938 c 0
 363.000976562 119.83984375 365.668945312 123.506835938 369.000976562 128.506835938 c 0
 372.334960938 133.506835938 374.66796875 136.673828125 376.000976562 138.006835938 c 0
 366.66796875 158.006835938 357.66796875 176.006835938 349.000976562 192.006835938 c 0
 341.000976562 207.33984375 326.000976562 230.672851562 304.000976562 262.005859375 c 0
 282.000976562 293.338867188 265.66796875 317.338867188 255.000976562 334.005859375 c 1
 240.333007812 326.672851562 227.666992188 318.005859375 217 308.005859375 c 0
 204.333007812 296.005859375 194.5 283.005859375 187.5 269.005859375 c 0
 180.5 255.005859375 175.5 240.338867188 172.5 225.005859375 c 0
 169.5 209.672851562 168 192.672851562 168 174.005859375 c 0xe8
EndSplineSet
Validated: 524289
EndChar

StartChar: quotesingle
Encoding: 39 39 7
Width: 630
GlyphClass: 2
Flags: W
VStem: 250 130<452.314 772.656> 250 122<449.441 601.295>
LayerCount: 2
Fore
SplineSet
380 728 m 2x80
 380 687.000976562 l 2x80
 380 669.000976562 379.665039062 641.333984375 378.998046875 604.000976562 c 0
 377.665039062 546.000976562 375.33203125 506.000976562 372 484.000976562 c 0x40
 369.33203125 466.66796875 362 453.66796875 350 445.000976562 c 0
 339.33203125 437.66796875 327.665039062 434.000976562 314.998046875 434.000976562 c 0
 297.665039062 434.000976562 282.33203125 439.000976562 269 449.000976562 c 0
 256.33203125 458.333984375 250 471.333984375 250 488.000976562 c 0
 250 490.000976562 250.33203125 491.66796875 251 493.000976562 c 0
 252.33203125 519.66796875 253 549.66796875 253 583.000976562 c 0
 253 630.333984375 252 680.000976562 250 732.000976562 c 2
 250 735.000976562 l 2
 250 744.333984375 252 752.666992188 256 760 c 0
 260.666015625 768 267.333007812 774 276 778 c 0
 288 782.666992188 300.333007812 785 313 785 c 0
 323 785 331 784 337 782 c 0
 343.66796875 780 350 777.333007812 356 774 c 0
 363.333007812 770 369 763.666992188 373 755 c 0
 377 747 379.333007812 738 380 728 c 2x80
EndSplineSet
Validated: 524289
EndChar

StartChar: parenleft
Encoding: 40 40 8
Width: 630
GlyphClass: 2
Flags: W
HStem: -144 109<383.685 461.53> 721 105.053<369.656 459.499>
VStem: 152.999 122.75<154.284 548.553>
LayerCount: 2
Fore
SplineSet
476.000976562 -93 m 0
 476.000976562 -107.666992188 470.331054688 -119.666992188 458.998046875 -129 c 0
 447.665039062 -138.333007812 435.665039062 -143.333007812 422.998046875 -144 c 0
 374.998046875 -144 331.998046875 -127 293.998046875 -93 c 0
 255.998046875 -59 225.331054688 -13 201.998046875 45 c 0
 178.665039062 103 163.333007812 169.666992188 155.999023438 245 c 0
 153.999023438 265.666992188 152.999023438 291.333984375 152.999023438 322.000976562 c 0
 152.999023438 352.66796875 154.999023438 391.000976562 158.999023438 437.000976562 c 0
 165.666015625 516.333984375 178.999023438 581.666992188 198.999023438 633 c 0
 207.666015625 656.333007812 219.333007812 679 234.000976562 701 c 0
 248.666992188 723 266.000976562 743.666992188 286.000976562 763 c 0
 305.333007812 781.666992188 327.000976562 797 351.000976562 809 c 0
 374.368164062 820.368164062 397.436523438 826.052734375 420.206054688 826.052734375 c 0
 421.471679688 826.052734375 422.736328125 826.03515625 424.000976562 826 c 0
 442.666992188 826 456.666992188 820.333007812 466.000976562 809 c 0
 473.333007812 800.333007812 477.000976562 788.333007812 477.000976562 773 c 0
 477.000976562 755 471.333007812 741.666992188 460.000976562 733 c 0
 449.333007812 725 436.666015625 721 421.999023438 721 c 0
 407.333007812 721 393.333007812 716.333007812 379.999023438 707 c 0
 366.666015625 698.333007812 354.666015625 686 343.999023438 670 c 0
 322.666015625 638 306.666015625 598 295.999023438 550 c 0
 287.333007812 514.666992188 281.333007812 467.666992188 277.999023438 409 c 0
 276.499023438 386 275.749023438 364.875976562 275.749023438 345.626953125 c 0
 275.749023438 339.208984375 275.833007812 333.000976562 275.999023438 327 c 0
 275.999023438 303 276.666015625 281.666992188 277.999023438 263 c 0
 281.333007812 223.666992188 288.333007812 185 298.999023438 147 c 0
 309.666015625 109 322.333007812 77 337.000976562 51 c 0
 351.000976562 24.3330078125 366.000976562 3 382.000976562 -13 c 0
 396.666992188 -27.6669921875 410.333984375 -35 423.000976562 -35 c 0
 439.000976562 -35 452.000976562 -39.3330078125 462.000976562 -48 c 0
 471.333984375 -56.6669921875 476.000976562 -71.6669921875 476.000976562 -93 c 0
EndSplineSet
Validated: 524289
EndChar

StartChar: parenright
Encoding: 41 41 9
Width: 630
GlyphClass: 2
Flags: W
HStem: -144 109<168.412 246.235> 721.001 105.1<170.502 260.734>
VStem: 354.251 122.749<154.284 545.5>
LayerCount: 2
Fore
SplineSet
207 -144 m 0
 194.333007812 -144 182.333984375 -138.999023438 171.000976562 -128.999023438 c 0
 159.66796875 -119.666015625 154.000976562 -107.666015625 154.000976562 -92.9990234375 c 0
 154.000976562 -71.666015625 158.66796875 -56.666015625 168.000976562 -47.9990234375 c 0
 176.711914062 -39.2880859375 188.6171875 -34.93359375 203.71484375 -34.93359375 c 0
 204.793945312 -34.93359375 205.890625 -34.955078125 207.000976562 -35 c 0
 219.000976562 -35 232.333984375 -27.6669921875 247.000976562 -13 c 0
 263.66796875 3 279.000976562 24.3330078125 293.000976562 51 c 0
 307.000976562 77.6669921875 319.66796875 109.666992188 331.000976562 147 c 0
 341.66796875 185 348.66796875 223.666992188 352.000976562 263 c 0
 353.500976562 278 354.250976562 294.124023438 354.250976562 311.373046875 c 0
 354.250976562 317.124023438 354.16796875 322.999023438 354.000976562 329 c 0
 354.000976562 352.333007812 353.333984375 379 352.000976562 409 c 0
 348.66796875 467.666992188 342.66796875 514.666992188 334.000976562 550 c 0
 323.333984375 597.333007812 307.333984375 637.333007812 286.000976562 670 c 0
 276.000976562 686 264.000976562 698.333007812 250.000976562 707 c 0
 236.66796875 715.666992188 222.66796875 720.333984375 208.000976562 721.000976562 c 0
 193.333984375 721.000976562 180.66796875 725.000976562 170 733.000976562 c 0
 158.66796875 741.66796875 153 755.000976562 153 773.000976562 c 0
 153 783.000976562 154.66796875 792.000976562 158 800.000976562 c 0
 161.333007812 807.333984375 166.333007812 813.333984375 173 818.000976562 c 0
 181.399414062 823.400390625 191.149414062 826.100585938 202.25 826.100585938 c 0
 203.482421875 826.100585938 204.734375 826.067382812 206 826.000976562 c 0
 230.66796875 826.000976562 255 820.333984375 279 809.000976562 c 0
 303 797.000976562 324.66796875 781.66796875 344 763.000976562 c 0
 363.333007812 744.333984375 380.333007812 723.666992188 395 701 c 0
 409.66796875 679 421.66796875 656.333007812 431 633 c 0
 450.333007812 581.666992188 463.666015625 516.333984375 471 437.000976562 c 0
 475 391.000976562 477 352.66796875 477 322.000976562 c 0
 477 291.333984375 476 265.666992188 474 245 c 0
 466.666015625 169.666992188 451.333007812 103 428 45 c 0
 404.66796875 -13 373.66796875 -59 335 -93 c 0
 297.66796875 -127 255 -144 207 -144 c 0
EndSplineSet
Validated: 524289
EndChar

StartChar: asterisk
Encoding: 42 42 10
Width: 630
GlyphClass: 2
Flags: W
HStem: 281.004 127.999<68.5334 211.975> 289.002 119.001<409.147 564.842> 294.001 101.002<408.002 523.874>
LayerCount: 2
Fore
SplineSet
228.001953125 102 m 2x20
 217.999023438 102 l 2
 213.33203125 102 207.499023438 102.670898438 200.499023438 104.00390625 c 0
 193.499023438 105.336914062 186.666015625 108 179.999023438 112 c 0
 173.33203125 116 167.33203125 122.00390625 161.999023438 130.00390625 c 0
 156.666015625 138.00390625 152.999023438 147.336914062 150.999023438 158.00390625 c 2
 150.999023438 165.00390625 l 2
 150.999023438 175.00390625 153.666015625 185.333984375 158.999023438 196.000976562 c 2
 213.999023438 285.00390625 l 1
 170.666015625 282.336914062 137.666015625 281.00390625 114.999023438 281.00390625 c 0
 94.9990234375 281.00390625 79.33203125 287.670898438 67.9990234375 301.00390625 c 0
 57.9990234375 313.00390625 52.666015625 327.00390625 51.9990234375 343.00390625 c 2
 51.9990234375 346.00390625 l 2
 51.9990234375 359.336914062 55.666015625 372.669921875 62.9990234375 386.002929688 c 0
 67.666015625 394.002929688 74.666015625 400.002929688 83.9990234375 404.002929688 c 0
 91.33203125 407.3359375 99.33203125 409.002929688 107.999023438 409.002929688 c 2
 112.999023438 409.002929688 l 2x80
 139.666015625 407.002929688 177.333007812 404.3359375 226 401.002929688 c 1
 202.666992188 439.669921875 183 470.002929688 167 492.002929688 c 0
 157.666992188 507.3359375 153 522.3359375 153 537.002929688 c 0
 153 539.669921875 153.333007812 542.336914062 154 545.00390625 c 0
 156 563.670898438 164 576.670898438 178 584.00390625 c 0
 186.666992188 589.336914062 196.5 592.00390625 207.5 592.00390625 c 0
 218.5 592.00390625 229.666992188 588.669921875 241 582.002929688 c 0
 252.333007812 575.3359375 261.333007812 565.669921875 268 553.002929688 c 0
 274.666992188 539.002929688 290.666992188 507.669921875 316 459.002929688 c 1
 335.333007812 493.669921875 351.333007812 524.669921875 364 552.002929688 c 0
 370 564.669921875 378.333007812 574.169921875 389 580.502929688 c 0
 399.666992188 586.8359375 410 590.002929688 420 590.002929688 c 0
 430.666992188 590.002929688 440.666992188 587.3359375 450 582.002929688 c 0
 458.666992188 577.3359375 465.666992188 570.502929688 471 561.502929688 c 0
 476.333007812 552.502929688 479 542.002929688 479 530.002929688 c 0
 479 516.669921875 475 504.336914062 467 493.00390625 c 0
 449 466.336914062 429 433.669921875 407 395.002929688 c 1x20
 453 395.669921875 486.333007812 399.002929688 507 405.002929688 c 0
 515.666992188 407.002929688 521.333984375 408.002929688 524.000976562 408.002929688 c 0x40
 536.66796875 408.002929688 547.66796875 403.669921875 557.000976562 395.002929688 c 0x20
 570.333984375 382.3359375 577.333984375 368.668945312 578.000976562 354.001953125 c 0
 578.000976562 339.334960938 574.333984375 325.334960938 567.000976562 312.001953125 c 0
 562.333984375 304.001953125 556.000976562 297.668945312 548.000976562 293.001953125 c 0
 542.000976562 290.334960938 535.66796875 289.001953125 529.000976562 289.001953125 c 0x40
 525.66796875 289.001953125 522.334960938 289.334960938 519.001953125 290.001953125 c 0
 505.114257812 292.779296875 482.432617188 294.16796875 450.956054688 294.16796875 c 0
 444.65625 294.16796875 438.005859375 294.112304688 431.001953125 294.000976562 c 2
 408.001953125 294.000976562 l 1
 465.001953125 196.000976562 l 2
 472.334960938 181.333984375 476.001953125 168.000976562 476.001953125 156.000976562 c 0
 476.001953125 153.333984375 475.668945312 150.666992188 475.001953125 148 c 0
 473.001953125 132 466.001953125 120.666992188 454.001953125 114 c 0
 444.668945312 108 433.001953125 105 419.001953125 105 c 0
 408.334960938 105 397.66796875 107.333007812 387.000976562 112 c 0
 373.66796875 118 364.66796875 128 360.000976562 142 c 0
 352.66796875 164 339.334960938 194.666992188 320.001953125 234 c 1
 295.334960938 184.666992188 279.66796875 151.666992188 273.000976562 135 c 0
 269.66796875 124.333007812 263.834960938 116.333007812 255.501953125 111 c 0
 247.168945312 105.666992188 238.001953125 102.666992188 228.001953125 102 c 2x20
EndSplineSet
Validated: 524289
EndChar

StartChar: plus
Encoding: 43 43 11
Width: 630
GlyphClass: 2
Flags: W
HStem: 346 105.998<127.472 261 366 504.621>
VStem: 261 105<209.378 344.998 452.998 593.588>
LayerCount: 2
Fore
SplineSet
365.000976562 347 m 1
 366 249.999023438 l 2
 366 230.666015625 361.333007812 216.999023438 352 208.999023438 c 0
 342.666992188 200.33203125 331 195.665039062 317 194.998046875 c 2
 316 194.998046875 l 2
 300 194.998046875 287.666992188 198.665039062 279 205.998046875 c 0
 267 215.331054688 261 229.998046875 261 249.998046875 c 2
 261 344.998046875 l 1
 172 343.998046875 l 2
 152 343.998046875 137 349.331054688 127 359.998046875 c 0
 116.333007812 370.665039062 111 383.665039062 111 398.998046875 c 2
 111 401.998046875 l 2
 111 415.998046875 115.666992188 428.331054688 125 438.998046875 c 0
 135 449.665039062 149.333007812 454.998046875 168 454.998046875 c 0
 169.333007812 454.998046875 180 454.665039062 200 453.998046875 c 0
 220 453.331054688 240.333007812 452.998046875 261 452.998046875 c 1
 261 492.331054688 260 525.6640625 258 552.997070312 c 0
 258 571.6640625 264.333007812 585.331054688 277 593.998046875 c 0
 286.333007812 600.665039062 298.333007812 603.998046875 313 603.998046875 c 2
 317 603.998046875 l 2
 331 603.998046875 343 600.665039062 353 593.998046875 c 0
 364.333007812 585.998046875 370 572.998046875 370 554.998046875 c 2
 370 548.998046875 l 2
 368 514.998046875 366.666992188 482.665039062 366 451.998046875 c 1
 464 451.998046875 l 2
 483.333007812 451.998046875 497 447.331054688 505 437.998046875 c 0
 513 428.665039062 517.666992188 416.998046875 519 402.998046875 c 2
 519 401.998046875 l 2
 519 394.665039062 518.333007812 388.33203125 517 382.999023438 c 0
 515.666992188 376.999023438 513 370.999023438 509 364.999023438 c 0
 504.333007812 357.666015625 498 352.333007812 490 349 c 0
 484 347 477.333007812 346 470 346 c 2
 463 346 l 2
 453 347.333007812 438.666992188 348 420 348 c 0
 400.666992188 348 382.333984375 347.666992188 365.000976562 347 c 1
EndSplineSet
Validated: 524289
EndChar

StartChar: comma
Encoding: 44 44 12
Width: 630
GlyphClass: 2
Flags: W
VStem: 200.001 229.998
LayerCount: 2
Fore
SplineSet
285.997070312 -223 m 0
 275.330078125 -227 265.999023438 -228.999023438 257.999023438 -228.999023438 c 0
 249.999023438 -228.999023438 242.999023438 -227.666015625 236.999023438 -224.999023438 c 0
 228.333007812 -222.33203125 220.333007812 -217.33203125 212.999023438 -209.999023438 c 0
 205.666015625 -202.666015625 201.333007812 -193.333007812 200.000976562 -182 c 2
 200.000976562 -176 l 2
 200.000976562 -166 203.333007812 -156 210.000976562 -146 c 0
 223.333007812 -127.333007812 242.000976562 -84.3330078125 266.000976562 -17 c 0
 290.000976562 49 305.000976562 96 311.000976562 124 c 0
 313.666992188 136 319.666992188 145.333007812 329.000976562 152 c 0
 338.333007812 159.333007812 348.666015625 163 359.999023438 163 c 2
 361.999023438 163 l 2
 369.999023438 163 378.333007812 162.333007812 386.999023438 161 c 0
 400.333007812 157 411.333007812 149 419.999023438 137 c 0
 426.666015625 127.666992188 429.999023438 117.333984375 429.999023438 106.000976562 c 0
 429.999023438 101.333984375 429.666015625 97.333984375 428.999023438 94.0009765625 c 0
 422.333007812 61.333984375 407.665039062 10.6669921875 384.998046875 -58 c 0
 362.331054688 -127.333007812 344.998046875 -170.333007812 332.998046875 -187 c 0
 320.331054688 -204.333007812 304.665039062 -216.333007812 285.997070312 -223 c 0
EndSplineSet
Validated: 524289
EndChar

StartChar: hyphen
Encoding: 45 45 13
Width: 630
GlyphClass: 2
Flags: W
HStem: 230.001 111.999<166.44 465.172> 239.002 106<328.731 467.621>
LayerCount: 2
Fore
SplineSet
202 342 m 0x80
 240 342 285 342.333984375 337 343.000976562 c 0
 389.666992188 343.66796875 419.666992188 344.334960938 427 345.001953125 c 0
 446.333007812 345.001953125 460 340.334960938 468 331.001953125 c 0
 476 321.668945312 480.666992188 310.001953125 482 296.001953125 c 2
 482 295.001953125 l 2
 482 279.001953125 478.333007812 266.668945312 471 258.001953125 c 0
 461.666992188 246.001953125 447 239.668945312 427 239.001953125 c 0x40
 418.333007812 239.001953125 384.666015625 237.668945312 325.999023438 235.001953125 c 0
 267.33203125 232.334960938 226.33203125 230.66796875 202.999023438 230.000976562 c 0
 187.666015625 230.000976562 175.333007812 234.000976562 166 242.000976562 c 0
 154 251.333984375 148 265.666992188 148 285 c 2
 148 290 l 2
 148 308.666992188 154 322.666992188 166 332 c 0
 174.666992188 338.666992188 186.666992188 342 202 342 c 0x80
EndSplineSet
Validated: 524289
EndChar

StartChar: period
Encoding: 46 46 14
Width: 630
GlyphClass: 2
Flags: W
HStem: -26 178.037<257.144 375.352>
VStem: 221.481 187.037<6.96988 117.608>
LayerCount: 2
Fore
SplineSet
307.481445312 -26 m 2
 284.1484375 -26 264.481445312 -18 248.481445312 -2 c 0
 230.481445312 16.6669921875 221.481445312 38.333984375 221.481445312 63.0009765625 c 0
 221.481445312 87.66796875 231.481445312 108.66796875 251.481445312 126.000976562 c 0
 271.411132812 143.357421875 293.508789062 152.037109375 317.776367188 152.037109375 c 0
 318.674804688 152.037109375 319.577148438 152.024414062 320.481445312 152.000976562 c 0
 345.815429688 152.000976562 366.815429688 144.000976562 383.481445312 128.000976562 c 0
 400.172851562 111.310546875 408.518554688 91.5283203125 408.518554688 68.6552734375 c 0
 408.518554688 55.5234375 407.8828125 28.376953125 384.481445312 4 c 0
 367.813476562 -12.6669921875 345.813476562 -22.6669921875 318.481445312 -26 c 2
 307.481445312 -26 l 2
EndSplineSet
Validated: 524289
EndChar

StartChar: slash
Encoding: 47 47 15
Width: 630
GlyphClass: 2
Flags: W
HStem: 746.004 20G<507.917 518.583>
LayerCount: 2
Fore
SplineSet
131.25 -67 m 0
 121.916992188 -71.6669921875 112.58203125 -73.9970703125 103.249023438 -73.9970703125 c 0
 93.916015625 -73.9970703125 85.2490234375 -71.330078125 77.2490234375 -65.9970703125 c 0
 63.916015625 -57.9970703125 55.916015625 -42.6640625 53.2490234375 -19.9970703125 c 0
 52.58203125 -16.6640625 52.58203125 -12.9970703125 53.2490234375 -8.9970703125 c 0
 53.2490234375 9.0029296875 57.916015625 25.669921875 67.2490234375 41.0029296875 c 0
 164.58203125 201.002929688 247.915039062 343.002929688 317.248046875 467.002929688 c 1
 360.581054688 543.002929688 406.581054688 629.669921875 455.248046875 727.002929688 c 0
 461.915039062 739.669921875 470.58203125 749.002929688 481.249023438 755.002929688 c 0
 491.916015625 761.669921875 502.583007812 765.336914062 513.25 766.00390625 c 0
 523.916992188 766.00390625 534.583984375 763.670898438 545.250976562 759.00390625 c 0
 560.583984375 751.00390625 570.583984375 739.00390625 575.250976562 723.00390625 c 0
 576.583984375 718.336914062 577.250976562 713.669921875 577.250976562 709.002929688 c 0
 577.250976562 697.669921875 573.91796875 685.002929688 567.250976562 671.002929688 c 0
 549.91796875 636.3359375 501.250976562 552.668945312 421.250976562 420.001953125 c 0
 341.250976562 287.334960938 292.583984375 204.66796875 275.250976562 172.000976562 c 0
 264.583984375 151.333984375 247.250976562 116.333984375 223.250976562 67.0009765625 c 0
 199.250976562 17.66796875 184.250976562 -12.33203125 178.250976562 -22.9990234375 c 0
 165.583984375 -43.666015625 149.916992188 -58.3330078125 131.25 -67 c 0
EndSplineSet
Validated: 524289
EndChar

StartChar: zero
Encoding: 48 48 16
Width: 630
GlyphClass: 2
Flags: W
HStem: -24.001 107.996<225.58 385.453> 611.995 106.005<241.512 392.238>
VStem: 56 120.999<228.996 530.163> 453.999 115.999<165.933 399.325 400.71 457.995>
LayerCount: 2
Fore
SplineSet
453.999023438 457.995117188 m 1
 381.33203125 330.662109375 297.666992188 221.995117188 203 131.995117188 c 1
 221 100.662109375 250.33203125 84.662109375 290.999023438 83.9951171875 c 0
 310.33203125 83.9951171875 327 85.4951171875 341 88.4951171875 c 0
 355 91.4951171875 368.333984375 96.328125 381 102.995117188 c 0
 406.333984375 116.328125 425.666015625 143.328125 438.999023438 183.995117188 c 0
 441.666015625 191.995117188 444.666015625 213.495117188 447.999023438 248.495117188 c 0
 451.33203125 283.495117188 453.666015625 323.995117188 454.998046875 369.995117188 c 0
 455.220703125 380 455.33203125 389.930664062 455.33203125 399.787109375 c 0
 455.33203125 419.486328125 454.888671875 438.888671875 453.999023438 457.995117188 c 1
376 599.997070312 m 0
 358.666992188 607.997070312 339.666015625 611.995117188 318.999023438 611.995117188 c 0
 282.33203125 611.995117188 253.83203125 602.828125 233.499023438 584.495117188 c 0
 213.166015625 566.162109375 197.333984375 534.995117188 186 490.995117188 c 0
 181.333984375 473.662109375 178 455.329101562 176 435.99609375 c 0
 174.666992188 415.99609375 174 393.329101562 174 367.99609375 c 0
 174 327.99609375 174.999023438 281.663085938 176.999023438 228.99609375 c 1
 263.666015625 339.663085938 343 453.330078125 415 569.997070312 c 1
 403.666992188 582.6640625 390.666992188 592.6640625 376 599.997070312 c 0
569.998046875 490.995117188 m 2
 569.998046875 489.998046875 l 2
 573.331054688 450.665039062 575 410.662109375 575 369.995117188 c 0
 575 329.328125 573.666992188 289.331054688 571 249.998046875 c 0
 568.333984375 210.665039062 564 179.665039062 558 156.998046875 c 0
 546 114.331054688 531 79.6640625 513 52.9970703125 c 0
 503.666992188 39.6640625 493.166992188 28.3310546875 481.5 18.998046875 c 0
 469.833984375 9.6650390625 457.666015625 2.33203125 444.999023438 -3.0009765625 c 0
 431.666015625 -8.333984375 416.666015625 -13.0009765625 399.999023438 -17.0009765625 c 0
 382.666015625 -20.333984375 365.666015625 -22.333984375 348.999023438 -23.0009765625 c 0
 332.33203125 -23.66796875 312.999023438 -24.0009765625 290.999023438 -24.0009765625 c 0
 254.999023438 -24.0009765625 221.666015625 -18.333984375 190.999023438 -7.0009765625 c 0
 162.33203125 4.33203125 137.999023438 20.4990234375 118 41.4990234375 c 0
 98 62.4990234375 82.666015625 87.666015625 72 116.999023438 c 0
 61.33203125 146.33203125 56 177.999023438 56 211.999023438 c 2
 56 217.999023438 l 2
 56 250.666015625 55.666015625 281.333007812 55 310 c 0
 55 330.666992188 55.5 356 56.5 386 c 0
 57.5 416 59.166015625 440.833007812 61.5 460.5 c 0
 63.83203125 480.166992188 67.33203125 501.333984375 72 524.000976562 c 0
 76.666015625 547.333984375 82.666015625 567.666992188 90 585 c 0
 107.33203125 628.333007812 136.33203125 661.333007812 176.999023438 684 c 0
 220.999023438 706.666992188 274.33203125 718 336.999023438 718 c 0
 368.33203125 718 397.666015625 713.333007812 424.998046875 704 c 0
 451.666015625 694.666992188 475.166015625 680.666992188 495.498046875 662 c 0
 515.831054688 643.333007812 532.498046875 619.5 545.498046875 590.5 c 0
 558.498046875 561.5 566.666015625 528.328125 569.998046875 490.995117188 c 2
EndSplineSet
Validated: 524289
EndChar

StartChar: one
Encoding: 49 49 17
Width: 630
GlyphClass: 2
Flags: W
HStem: -9.00098 110.501<104.326 251.998 383.002 566.561> -5.00098 114.001<60.4389 251.998 383.002 451.524>
VStem: 251.998 131.004<107 552.809> 262.999 123.003<266.377 552.809>
LayerCount: 2
Fore
SplineSet
583.001953125 49.9990234375 m 1xa0
 583.001953125 46.9990234375 l 2
 583.001953125 31.666015625 578.33203125 18.666015625 568.999023438 7.9990234375 c 0
 558.999023438 -3.333984375 541.999023438 -9.0009765625 517.999023438 -9.0009765625 c 0xa0
 265.33203125 -7.0009765625 126.665039062 -5.66796875 101.998046875 -5.0009765625 c 0
 83.3310546875 -5.0009765625 69.3310546875 0.33203125 59.998046875 10.9990234375 c 0
 51.3310546875 21.666015625 46.998046875 34.666015625 46.998046875 49.9990234375 c 2
 46.998046875 52.9990234375 l 2
 46.998046875 67.666015625 50.998046875 80.3330078125 58.998046875 91 c 0
 68.3310546875 103 82.998046875 109 102.998046875 109 c 0
 130.998046875 109 180.665039062 108.333007812 251.998046875 107 c 1x60
 251.998046875 127 251.665039062 143.666992188 250.998046875 157 c 0
 250.331054688 163 249.998046875 180.333007812 249.998046875 209 c 0
 249.998046875 234.333007812 250.331054688 255 250.998046875 271 c 0
 250.998046875 289 252.331054688 325 254.998046875 379 c 0
 259.665039062 480.333007812 262.33203125 539.333007812 262.999023438 556 c 1
 219.666015625 526 186.666015625 507 163.999023438 499 c 0
 155.999023438 497 150.666015625 496 147.999023438 496 c 0
 135.999023438 496 123.999023438 501 111.999023438 511 c 0
 95.9990234375 524.333007812 87.9990234375 538 87.9990234375 552 c 0
 87.9990234375 565.333007812 90.9990234375 576.833007812 96.9990234375 586.5 c 0
 102.999023438 596.166992188 112.666015625 606 125.999023438 616 c 0
 144.666015625 630 169.333007812 648.666992188 200 672 c 1
 212.666992188 674 225.333984375 683 238.000976562 699 c 0
 249.333984375 707 261.000976562 714.333007812 273.000976562 721 c 0
 283.909179688 727.060546875 294.267578125 730.090820312 304.07421875 730.090820312 c 0
 305.055664062 730.090820312 306.03125 730.060546875 307.000976562 730 c 0
 325.66796875 730 344.334960938 723.333007812 363.001953125 710 c 0
 373.001953125 702.666992188 380.501953125 696 385.501953125 690 c 0
 390.501953125 684 393.001953125 678 393.001953125 672 c 2
 393.001953125 671 l 2
 392.334960938 655.666992188 390.001953125 603.166992188 386.001953125 513.5 c 0x50
 382.001953125 423.833007812 380.001953125 371.333007812 380.001953125 356 c 0
 380.001953125 292 380.334960938 238.666992188 381.001953125 196 c 0
 381.001953125 174 381.668945312 143 383.001953125 103 c 1
 419.001953125 102.333007812 442.001953125 102 452.001953125 102 c 0
 461.334960938 102 473.834960938 101.833007812 489.501953125 101.5 c 0
 505.168945312 101.166992188 515.3359375 101 520.002929688 101 c 0
 542.002929688 101 557.669921875 96.1669921875 567.002929688 86.5 c 0
 576.3359375 76.8330078125 581.668945312 65 583.001953125 51 c 2
 583.001953125 49.9990234375 l 1xa0
EndSplineSet
Validated: 524289
EndChar

StartChar: two
Encoding: 50 50 18
Width: 630
GlyphClass: 2
Flags: W
HStem: -18.0029 108.432<183.591 497.107> -12.0029 113.999<500.311 557.623> 506.999 21G<131.667 136.667> 612.998 109.001<243.888 407.109>
VStem: 432 126<456.851 587.935>
LayerCount: 2
Fore
SplineSet
499.998046875 101 m 1xb8
 506.665039062 109.666992188 513.66796875 109.99609375 521.000976562 101.99609375 c 0
 523.000976562 101.99609375 526.833984375 101.829101562 532.500976562 101.49609375 c 0
 538.16796875 101.163085938 542.66796875 100.163085938 546.000976562 98.49609375 c 0
 549.333984375 96.8291015625 552.666015625 94.99609375 556 92.99609375 c 0
 561.333007812 89.6630859375 565 85.6630859375 567 80.99609375 c 0
 571 72.99609375 573 63.6630859375 573 52.99609375 c 0
 573 33.6630859375 568 17.330078125 558 3.9970703125 c 0
 550 -6.669921875 539.666015625 -12.0029296875 527 -12.0029296875 c 0x78
 479.666015625 -12.0029296875 403.666015625 -14.0029296875 299 -18.0029296875 c 0
 263.666015625 -19.3359375 227.333984375 -20.0029296875 190.000976562 -20.0029296875 c 0
 155.333984375 -20.0029296875 128.333984375 -18.669921875 109 -16.0029296875 c 0
 98.333984375 -14.669921875 89 -10.3369140625 81 -3.00390625 c 0
 75 2.3291015625 70.333984375 9.3291015625 67 17.99609375 c 0
 60.333984375 35.3291015625 57 59.3291015625 57 89.99609375 c 0
 57 120.663085938 63.333984375 151.663085938 76 182.99609375 c 0
 88.66796875 214.329101562 107.66796875 244.49609375 133.000976562 273.49609375 c 0
 158.333984375 302.49609375 188.666015625 325.99609375 224 343.99609375 c 0
 302 381.99609375 352 408.663085938 374 423.99609375 c 0
 400.666015625 442.663085938 418 462.330078125 426 482.997070312 c 0
 430 495.6640625 432 511.331054688 432 529.998046875 c 0
 432 559.331054688 423 580.331054688 405 592.998046875 c 0
 385.666015625 606.331054688 356.666015625 612.998046875 318 612.998046875 c 0
 292 612.998046875 267.166015625 605.665039062 243.5 590.998046875 c 0
 219.833007812 576.331054688 201.333007812 559.998046875 188 541.998046875 c 0
 181.333007812 532.665039062 174.333007812 524.83203125 167 518.499023438 c 0
 159.666015625 512.166015625 152 508.666015625 144 507.999023438 c 0
 141.333007812 507.999023438 138.333007812 507.666015625 135 506.999023438 c 0
 128.333007812 506.999023438 117.33203125 510.33203125 102 516.999023438 c 0
 87.33203125 524.999023438 78 536.33203125 74 550.999023438 c 0
 73.33203125 554.999023438 73 558.666015625 73 561.999023438 c 0
 73 573.33203125 76.666015625 586.999023438 84 602.999023438 c 0
 91.33203125 616.999023438 102 630.83203125 116 644.499023438 c 0
 130 658.166015625 146 670.999023438 164 682.999023438 c 0
 183.333007812 694.999023438 206.333007812 704.499023438 233 711.499023438 c 0
 259.666015625 718.499023438 286.666015625 721.999023438 314 721.999023438 c 0
 396 721.999023438 457.333007812 704.999023438 498 670.999023438 c 0
 538 636.999023438 558 585.999023438 558 517.999023438 c 0
 558 461.999023438 543 416.666015625 513 381.999023438 c 0
 491 357.33203125 451 330.33203125 393 300.999023438 c 0
 378.333007812 293.666015625 353 281.666015625 317 264.999023438 c 0
 287 250.999023438 262 233.83203125 242 213.499023438 c 0
 222 193.166015625 207.333007812 172.333007812 198 151 c 0
 190.666015625 133 185.666015625 113.666992188 183 93 c 1
 216.716796875 91.28515625 248.962890625 90.4287109375 279.740234375 90.4287109375 c 0
 284.868164062 90.4287109375 289.954101562 90.4521484375 294.998046875 90.5 c 0
 330.33203125 90.8330078125 357.665039062 91.3330078125 376.998046875 92 c 0
 396.998046875 93.3330078125 437.998046875 96.3330078125 499.998046875 101 c 1xb8
EndSplineSet
Validated: 524289
EndChar

StartChar: three
Encoding: 51 51 19
Width: 630
GlyphClass: 2
Flags: W
HStem: -24.0166 108.017<232.507 392.542> 306 125<194.72 358.949> 520.002 21G<134.501 141.834> 613.001 109.001<227.846 392.21>
VStem: 418.502 126.997<479.219 589.309> 443.5 124<130.061 255.137>
LayerCount: 2
Fore
SplineSet
556.5 279.5 m 0xf8
 563.833007812 257.833007812 567.5 232.330078125 567.5 202.997070312 c 0
 567.5 133.6640625 545.166992188 78.3310546875 500.5 36.998046875 c 0
 455.23046875 -3.6787109375 390.268554688 -24.0166015625 305.61328125 -24.0166015625 c 0
 304.247070312 -24.0166015625 302.875976562 -24.01171875 301.5 -24.0009765625 c 0
 274.166992188 -24.0009765625 247.166992188 -20.333984375 220.5 -13.0009765625 c 0
 193.833007812 -5.66796875 171.333007812 3.6650390625 153 14.998046875 c 0
 134.666992188 26.3310546875 118.5 38.998046875 104.5 52.998046875 c 0
 90.5 66.998046875 80 80.8310546875 73 94.498046875 c 0
 66 108.165039062 62.5 120.998046875 62.5 132.998046875 c 0
 62.5 136.998046875 63.1669921875 140.998046875 64.5 144.998046875 c 0
 67.8330078125 161.665039062 76.8330078125 173.33203125 91.5 179.999023438 c 0
 102.166992188 185.33203125 112.166992188 187.999023438 121.5 187.999023438 c 0
 141.5 187.999023438 159.5 177.33203125 175.5 155.999023438 c 0
 190.166992188 136.666015625 209.166992188 119.833007812 232.5 105.5 c 0
 255.833007812 91.1669921875 280.5 84 306.5 84 c 0
 347.166992188 84 380.166992188 93.8330078125 405.5 113.5 c 0
 430.833007812 133.166992188 443.5 158 443.5 188 c 0xf4
 443.5 207.333007812 440.166992188 223.833007812 433.5 237.5 c 0
 426.833007812 251.166992188 416.333007812 263.166992188 402 273.5 c 0
 387.666992188 283.833007812 367.333984375 291.833007812 341.000976562 297.5 c 0
 314.66796875 303.166992188 282.500976562 306 244.500976562 306 c 0
 225.16796875 306 209.16796875 312.666992188 196.500976562 326 c 0
 183.16796875 339.333007812 176.500976562 354.333007812 176.500976562 371 c 0
 176.500976562 387.666992188 181.16796875 401.666992188 190.500976562 413 c 0
 201.16796875 425 216.500976562 431 236.500976562 431 c 0
 295.16796875 431 340.834960938 440.666992188 373.501953125 460 c 0
 403.501953125 478 418.501953125 504 418.501953125 538 c 2
 418.501953125 541 l 1
 418.501953125 545 l 2
 418.501953125 567.666992188 409.168945312 584.333984375 390.501953125 595.000976562 c 0
 368.501953125 607.000976562 336.501953125 613.000976562 294.501953125 613.000976562 c 0
 281.834960938 613.000976562 268.16796875 611.000976562 253.500976562 607.000976562 c 0
 249.500976562 605.66796875 244.833984375 603.16796875 239.500976562 599.500976562 c 0
 234.16796875 595.833984375 230.000976562 592.833984375 227.000976562 590.500976562 c 0
 224.000976562 588.16796875 220.000976562 584.334960938 215.000976562 579.001953125 c 0
 210.000976562 573.668945312 206.500976562 569.668945312 204.500976562 567.001953125 c 0
 200.500976562 554.334960938 196.833984375 549.66796875 193.500976562 553.000976562 c 1
 180.16796875 535.66796875 166.500976562 525.334960938 152.500976562 522.001953125 c 0
 148.500976562 520.668945312 144.16796875 520.001953125 139.500976562 520.001953125 c 0
 129.500976562 520.001953125 119.16796875 523.001953125 108.500976562 529.001953125 c 0
 93.833984375 536.334960938 84.833984375 548.001953125 81.5009765625 564.001953125 c 0
 80.833984375 568.001953125 80.5009765625 572.001953125 80.5009765625 576.001953125 c 0
 80.5009765625 588.001953125 83.833984375 601.001953125 90.5009765625 615.001953125 c 0
 104.500976562 643.668945312 126.16796875 668.001953125 155.500976562 688.001953125 c 0
 170.833984375 698.668945312 190.166992188 707.001953125 213.5 713.001953125 c 0
 236.833007812 719.001953125 262.166015625 722.001953125 289.499023438 722.001953125 c 0
 377.499023438 722.001953125 442.499023438 705.668945312 484.499023438 673.001953125 c 0
 525.166015625 640.334960938 545.499023438 592.66796875 545.499023438 530.000976562 c 2
 545.499023438 526.000976562 l 1
 545.499023438 523.000976562 l 2
 545.499023438 504.333984375 542.666015625 486.833984375 536.999023438 470.500976562 c 0
 531.33203125 454.16796875 523.665039062 440.334960938 513.998046875 429.001953125 c 0
 504.331054688 417.668945312 492.831054688 407.668945312 479.498046875 399.001953125 c 0
 466.165039062 390.334960938 452.498046875 383.66796875 438.498046875 379.000976562 c 1
 449.165039062 375.66796875 458.83203125 372.334960938 467.499023438 369.001953125 c 0
 488.166015625 360.334960938 506.333007812 348.66796875 522 334.000976562 c 0
 537.666992188 319.333984375 549.166992188 301.166992188 556.5 279.5 c 0xf8
EndSplineSet
Validated: 524289
EndChar

StartChar: four
Encoding: 52 52 20
Width: 630
GlyphClass: 2
Flags: W
HStem: -23 21G<443 458.333> 218.999 90.001<185.216 386.999 488.001 556.169>
VStem: 380.001 98.999<456.567 587.448> 385.999 102.002<37.313 218 309 587.448> 386.999 109.002<-7.4969 213.685>
LayerCount: 2
Fore
SplineSet
494.000976562 59 m 0xd0
 495.333984375 51 496.000976562 43.6669921875 496.000976562 37 c 0xc8
 496.000976562 23.6669921875 493.333984375 12 488.000976562 2 c 0xd0
 479.333984375 -14.6669921875 466.666992188 -23 450 -23 c 0
 436 -23 422.166992188 -17.8330078125 408.5 -7.5 c 0
 394.833007812 2.8330078125 387.666015625 13.666015625 386.999023438 24.9990234375 c 0xc8
 386.33203125 32.9990234375 385.999023438 45.666015625 385.999023438 62.9990234375 c 2
 385.999023438 138.999023438 l 2xd0
 385.999023438 166.33203125 386.33203125 192.999023438 386.999023438 218.999023438 c 1xc8
 341.999023438 218.999023438 l 2
 243.33203125 218.999023438 173.665039062 214.666015625 132.998046875 205.999023438 c 0
 128.331054688 204.666015625 123.331054688 204.166015625 117.998046875 204.499023438 c 0
 112.665039062 204.83203125 107.33203125 205.665039062 101.999023438 206.998046875 c 0
 92.666015625 210.331054688 85.166015625 215.498046875 79.4990234375 222.498046875 c 0
 73.83203125 229.498046875 69.4990234375 237.498046875 66.4990234375 246.498046875 c 0
 63.4990234375 255.498046875 61.9990234375 264.665039062 61.9990234375 273.998046875 c 0
 61.9990234375 284.665039062 63.666015625 294.665039062 66.9990234375 303.998046875 c 0
 73.666015625 323.331054688 91.666015625 353.831054688 120.999023438 395.498046875 c 0
 150.33203125 437.165039062 188.999023438 488.998046875 236.999023438 550.998046875 c 0
 279.666015625 605.665039062 313.666015625 650.33203125 338.999023438 684.999023438 c 0
 348.33203125 697.666015625 358.999023438 707.499023438 370.999023438 714.499023438 c 0
 382.999023438 721.499023438 394.666015625 724.999023438 405.999023438 724.999023438 c 2
 412.999023438 724.999023438 l 2
 424.999023438 724.999023438 435.999023438 722.666015625 445.999023438 717.999023438 c 0
 458.666015625 711.33203125 466.333007812 699.999023438 469 683.999023438 c 2
 469 682.999023438 l 1
 473 659.666015625 476.333007812 624.166015625 479 576.499023438 c 0xe0
 481.666992188 528.83203125 483.333984375 488.33203125 484.000976562 454.999023438 c 0
 484.66796875 405.666015625 485.66796875 356.666015625 487.000976562 307.999023438 c 1
 497.000976562 307.33203125 508.000976562 306.999023438 520.000976562 306.999023438 c 0
 537.333984375 306.999023438 549.500976562 303.166015625 556.500976562 295.499023438 c 0
 563.500976562 287.83203125 567.333984375 277.999023438 568.000976562 265.999023438 c 2
 568.000976562 265 l 2
 568.000976562 251 564.66796875 240 558.000976562 232 c 0
 550.000976562 222 537.333984375 217 520.000976562 217 c 0
 508.66796875 217 498.000976562 217.333007812 488.000976562 218 c 1
 489.333984375 125.333007812 491.333984375 72.3330078125 494.000976562 59 c 0xd0
319.000976562 309 m 2
 386.999023438 309 l 1xc8
 386.999023438 424.333007812 384.66796875 517.666015625 380.000976562 588.999023438 c 1xe0
 285.333984375 469.666015625 220.000976562 375.333007812 184.000976562 306 c 1
 221.333984375 308 266.333984375 309 319.000976562 309 c 2
EndSplineSet
Validated: 524289
EndChar

StartChar: five
Encoding: 53 53 21
Width: 630
GlyphClass: 2
Flags: W
HStem: -18.002 109.001<209.765 371.839> 407.998 113.043<246.316 415.675> 594.995 112.998<291.603 552.12> 605.995 103.998<185.501 514.887>
VStem: 63.501 119<466.431 602.995> 453.498 124.003<181.147 368.764>
LayerCount: 2
Fore
SplineSet
68.5009765625 561 m 0xdc
 69.833984375 581.666992188 70.4951171875 596.993164062 70.4951171875 606.993164062 c 1
 63.7734375 617.9921875 60.4130859375 630.672851562 60.4130859375 645.033203125 c 0
 60.4130859375 658.096679688 60.94140625 681.393554688 80.49609375 698.993164062 c 0
 89.8291015625 707.66015625 100.49609375 711.993164062 112.49609375 711.993164062 c 0
 137.163085938 711.993164062 199.163085938 711.326171875 298.497070312 709.993164062 c 0xdc
 399.163085938 708.66015625 473.497070312 707.993164062 521.497070312 707.993164062 c 0
 534.163085938 707.993164062 544.497070312 702.66015625 552.497070312 691.993164062 c 0
 562.497070312 678.66015625 567.497070312 662.327148438 567.497070312 642.994140625 c 0
 567.497070312 622.994140625 561.829101562 609.661132812 550.497070312 602.994140625 c 0
 547.163085938 600.994140625 543.830078125 599.327148438 540.497070312 597.994140625 c 0
 537.165039062 596.661132812 532.665039062 595.828125 526.997070312 595.495117188 c 0
 521.330078125 595.162109375 517.330078125 594.995117188 514.997070312 594.995117188 c 0xec
 512.665039062 594.995117188 508.997070312 595.162109375 503.997070312 595.495117188 c 0
 498.997070312 595.828125 495.830078125 595.995117188 494.497070312 595.995117188 c 1
 485.165039062 595.995117188 467.831054688 597.328125 442.498046875 599.995117188 c 0
 415.831054688 601.995117188 392.331054688 603.495117188 371.998046875 604.495117188 c 0
 351.665039062 605.495117188 324.333007812 605.995117188 289.999023438 605.995117188 c 0
 255.666015625 605.995117188 220.833007812 604.995117188 185.500976562 602.995117188 c 1
 183.366210938 562.998046875 182.299804688 535.798828125 182.299804688 521.3984375 c 0
 182.299804688 517.796875 182.366210938 514.99609375 182.500976562 512.995117188 c 0
 182.500976562 500.995117188 182.333007812 492.495117188 182.000976562 487.495117188 c 0
 181.666992188 482.495117188 181.833984375 475.328125 182.500976562 465.995117188 c 1
 200.500976562 479.328125 222.168945312 490.995117188 247.500976562 500.995117188 c 0
 282.500976562 514.358398438 321.751953125 521.041015625 365.254882812 521.041015625 c 0
 367.327148438 521.041015625 369.409179688 521.025390625 371.500976562 520.995117188 c 0
 406.168945312 520.995117188 437.168945312 515.328125 464.500976562 503.995117188 c 0
 489.833984375 492.662109375 510.666992188 476.829101562 527.000976562 456.49609375 c 0
 543.333007812 436.163085938 555.833007812 412.830078125 564.500976562 386.497070312 c 0
 573.166992188 360.1640625 577.500976562 331.6640625 577.500976562 300.997070312 c 0
 577.500976562 251.6640625 571.166992188 206.831054688 558.500976562 166.498046875 c 0
 545.833007812 126.165039062 527.666015625 92.498046875 503.999023438 65.498046875 c 0
 480.333007812 38.498046875 450.833007812 17.998046875 415.499023438 3.998046875 c 0
 379.499023438 -10.6689453125 340.499023438 -18.001953125 298.499023438 -18.001953125 c 0
 265.166015625 -18.001953125 234.166015625 -14.6689453125 205.499023438 -8.001953125 c 0
 177.499023438 -1.3349609375 154.833007812 7.33203125 137.499023438 17.9990234375 c 0
 120.166015625 28.666015625 105.499023438 40.3330078125 93.4990234375 53 c 0
 81.4990234375 65.6669921875 71.4990234375 79 63.4990234375 93 c 0
 56.166015625 109 52.4990234375 122.666992188 52.4990234375 134 c 0
 52.4990234375 138 53.166015625 142 54.4990234375 146 c 0
 57.83203125 160.666992188 67.1650390625 172 82.498046875 180 c 0
 90.498046875 183.333007812 96.998046875 185.666015625 101.998046875 186.999023438 c 0
 106.998046875 188.33203125 111.331054688 188.999023438 114.998046875 188.999023438 c 0
 118.665039062 188.999023438 121.498046875 188.666015625 123.498046875 187.999023438 c 0
 132.165039062 187.33203125 140.165039062 183.665039062 147.498046875 176.998046875 c 0
 153.498046875 171.665039062 159.831054688 164.33203125 166.498046875 154.999023438 c 0
 196.498046875 112.33203125 236.831054688 90.9990234375 287.498046875 90.9990234375 c 0
 338.165039062 90.9990234375 378.165039062 108.33203125 407.498046875 142.999023438 c 0
 438.165039062 178.999023438 453.498046875 227.666015625 453.498046875 288.999023438 c 0
 453.498046875 326.33203125 444.165039062 355.665039062 425.498046875 376.998046875 c 0
 408.165039062 397.665039062 380.833007812 407.998046875 343.499023438 407.998046875 c 0
 326.166015625 407.998046875 307.833007812 405.998046875 288.500976562 401.998046875 c 0
 279.166992188 399.998046875 266.166992188 395.331054688 249.500976562 387.998046875 c 0
 245.500976562 385.998046875 240.333007812 382.665039062 234.000976562 377.998046875 c 0
 227.666992188 373.331054688 223.500976562 369.998046875 221.500976562 367.998046875 c 0
 210.166992188 358.665039062 200.833984375 350.665039062 193.500976562 343.998046875 c 0
 178.168945312 331.331054688 160.500976562 323.998046875 140.500976562 321.998046875 c 2
 133.500976562 321.998046875 l 2
 124.168945312 321.998046875 115.16796875 323.998046875 106.500976562 327.998046875 c 0
 92.5009765625 333.998046875 81.833984375 346.665039062 74.5009765625 365.998046875 c 0
 68.5009765625 382.665039062 64.833984375 403.33203125 63.5009765625 427.999023438 c 0
 63.1669921875 433.33203125 63.0009765625 438.666015625 63.0009765625 444 c 0
 63.0009765625 449.333007812 63.1669921875 454.666015625 63.5009765625 460 c 0
 63.5009765625 483.333007812 65.16796875 517 68.5009765625 561 c 0xdc
EndSplineSet
Validated: 524289
EndChar

StartChar: six
Encoding: 54 54 22
Width: 630
GlyphClass: 2
Flags: W
HStem: -22.002 107.997<241.312 382.935> 379.996 114.002<237.445 418.642>
VStem: 50 116<167.545 324.488> 456.999 123.001<163.55 341.372>
LayerCount: 2
Fore
SplineSet
564.999023438 361 m 0
 574.999023438 329.666992188 580 293.331054688 580 251.998046875 c 0
 580 213.998046875 573.333007812 178.331054688 560 144.998046875 c 0
 534 76.998046875 488.666992188 28.3310546875 424 -1.001953125 c 0
 391.478515625 -15.03125 356.823242188 -22.0458984375 320.032226562 -22.0458984375 c 0
 318.359375 -22.0458984375 316.681640625 -22.03125 315 -22.001953125 c 0
 268.333007812 -22.001953125 227 -14.001953125 191 1.998046875 c 0
 157 18.6650390625 129.833007812 41.998046875 109.5 71.998046875 c 0
 89.1669921875 101.998046875 74.1669921875 136.831054688 64.5 176.498046875 c 0
 54.8330078125 216.165039062 50 259.665039062 50 306.998046875 c 0
 50 366.998046875 55.8330078125 420.498046875 67.5 467.498046875 c 0
 79.1669921875 514.498046875 94.833984375 553.831054688 114.500976562 585.498046875 c 0
 134.16796875 617.165039062 159.000976562 643.665039062 189.000976562 664.998046875 c 0
 220.333984375 686.998046875 254.333984375 703.665039062 291.000976562 714.998046875 c 0
 327.66796875 726.331054688 368.000976562 733.6640625 412.000976562 736.997070312 c 2
 423.000976562 736.997070312 l 2
 438.333984375 736.997070312 451.666992188 734.330078125 463 728.997070312 c 0
 478.333007812 721.6640625 487.333007812 709.997070312 490 693.997070312 c 2
 490 689.997070312 l 2
 490 679.997070312 485 669.6640625 475 658.997070312 c 0
 464.333007812 648.330078125 452 640.997070312 438 636.997070312 c 0
 430 634.997070312 417.666992188 632.497070312 401 629.497070312 c 0
 384.333007812 626.497070312 370.333007812 623.6640625 359 620.997070312 c 0
 347.666992188 618.330078125 334.666992188 614.330078125 320 608.997070312 c 0
 290.666992188 598.330078125 261 577.997070312 231 547.997070312 c 0
 215.666992188 531.997070312 201.666992188 510.330078125 189 482.997070312 c 0
 183 468.997070312 177.666992188 455.997070312 173 443.997070312 c 1
 191 456.6640625 211.333007812 466.6640625 234 473.997070312 c 0
 271.333007812 486.6640625 313.333007812 493.331054688 360 493.998046875 c 0
 395.333007812 493.998046875 426.666015625 489.331054688 453.999023438 479.998046875 c 0
 479.999023438 470.665039062 502.499023438 456.33203125 521.499023438 436.999023438 c 0
 540.499023438 417.666015625 554.999023438 392.333007812 564.999023438 361 c 0
265 94.9970703125 m 0
 280.333007812 88.9970703125 296.666015625 85.9951171875 313.999023438 85.9951171875 c 2
 315.999023438 85.9951171875 l 1
 316.999023438 85.9951171875 l 2
 340.33203125 85.9951171875 362.999023438 93.662109375 384.999023438 108.995117188 c 0
 406.999023438 124.328125 424.499023438 143.828125 437.499023438 167.495117188 c 0
 450.499023438 191.162109375 456.999023438 215.329101562 456.999023438 239.99609375 c 0
 456.999023438 297.329101562 445.999023438 335.329101562 423.999023438 353.99609375 c 0
 412.666015625 363.329101562 399.833007812 369.99609375 385.5 373.99609375 c 0
 371.166992188 377.99609375 353 379.99609375 331 379.99609375 c 0
 297 379.99609375 265.333007812 372.49609375 236 357.49609375 c 0
 206.666992188 342.49609375 183 323.329101562 165 299.99609375 c 1
 165 274.663085938 165.333007812 253.663085938 166 236.99609375 c 0
 168.666992188 208.99609375 178.333984375 181.663085938 195.000976562 154.99609375 c 0
 203.66796875 141.663085938 213.66796875 129.830078125 225.000976562 119.497070312 c 0
 236.333984375 109.1640625 249.666992188 100.997070312 265 94.9970703125 c 0
EndSplineSet
Validated: 524289
EndChar

StartChar: seven
Encoding: 55 55 23
Width: 630
GlyphClass: 2
Flags: W
HStem: -23 21G<140 147.667> 601 113.001<101.735 430.001>
LayerCount: 2
Fore
SplineSet
243.001953125 601 m 0
 177.001953125 599.666992188 134.333984375 596.669921875 115.000976562 592.002929688 c 0
 111.000976562 590.669921875 106.500976562 590.002929688 101.500976562 590.002929688 c 0
 96.5009765625 590.002929688 91.333984375 591.002929688 86.0009765625 593.002929688 c 0
 77.333984375 596.3359375 70.6669921875 601.3359375 66 608.002929688 c 0
 56.6669921875 620.002929688 51.6669921875 633.669921875 51 649.002929688 c 1
 51 642.3359375 51 642.668945312 51 650.001953125 c 0
 51 664.001953125 55 675.668945312 63 685.001953125 c 0
 71 694.334960938 84.6669921875 700.66796875 104 704.000976562 c 0
 140 710.66796875 200.333007812 714.000976562 285 714.000976562 c 0
 319.666992188 714.000976562 367.333984375 712.66796875 428.000976562 710.000976562 c 0
 485.333984375 708.000976562 515.333984375 707.000976562 518.000976562 707.000976562 c 0
 526.66796875 707.000976562 535.16796875 705.16796875 543.500976562 701.500976562 c 0
 551.833984375 697.833984375 559.666992188 692.000976562 567 684.000976562 c 0
 574.333007812 675.333984375 578.333007812 664.000976562 579 650.000976562 c 0
 579 638.000976562 575.333007812 624.66796875 568 610.000976562 c 0
 558.666992188 590.000976562 541.666992188 560.500976562 517 521.500976562 c 0
 492.333007812 482.500976562 466.333007812 442.66796875 439 402.000976562 c 0
 410.333007812 361.333984375 375.333007812 307.166992188 334 239.5 c 0
 292.666992188 171.833007812 253.666992188 102.666015625 217 31.9990234375 c 0
 207.666992188 12.666015625 194.666992188 -1.6669921875 178 -11 c 0
 165.333007812 -19 153.333007812 -23 142 -23 c 0
 138 -23 134 -22.6669921875 130 -22 c 0
 112 -18 99.3330078125 -8 92 8 c 0
 88.6669921875 15.3330078125 87 23.166015625 87 31.4990234375 c 0
 87 39.83203125 89.3330078125 48.9990234375 94 58.9990234375 c 0
 128 125.666015625 165.666992188 191.999023438 207 257.999023438 c 0
 249.666992188 323.999023438 284.833984375 376.33203125 312.500976562 414.999023438 c 0
 340.16796875 453.666015625 364.500976562 489.333007812 385.500976562 522 c 0
 406.500976562 554.666992188 421.333984375 581 430.000976562 601 c 1
 401.333984375 601.666015625 371.41796875 602 340.251953125 602 c 0
 309.084960938 602 276.66796875 601.666015625 243.001953125 601 c 0
EndSplineSet
Validated: 524289
EndChar

StartChar: eight
Encoding: 56 56 24
Width: 630
GlyphClass: 2
Flags: W
HStem: -28.001 110<219.184 400.638> 621.999 96.002<236.764 373.08>
VStem: 44.499 111.003<137.082 263.615> 71.499 121.003<482.059 579.145> 424.501 117.001<478.907 573.656> 468.502 116.999<140 269.94>
LayerCount: 2
Fore
SplineSet
233.501953125 96.9990234375 m 0xe4
 256.834960938 86.9990234375 281.834960938 81.9990234375 308.501953125 81.9990234375 c 0
 327.168945312 81.9990234375 346.001953125 84.666015625 365.001953125 89.9990234375 c 0
 384.001953125 95.33203125 401.334960938 102.999023438 417.001953125 112.999023438 c 0
 432.668945312 122.999023438 445.168945312 135.666015625 454.501953125 150.999023438 c 0
 463.834960938 166.33203125 468.501953125 182.999023438 468.501953125 200.999023438 c 0
 468.501953125 210.999023438 467.501953125 220.33203125 465.501953125 228.999023438 c 0
 463.501953125 237.666015625 459.501953125 247.666015625 453.501953125 258.999023438 c 0
 447.501953125 270.33203125 439.168945312 280.999023438 428.501953125 290.999023438 c 0
 417.834960938 300.999023438 403.001953125 311.33203125 384.001953125 321.999023438 c 0
 365.001953125 332.666015625 342.501953125 342.333007812 316.501953125 351 c 1
 268.501953125 339 229.501953125 318.666992188 199.501953125 290 c 0
 170.168945312 261.333007812 155.501953125 230.666015625 155.501953125 197.999023438 c 0
 155.501953125 175.999023438 162.501953125 155.999023438 176.501953125 137.999023438 c 0
 191.834960938 119.999023438 210.834960938 106.33203125 233.501953125 96.9990234375 c 0xe4
226.000976562 591.499023438 m 0
 203.666992188 571.166015625 192.501953125 549.333007812 192.501953125 526 c 0
 192.501953125 507.333007812 202.168945312 490.666015625 221.501953125 475.999023438 c 0
 241.501953125 460.666015625 275.168945312 444.999023438 322.501953125 428.999023438 c 1
 349.834960938 439.666015625 373.668945312 453.666015625 394.000976562 470.999023438 c 0
 414.333984375 488.33203125 424.500976562 503.33203125 424.500976562 515.999023438 c 0xd8
 424.500976562 532.666015625 419.333984375 548.999023438 409.000976562 564.999023438 c 0
 398.668945312 580.999023438 384.168945312 594.499023438 365.500976562 605.499023438 c 0
 346.833984375 616.499023438 327.166992188 621.999023438 306.500976562 621.999023438 c 2
 304.500976562 621.999023438 l 2
 274.500976562 621.999023438 248.333007812 611.83203125 226.000976562 591.499023438 c 0
582.000976562 246 m 0
 584.333984375 234 585.500976562 221.33203125 585.500976562 207.999023438 c 0
 585.500976562 185.999023438 582.500976562 164.33203125 576.500976562 142.999023438 c 0
 570.500976562 121.666015625 560.500976562 100.499023438 546.500976562 79.4990234375 c 0
 532.500976562 58.4990234375 515.166992188 40.33203125 494.500976562 24.9990234375 c 0
 473.833007812 9.666015625 446.666015625 -3.0009765625 412.999023438 -13.0009765625 c 0
 379.333007812 -23.0009765625 342.665039062 -28.0009765625 302.998046875 -28.0009765625 c 0
 263.331054688 -28.0009765625 227.831054688 -23.333984375 196.498046875 -14.0009765625 c 0
 166.498046875 -4.66796875 142.331054688 7.4990234375 123.998046875 22.4990234375 c 0
 105.665039062 37.4990234375 90.33203125 55.166015625 77.9990234375 75.4990234375 c 0
 65.666015625 95.83203125 56.9990234375 116.33203125 51.9990234375 136.999023438 c 0
 46.9990234375 157.666015625 44.4990234375 179.333007812 44.4990234375 202 c 0xe4
 44.4990234375 224.666992188 50.4990234375 249.166992188 62.4990234375 275.5 c 0
 74.4990234375 301.833007812 92.166015625 326.333007812 115.499023438 349 c 0
 131.499023438 365 148.833007812 377.666992188 167.499023438 387 c 1
 140.833007812 402.333007812 119.499023438 420.666015625 103.499023438 441.999023438 c 0
 82.166015625 469.999023438 71.4990234375 498.666015625 71.4990234375 527.999023438 c 0
 71.4990234375 536.666015625 72.166015625 545.666015625 73.4990234375 554.999023438 c 0
 74.83203125 564.33203125 77.6650390625 575.33203125 81.998046875 587.999023438 c 0
 86.3310546875 600.666015625 91.8310546875 612.83203125 98.498046875 624.499023438 c 0
 105.165039062 636.166015625 114.33203125 647.833007812 125.999023438 659.5 c 0
 137.666015625 671.166992188 150.833007812 681.000976562 165.500976562 689.000976562 c 0
 182.166992188 697.66796875 202.500976562 704.66796875 226.500976562 710.000976562 c 0
 250.500976562 715.333984375 276.833007812 718.000976562 305.500976562 718.000976562 c 0
 334.166992188 718.000976562 360.500976562 715.333984375 384.500976562 710.000976562 c 0
 408.500976562 704.66796875 428.833007812 698.000976562 445.500976562 690.000976562 c 0
 462.166992188 681.333984375 476.333984375 671.166992188 488.000976562 659.5 c 0
 499.668945312 647.833007812 508.834960938 636.166015625 515.501953125 624.499023438 c 0
 522.168945312 612.83203125 527.501953125 600.499023438 531.501953125 587.499023438 c 0
 535.501953125 574.499023438 538.168945312 563.166015625 539.501953125 553.499023438 c 0
 540.834960938 543.83203125 541.501953125 534.33203125 541.501953125 524.999023438 c 0
 541.501953125 515.666015625 540.334960938 506.833007812 538.001953125 498.5 c 0
 535.668945312 490.166992188 532.836914062 482.666015625 529.502929688 475.999023438 c 0
 526.169921875 469.33203125 521.501953125 462.5 515.501953125 455.5 c 0
 509.501953125 448.5 504.002929688 442.666992188 499.002929688 438 c 0
 494.002929688 433.333007812 487.669921875 428 480.002929688 422 c 0
 472.336914062 416 466.168945312 411.666992188 461.501953125 409 c 0
 456.834960938 406.333007812 450.834960938 402.333007812 443.501953125 397 c 1
 462.168945312 389 478.501953125 380 492.501953125 370 c 0
 511.834960938 356.666992188 527.334960938 343.166992188 539.001953125 329.5 c 0
 550.668945312 315.833007812 560.168945312 301.5 567.501953125 286.5 c 0
 574.834960938 271.5 579.668945312 258 582.000976562 246 c 0
EndSplineSet
Validated: 524289
EndChar

StartChar: nine
Encoding: 57 57 25
Width: 630
GlyphClass: 2
Flags: W
HStem: -22.9951 21G<174.667 183.667> 223.002 113.005<226.64 408.074> 630.006 108.993<243.431 390.932>
VStem: 50 122.002<391.618 557.824> 466.002 113.998<379.658 542.364>
LayerCount: 2
Fore
SplineSet
192 555.004882812 m 0
 178.66796875 532.337890625 172.001953125 509.006835938 172.001953125 485.006835938 c 0
 172.001953125 385.673828125 219 336.006835938 313 336.006835938 c 0
 343 336.006835938 372.001953125 342.006835938 400.001953125 354.006835938 c 0
 428.001953125 366.006835938 450.001953125 381.33984375 466.001953125 400.006835938 c 1
 466.001953125 409.006835938 l 2
 466.001953125 427.006835938 465.001953125 450.673828125 463.001953125 480.006835938 c 0
 460.3359375 508.006835938 450.66796875 535.33984375 434.000976562 562.006835938 c 0
 425.333984375 575.33984375 415.500976562 587.172851562 404.500976562 597.505859375 c 0
 393.500976562 607.838867188 380.16796875 615.838867188 364.500976562 621.505859375 c 0
 348.833984375 627.172851562 332.66796875 630.005859375 316 630.005859375 c 2
 313 630.005859375 l 2
 289 630.005859375 266.16796875 623.172851562 244.5 609.505859375 c 0
 222.833007812 595.838867188 205.333007812 577.671875 192 555.004882812 c 0
192 -22 m 0
 188.66796875 -22 185.333984375 -22.328125 182.000976562 -22.9951171875 c 0
 167.333984375 -22.9951171875 154.333984375 -19.9951171875 143.000976562 -13.9951171875 c 0
 127.66796875 -6.662109375 119.000976562 5.0048828125 117.000976562 21.0048828125 c 0
 117.000976562 22.337890625 116.66796875 23.337890625 116.000976562 24.0048828125 c 0
 116.000976562 34.671875 121.16796875 45.171875 131.500976562 55.5048828125 c 0
 141.833984375 65.837890625 153.333984375 73.0048828125 166.000976562 77.0048828125 c 0
 174.000976562 79.0048828125 187.16796875 81.671875 205.500976562 85.0048828125 c 0
 223.833984375 88.337890625 240.000976562 91.6708984375 254.000976562 95.00390625 c 0
 268.000976562 98.3369140625 283.333984375 102.669921875 300.000976562 108.002929688 c 0
 335.333984375 120.002929688 366.333984375 139.002929688 393.000976562 165.002929688 c 0
 410.333984375 183.002929688 426.000976562 203.669921875 440.000976562 227.002929688 c 0
 445.333984375 236.3359375 450.000976562 245.668945312 454.000976562 255.001953125 c 1
 439.333984375 247.001953125 423.333984375 240.668945312 406.000976562 236.001953125 c 0
 373.333984375 228.001953125 333.000976562 223.668945312 285.000976562 223.001953125 c 0
 251.000976562 223.001953125 218.66796875 230.001953125 188.000976562 244.001953125 c 0
 158.66796875 258.001953125 134.16796875 276.668945312 114.500976562 300.001953125 c 0
 94.833984375 323.334960938 79.1669921875 350.16796875 67.5 380.500976562 c 0
 55.8330078125 410.833984375 50 441.666992188 50 473 c 0
 50 511 56.5 546.5 69.5 579.5 c 0
 82.5 612.5 100.166992188 640.666992188 122.5 664 c 0
 144.833007812 687.333007812 172.666015625 705.666015625 206 718.999023438 c 0
 240 732.33203125 276 738.999023438 314 738.999023438 c 0
 408 738.999023438 476.33203125 706.999023438 519 642.999023438 c 0
 559 582.999023438 579.33203125 498.33203125 580 388.999023438 c 0
 580 331.666015625 573.33203125 280.999023438 560 236.999023438 c 0
 546.666015625 192.999023438 528.833007812 155.83203125 506.5 125.499023438 c 0
 484.16796875 95.166015625 456.66796875 69.3330078125 424 48 c 0
 390 26.6669921875 353.833007812 10.5 315.5 -0.5 c 0
 277.16796875 -11.5 236 -18.6669921875 192 -22 c 0
EndSplineSet
Validated: 524289
EndChar

StartChar: colon
Encoding: 58 58 26
Width: 630
GlyphClass: 2
Flags: W
HStem: 27.001 180<257.159 371.079> 295.001 179<267.565 367.156>
VStem: 238 155<49.1377 186.712 322.001 455.644>
LayerCount: 2
Fore
SplineSet
390 404 m 0
 390 384.666992188 387 364.668945312 381 344.001953125 c 0
 377 327.334960938 368 314.66796875 354 306.000976562 c 0
 342 298.66796875 330 295.000976562 318 295.000976562 c 2
 315 295.000976562 l 2
 295 296.333984375 279 300.333984375 267 307.000976562 c 0
 250.333007812 317.000976562 241 332.000976562 239 352.000976562 c 1
 237.666992188 364.000976562 237 376.000976562 237 388.000976562 c 0
 237 400.66796875 237.333007812 412.334960938 238 423.001953125 c 0
 238.666992188 433.668945312 242 443.001953125 248 451.001953125 c 0
 254 458.334960938 261.333007812 463.66796875 270 467.000976562 c 0
 278.666992188 470.333984375 286.333984375 472.333984375 293.000976562 473.000976562 c 0
 299.66796875 473.66796875 304.66796875 474.000976562 308.000976562 474.000976562 c 0
 319.333984375 474.000976562 329.000976562 473.333984375 337.000976562 472.000976562 c 0
 344.333984375 470.66796875 351.666992188 468.000976562 359 464.000976562 c 0
 367 460.000976562 374 454.000976562 380 446.000976562 c 0
 385.333007812 438.000976562 388.333007812 428.66796875 389 418.000976562 c 0
 389.666992188 413.333984375 390 408.666992188 390 404 c 0
393 124.001953125 m 0
 393 108.001953125 390.66796875 91.6689453125 386.000976562 75.001953125 c 0
 382.000976562 58.3349609375 371.66796875 46.001953125 355.000976562 38.001953125 c 0
 341.000976562 31.3349609375 327.66796875 27.66796875 315.000976562 27.0009765625 c 0
 298.333984375 27.0009765625 282.000976562 32.0009765625 266.000976562 42.0009765625 c 0
 250.000976562 52.0009765625 241.333984375 66.0009765625 240.000976562 84.0009765625 c 0
 239.333984375 102.66796875 238.666992188 113.334960938 238 116.001953125 c 0
 238 118.668945312 238.333007812 124.668945312 239 134.001953125 c 0
 239.666992188 143.334960938 240.333984375 150.66796875 241.000976562 156.000976562 c 0
 241.000976562 166.66796875 244.000976562 176.000976562 250.000976562 184.000976562 c 0
 256.000976562 192.000976562 264.000976562 197.333984375 274.000976562 200.000976562 c 0
 287.333984375 204.66796875 300.333984375 207.000976562 313.000976562 207.000976562 c 0
 325.000976562 207.000976562 335.66796875 205.66796875 345.000976562 203.000976562 c 0
 354.333984375 200.333984375 363.666992188 194.333984375 373 185.000976562 c 0
 382.333007812 176.333984375 388 165.333984375 390 152.000976562 c 0
 392 142.66796875 393 133.334960938 393 124.001953125 c 0
EndSplineSet
Validated: 524289
EndChar

StartChar: semicolon
Encoding: 59 59 27
Width: 630
GlyphClass: 2
Flags: W
HStem: 253 180.001<288.717 397.135>
VStem: 267.025 153<275.988 416.875>
LayerCount: 2
Fore
SplineSet
420.025390625 363 m 2
 420.025390625 343.666992188 417.024414062 323.333984375 411.024414062 302.000976562 c 0
 407.024414062 285.333984375 398.024414062 272.666992188 384.024414062 264 c 0
 372.024414062 256.666992188 360.024414062 253 348.024414062 253 c 0
 338.69140625 253 328.357421875 255 317.025390625 259 c 0
 305.692382812 263 295.359375 269 286.025390625 277 c 0
 276.025390625 286.333007812 270.359375 297.333007812 269.025390625 310 c 1
 267.693359375 322 267.025390625 334.333007812 267.025390625 347 c 0
 267.025390625 359.666992188 267.359375 371 268.025390625 381 c 0
 268.693359375 391.666992188 272.025390625 401 278.025390625 409 c 0
 284.025390625 417 291.359375 422.333007812 300.025390625 425 c 0
 314.693359375 429.666992188 328.693359375 432.333984375 342.025390625 433.000976562 c 0
 352.025390625 433.000976562 360.359375 432.000976562 367.025390625 430.000976562 c 0
 374.359375 428.66796875 382.025390625 426.000976562 390.025390625 422.000976562 c 0
 398.025390625 418.000976562 404.693359375 412.333984375 410.025390625 405.000976562 c 0
 415.359375 396.333984375 418.692382812 386.666992188 420.025390625 376 c 2
 420.025390625 363 l 2
400.024414062 79 m 2
 400.025390625 73 l 2
 398.025390625 51 376.357421875 -36.6669921875 335.025390625 -190 c 0
 330.357421875 -206.666992188 321.69140625 -219 309.024414062 -227 c 0
 297.69140625 -234.333007812 286.357421875 -238 275.025390625 -238 c 0
 257.692382812 -238 242.025390625 -233 228.025390625 -223 c 0
 215.9921875 -214.133789062 209.974609375 -202.258789062 209.974609375 -187.375976562 c 0
 209.974609375 -168.400390625 220.478515625 -113.73046875 230.025390625 -65.9990234375 c 0
 243.357421875 0.0009765625 254.025390625 49.333984375 262.025390625 82.0009765625 c 0
 264.692382812 93.333984375 268.359375 103.000976562 273.025390625 111.000976562 c 0
 278.359375 119.000976562 284.359375 124.000976562 291.025390625 126.000976562 c 0
 300.359375 129.333984375 309.359375 131.333984375 318.025390625 132.000976562 c 0
 321.359375 132.000976562 324.692382812 131.66796875 328.025390625 131.000976562 c 0
 342.025390625 131.000976562 356.357421875 127.66796875 371.025390625 121.000976562 c 0
 380.357421875 117.000976562 387.69140625 110.66796875 393.024414062 102.000976562 c 0
 397.69140625 95.333984375 400.024414062 87.6669921875 400.024414062 79 c 2
EndSplineSet
Validated: 524289
EndChar

StartChar: less
Encoding: 60 60 28
Width: 630
GlyphClass: 2
Flags: W
HStem: -25 21G<505.667 512.667>
LayerCount: 2
Fore
SplineSet
511 -25 m 0
 500.333007812 -25 488.333007812 -22.662109375 475 -17.9951171875 c 0
 457 -12.662109375 435.333007812 -0.662109375 410 18.0048828125 c 0
 384.666992188 36.671875 357.666992188 58.671875 329 84.0048828125 c 0
 300.333007812 109.337890625 272 135.004882812 244 161.004882812 c 0
 216 187.004882812 186.666992188 213.671875 156 241.004882812 c 0
 125.333007812 268.337890625 99.3330078125 290.004882812 78 306.004882812 c 0
 67.3330078125 314.004882812 60 325.004882812 56 339.004882812 c 0
 54.6669921875 345.004882812 54 351.671875 54 359.004882812 c 0
 54 365.671875 55 372.671875 57 380.004882812 c 0
 61 394.004882812 68.3330078125 404.004882812 79 410.004882812 c 0
 116.333007812 438.004882812 160.666015625 473.004882812 211.999023438 515.004882812 c 0
 262.666015625 557.671875 309.333007812 596.004882812 352 630.004882812 c 0
 394.666992188 664.671875 433 692.004882812 467 712.004882812 c 0
 480.333007812 720.671875 493.666015625 725.004882812 506.999023438 725.004882812 c 0
 516.999023438 725.004882812 525.666015625 722.671875 532.999023438 718.004882812 c 0
 547.666015625 709.337890625 558.333007812 697.670898438 565 683.00390625 c 0
 568.333007812 676.336914062 570 669.00390625 570 661.00390625 c 0
 570 653.00390625 567.666992188 644.670898438 563 636.00390625 c 0
 555 622.670898438 538.666992188 607.670898438 514 591.00390625 c 0
 477.333007812 565.00390625 424 524.670898438 354 470.00390625 c 0
 284 415.336914062 236.666992188 378.669921875 212 360.002929688 c 1
 234.666992188 342.002929688 260.666992188 319.669921875 290 293.002929688 c 0
 320 266.3359375 347 241.668945312 371 219.001953125 c 0
 395 196.334960938 421 173.001953125 449 149.001953125 c 0
 477 125.001953125 501.666992188 106.334960938 523 93.001953125 c 0
 545 79.001953125 560 65.6689453125 568 53.001953125 c 0
 573.333007812 45.001953125 576 36.6689453125 576 28.001953125 c 0
 576 21.3349609375 574.666992188 14.66796875 572 8.0009765625 c 0
 563.333007812 -10.666015625 546 -21.3330078125 520 -24 c 0
 517.333007812 -24.6669921875 514.333007812 -25 511 -25 c 0
EndSplineSet
Validated: 524289
EndChar

StartChar: equal
Encoding: 61 61 29
Width: 630
GlyphClass: 2
Flags: W
HStem: 235 107<127.504 504.621> 435 106<129.565 504.621>
LayerCount: 2
Fore
SplineSet
464 541 m 0
 483.333007812 541 497 536.333007812 505 527 c 0
 513 517.666992188 517.66796875 506 519 492 c 2
 519 491 l 2
 519 483.666992188 518.333007812 477 517 471 c 0
 515.66796875 465 513 459 509 453 c 0
 505 447 498.66796875 442 490 438 c 0
 484 435.333007812 477.66796875 434.333007812 471 435 c 2
 463 435 l 2
 439 435.666992188 414.333007812 436 389 436 c 2
 279 433 l 2
 232.333007812 431.666992188 198 431 176 431 c 0
 156.66796875 431 141 436 129 446 c 0
 117 456 111 468.666992188 111 484 c 2
 111 487 l 2
 111 501 115.66796875 513.666992188 125 525 c 0
 135 535.666992188 149.333007812 541 168 541 c 2
 172 541 l 2
 211.599609375 539.799804688 254.91796875 539.200195312 301.95703125 539.200195312 c 0
 333.318359375 539.200195312 366.33203125 539.466796875 401 540 c 0
 435.66796875 540.666992188 456.66796875 541 464 541 c 0
471 239 m 2
 463 239 l 2
 447.66796875 239.666992188 433.66796875 240 421 240 c 0
 393 240 350 239.333007812 292 238 c 0
 234 236 194.66796875 235 174 235 c 0
 153.333007812 235 137.666015625 240.333007812 127 251 c 0
 116.33203125 261.666992188 111 274.666992188 111 290 c 2
 111 292 l 2
 111 306 116.33203125 318 127 328 c 0
 137.666015625 337.333007812 152.666015625 342 172 342 c 2
 190 342 l 2
 204.228515625 341.77734375 219.94140625 341.666015625 237.13671875 341.666015625 c 0
 271.5 341.666015625 311.7890625 342.110351562 358 342.999023438 c 2
 464 344.999023438 l 2
 483.33203125 344.999023438 497 340.33203125 505 330.999023438 c 0
 513 321.666015625 517.666015625 309.999023438 519 295.999023438 c 2
 519 294.999023438 l 2
 519 287.666015625 518.33203125 281.333007812 517 276 c 0
 515.666015625 270 513 264 509 258 c 0
 505 251.333007812 498.666015625 246 490 242 c 0
 484.666015625 240 478.333007812 239 471 239 c 2
EndSplineSet
Validated: 524289
EndChar

StartChar: greater
Encoding: 62 62 30
Width: 630
GlyphClass: 2
Flags: W
HStem: -18 21G<118.334 129.667>
LayerCount: 2
Fore
SplineSet
123.000976562 -18 m 0
 113.66796875 -18 104.999023438 -15.6708984375 96.9990234375 -11.00390625 c 0
 89.666015625 -6.3369140625 82.9990234375 -1.00390625 76.9990234375 4.99609375 c 0
 71.666015625 10.99609375 67.666015625 17.6630859375 64.9990234375 24.99609375 c 0
 61.666015625 31.6630859375 59.666015625 38.6630859375 58.9990234375 45.99609375 c 0
 58.9990234375 53.99609375 61.666015625 62.3291015625 66.9990234375 70.99609375 c 0
 74.9990234375 84.3291015625 90.9990234375 99.3291015625 114.999023438 115.99609375 c 0
 151.666015625 141.99609375 205.333007812 182.329101562 276 236.99609375 c 0
 346 291.663085938 393.333007812 328.330078125 418 346.997070312 c 1
 395.333007812 364.997070312 369 387.330078125 339 413.997070312 c 0
 309 440.6640625 282.333007812 465.331054688 259 487.998046875 c 0
 235 510.665039062 209 533.998046875 181 557.998046875 c 0
 153 581.998046875 128.333007812 600.665039062 107 613.998046875 c 0
 85 627.998046875 70 641.331054688 62 653.998046875 c 0
 56.6669921875 661.998046875 54 670.665039062 54 679.998046875 c 0
 54 686.665039062 55.3330078125 692.998046875 58 698.998046875 c 0
 66.6669921875 717.665039062 84 728.33203125 110 730.999023438 c 0
 113.333007812 731.666015625 116.333007812 731.999023438 119 731.999023438 c 0
 129.666992188 731.999023438 141.666992188 729.666015625 155 724.999023438 c 0
 173 719.666015625 194.666992188 707.666015625 220 688.999023438 c 0
 245.333007812 670.33203125 272.333007812 648.33203125 301 622.999023438 c 0
 329.666992188 597.666015625 358 571.999023438 386 545.999023438 c 0
 414 519.999023438 443.333007812 493.33203125 474 465.999023438 c 0
 504.666992188 438.666015625 530.666992188 417.333007812 552 402 c 0
 562.666992188 394 570 382.666992188 574 368 c 0
 575.333007812 362 576 355.333007812 576 348 c 0
 576 341.333007812 575 334.333007812 573 327 c 0
 569 313 561.666992188 303 551 297 c 0
 513.666992188 269.666992188 469.333984375 234.666992188 418.000976562 192 c 0
 367.333984375 149.333007812 320.666992188 111 278 77 c 0
 235.333007812 43 197 15.6669921875 163 -5 c 0
 149.666992188 -13.6669921875 136.333984375 -18 123.000976562 -18 c 0
EndSplineSet
Validated: 524289
EndChar

StartChar: question
Encoding: 63 63 31
Width: 630
GlyphClass: 2
Flags: W
HStem: -26.002 178.001<234.893 351.37> 508.999 21G<155.334 170.001> 625 109.069<256.464 385.065>
VStem: 199.004 187<7.88811 117.73> 232.004 125.996<216.992 316.186> 410.039 124.961<484.855 602.144>
LayerCount: 2
Fore
SplineSet
302 201 m 0xec
 296 201 289.669921875 201.665039062 283.00390625 202.998046875 c 0
 249.669921875 211.665039062 232.669921875 232.33203125 232.00390625 264.999023438 c 0
 232.00390625 274.33203125 233.669921875 284.33203125 237.00390625 294.999023438 c 0
 241.669921875 314.33203125 248.669921875 332.33203125 258.00390625 348.999023438 c 0
 267.3359375 365.666015625 277.668945312 379.999023438 289.001953125 391.999023438 c 0
 299.668945312 403.999023438 311.001953125 414.999023438 323.001953125 424.999023438 c 0
 335.001953125 435.666015625 346.3359375 445.333007812 357.001953125 454 c 0
 367.668945312 462.666992188 377.001953125 471.666992188 385.001953125 481 c 0
 401.692382812 498.975585938 410.0390625 517.568359375 410.0390625 536.779296875 c 0
 410.0390625 554.662109375 408.403320312 586.278320312 385.000976562 605 c 0
 367.8203125 618.36328125 343.046875 625.045898438 310.6796875 625.045898438 c 0
 309.13671875 625.045898438 307.578125 625.030273438 306.000976562 625 c 0
 298.000976562 625 290.333984375 623.333007812 283.000976562 620 c 0
 275.000976562 616 267.66796875 611.666992188 261.000976562 607 c 0
 255.000976562 602.333007812 248.333984375 595.666015625 241.000976562 586.999023438 c 0
 233.66796875 578.33203125 228.000976562 570.999023438 224.000976562 564.999023438 c 0
 220.000976562 558.999023438 214.66796875 551.666015625 208.000976562 542.999023438 c 0
 202.000976562 533.666015625 195.333984375 525.999023438 188.000976562 519.999023438 c 0
 181.333984375 513.999023438 174.000976562 510.33203125 166.000976562 508.999023438 c 2
 157.000976562 508.999023438 l 2
 153.66796875 508.999023438 149.66796875 509.666015625 145.000976562 510.999023438 c 0
 140.333984375 512.33203125 133.66796875 514.665039062 125 517.998046875 c 0
 110.333007812 525.998046875 101 537.331054688 97 551.998046875 c 2
 95 563.998046875 l 2
 95 575.331054688 98.6669921875 588.998046875 106 604.998046875 c 0
 113.333007812 619.665039062 122.666015625 633.665039062 134 646.998046875 c 0
 145.33203125 660.998046875 159 674.665039062 175 687.998046875 c 0
 191 701.998046875 210 713.331054688 232 721.998046875 c 0
 252.426757812 730.045898438 274.00390625 734.069335938 296.731445312 734.069335938 c 0
 298.48046875 734.069335938 300.236328125 734.045898438 302 733.998046875 c 0
 377.33203125 733.998046875 435 716.331054688 475 680.998046875 c 0
 515 645.665039062 535 592.665039062 535 521.998046875 c 0
 535 502.665039062 531.666015625 484.998046875 525 468.998046875 c 0
 519 452.998046875 511 438.998046875 501 426.998046875 c 0
 491 415.665039062 480 405.33203125 468 395.999023438 c 2
 432 367.999023438 l 2
 420 358.666015625 409 349.333007812 399 340 c 0
 389 330.666992188 380.33203125 319 373 305 c 0
 365.666015625 291.666992188 360.666015625 276.666992188 358 260 c 0
 354.666015625 240 347.333007812 224.666992188 336 214 c 0
 327.333007812 205.333007812 316 201 302 201 c 0xec
285.00390625 -26.001953125 m 2
 261.669921875 -26.001953125 242.00390625 -18.0029296875 226.00390625 -2.0029296875 c 0
 208.00390625 16.6640625 199.00390625 38.3310546875 199.00390625 62.998046875 c 0
 199.00390625 87.6650390625 208.669921875 108.33203125 228.00390625 124.999023438 c 0
 248.669921875 142.999023438 272.336914062 151.999023438 299.00390625 151.999023438 c 0
 323.671875 151.999023438 344.00390625 143.999023438 360.00390625 127.999023438 c 0
 377.336914062 110.666015625 386.00390625 89.9990234375 386.00390625 65.9990234375 c 0xf4
 386.00390625 41.33203125 377.671875 20.6650390625 361.00390625 3.998046875 c 0
 344.336914062 -12.6689453125 322.669921875 -22.6689453125 296.00390625 -26.001953125 c 2
 285.00390625 -26.001953125 l 2
EndSplineSet
Validated: 524289
EndChar

StartChar: at
Encoding: 64 64 32
Width: 630
GlyphClass: 2
Flags: W
HStem: -141.995 110<248.143 401.131> 105.006 104.999<277.361 337.78> 369.005 101.001<289.14 389.622> 601.005 113.998<270.093 408.154>
VStem: 45 110.996<95.6791 430.758> 168 100.998<212.861 350.422> 350 104.799<217.922 335.271> 487.997 97.0029<192.56 481.464>
LayerCount: 2
Fore
SplineSet
388 148 m 1
 368.66796875 119.333007812 341 105.005859375 305 105.005859375 c 0
 261.66796875 105.005859375 228 118.672851562 204 146.005859375 c 0
 180 173.338867188 168 214.005859375 168 268.005859375 c 0
 168 294.672851562 171 319.005859375 177 341.005859375 c 0
 183 363.672851562 191 383.005859375 201 399.005859375 c 0
 211.66796875 415.005859375 224 428.672851562 238 440.005859375 c 0
 263.333007812 460.005859375 293 470.005859375 327 470.005859375 c 0
 347.66796875 470.005859375 368 466.338867188 388 459.005859375 c 0
 405.333007812 452.338867188 419 443.005859375 429 431.005859375 c 0
 437 421.672851562 441 412.672851562 441 404.005859375 c 0
 441 399.338867188 439.66796875 394.338867188 437 389.005859375 c 0
 434.333007812 383.672851562 430.666015625 378.672851562 426 374.005859375 c 0
 421.33203125 369.338867188 416 366.005859375 410 364.005859375 c 0
 401.33203125 361.338867188 394.665039062 360.005859375 389.998046875 360.005859375 c 0
 381.998046875 360.005859375 372.33203125 361.338867188 360.998046875 364.005859375 c 0
 357.665039062 364.672851562 352.665039062 366.005859375 345.998046875 368.005859375 c 0
 338.665039062 369.338867188 331.665039062 369.671875 324.998046875 369.004882812 c 0
 318.33203125 368.337890625 311.6640625 366.004882812 304.997070312 362.004882812 c 0
 298.330078125 358.004882812 292.330078125 352.671875 286.997070312 346.004882812 c 0
 281.6640625 339.337890625 277.33203125 330.337890625 273.998046875 319.004882812 c 0
 270.665039062 307.671875 268.998046875 294.671875 268.998046875 280.004882812 c 0
 268.998046875 272.004882812 269.665039062 264.337890625 270.998046875 257.004882812 c 0
 271.665039062 249.671875 273.33203125 242.004882812 276 234.004882812 c 0
 281.33203125 218.004882812 290 210.004882812 302 210.004882812 c 0
 309.33203125 210.004882812 316 211.337890625 322 214.004882812 c 0
 328 216.671875 332.666015625 221.338867188 336 228.005859375 c 0
 344 242.672851562 348.666015625 268.005859375 350 304.005859375 c 0
 350.666015625 320.005859375 361.666015625 332.338867188 383 341.005859375 c 0
 394.2578125 345.74609375 404.462890625 348.116210938 413.614257812 348.116210938 c 0
 414.758789062 348.116210938 415.887695312 348.079101562 417 348.004882812 c 0
 425 348.004882812 432 347.004882812 438 345.004882812 c 0
 451.33203125 339.671875 458.33203125 330.004882812 459 316.004882812 c 0
 459 314.671875 458.666015625 313.338867188 458 312.005859375 c 0
 455.865234375 293.340820312 454.798828125 277.021484375 454.798828125 263.048828125 c 0
 454.798828125 259.5546875 454.865234375 256.20703125 455 253.005859375 c 0
 455 234.338867188 456.666015625 219.005859375 460 207.005859375 c 0
 461.33203125 202.338867188 462.665039062 199.005859375 463.998046875 197.005859375 c 0
 465.998046875 193.672851562 468.665039062 192.005859375 471.998046875 192.005859375 c 0
 473.33203125 193.338867188 474.6640625 195.338867188 475.997070312 198.005859375 c 0
 479.330078125 206.005859375 481.997070312 216.338867188 483.997070312 229.005859375 c 0
 486.6640625 253.005859375 487.997070312 275.005859375 487.997070312 295.005859375 c 0
 487.997070312 328.338867188 486.330078125 359.338867188 482.997070312 388.005859375 c 0
 480.330078125 416.005859375 476.6640625 440.005859375 471.99609375 460.005859375 c 0
 467.329101562 480.005859375 461.662109375 497.672851562 454.99609375 513.005859375 c 0
 447.662109375 529.005859375 441.329101562 541.672851562 435.99609375 551.005859375 c 0
 429.99609375 560.338867188 422.6640625 568.338867188 413.99609375 575.005859375 c 0
 405.329101562 581.672851562 397.99609375 586.672851562 391.99609375 590.005859375 c 0
 385.99609375 593.338867188 378.99609375 595.671875 370.99609375 597.004882812 c 0
 362.99609375 599.004882812 356.6640625 600.004882812 351.99609375 600.004882812 c 0
 347.99609375 600.004882812 342.6640625 600.337890625 335.99609375 601.004882812 c 0
 311.99609375 601.004882812 289.329101562 593.337890625 267.99609375 578.004882812 c 0
 246.6640625 562.671875 227.6640625 540.671875 210.99609375 512.004882812 c 0
 194.329101562 483.337890625 180.99609375 447.670898438 170.99609375 405.00390625 c 0
 160.99609375 362.336914062 155.99609375 315.336914062 155.99609375 264.00390625 c 0
 155.99609375 219.336914062 159.329101562 179.336914062 165.99609375 144.00390625 c 0
 172.6640625 108.670898438 181.330078125 80.337890625 191.997070312 59.0048828125 c 0
 202.6640625 37.671875 214.997070312 20.0048828125 228.997070312 6.0048828125 c 0
 242.997070312 -7.9951171875 256.6640625 -17.9951171875 269.997070312 -23.9951171875 c 0
 283.330078125 -29.328125 297.997070312 -31.9951171875 313.997070312 -31.9951171875 c 0
 329.997070312 -31.9951171875 344.6640625 -30.328125 357.997070312 -26.9951171875 c 0
 371.330078125 -23.662109375 382.330078125 -19.9951171875 390.997070312 -15.9951171875 c 0
 399.6640625 -11.9951171875 407.6640625 -6.328125 414.997070312 1.0048828125 c 0
 422.997070312 8.337890625 429.330078125 15.337890625 433.997070312 22.0048828125 c 0
 438.6640625 28.671875 443.997070312 36.671875 449.997070312 46.0048828125 c 0
 452.6640625 51.337890625 454.997070312 55.337890625 456.997070312 58.0048828125 c 0
 458.997070312 60.671875 461.6640625 64.0048828125 464.997070312 68.0048828125 c 0
 467.6640625 72.0048828125 470.33203125 75.337890625 472.998046875 78.0048828125 c 0
 475.665039062 80.0048828125 478.998046875 82.0048828125 482.998046875 84.0048828125 c 0
 486.998046875 86.0048828125 491.665039062 87.0048828125 496.998046875 87.0048828125 c 0
 501.665039062 87.0048828125 506.665039062 86.0048828125 511.998046875 84.0048828125 c 0
 518.665039062 81.337890625 524.33203125 78.0048828125 529 74.0048828125 c 0
 533.666015625 70.0048828125 537.333007812 65.0048828125 540 59.0048828125 c 0
 542.66796875 53.671875 543.66796875 48.0048828125 543 42.0048828125 c 0
 543 30.671875 540 17.0048828125 534 1.0048828125 c 0
 530 -8.9951171875 526.333007812 -17.662109375 523 -24.9951171875 c 0
 519 -32.328125 513.66796875 -41.328125 507 -51.9951171875 c 0
 500.333007812 -62.662109375 493 -71.9951171875 485 -79.9951171875 c 0
 477 -87.9951171875 467.333007812 -95.9951171875 456 -103.995117188 c 0
 444 -111.995117188 431 -118.995117188 417 -124.995117188 c 0
 403 -130.328125 387 -134.328125 369 -136.995117188 c 0
 351 -140.328125 332.333007812 -141.995117188 313 -141.995117188 c 2
 307 -141.995117188 l 2
 269.66796875 -141.995117188 235 -132.662109375 203 -113.995117188 c 0
 170.333007812 -95.328125 142.333007812 -69.9951171875 119 -37.9951171875 c 0
 95.6669921875 -5.9951171875 77.6669921875 33.0048828125 65 79.0048828125 c 0
 51.6669921875 125.004882812 45 174.671875 45 228.004882812 c 0
 45 287.337890625 49.6669921875 342.670898438 59 394.00390625 c 0
 68.3330078125 445.336914062 81.3330078125 490.669921875 98 530.002929688 c 0
 115.333007812 568.669921875 135.666015625 602.002929688 159 630.002929688 c 0
 182.33203125 658.002929688 208.33203125 679.002929688 237 693.002929688 c 0
 265.666015625 707.002929688 296.333007812 714.3359375 329 715.002929688 c 0
 352.333007812 715.002929688 373.333007812 713.002929688 392 709.002929688 c 0
 411.333007812 705.669921875 430 699.669921875 448 691.002929688 c 0
 466 681.669921875 482 669.669921875 496 655.002929688 c 0
 510 640.3359375 522.66796875 622.002929688 534 600.002929688 c 0
 545.333007812 578.002929688 554.666015625 552.3359375 562 523.002929688 c 0
 577.33203125 461.669921875 585 385.002929688 585 293.002929688 c 0
 585 242.3359375 577.666015625 197.668945312 563 159.001953125 c 0
 555 138.334960938 543.33203125 121.66796875 528 109.000976562 c 0
 512.666015625 96.333984375 494.333007812 89.6669921875 473 89 c 0
 442.333007812 89 419 99.3330078125 403 120 c 0
 397 128 392 137.333007812 388 148 c 1
EndSplineSet
Validated: 524289
EndChar

StartChar: A
Encoding: 65 65 33
Width: 630
GlyphClass: 2
Flags: W
HStem: -5.99902 21G<74.999 82.999 542.668 548.668> 251.001 91.998<252.713 408.998>
LayerCount: 2
Fore
SplineSet
249.998046875 331.999023438 m 1
 307.998046875 337.999023438 360.998046875 341.666015625 408.998046875 342.999023438 c 1
 358.998046875 568.999023438 l 1
 330.331054688 520.33203125 293.998046875 441.33203125 249.998046875 331.999023438 c 1
138.002929688 49 m 0
 130.669921875 25 119.33203125 8.9990234375 103.999023438 0.9990234375 c 0
 95.33203125 -3.66796875 86.9990234375 -5.9990234375 78.9990234375 -5.9990234375 c 0
 70.9990234375 -5.9990234375 63.33203125 -4.333984375 55.9990234375 -1.0009765625 c 0
 43.9990234375 4.33203125 35.33203125 12.6650390625 29.9990234375 23.998046875 c 0
 25.9990234375 32.6650390625 23.9990234375 42.1650390625 23.9990234375 52.498046875 c 0
 23.9990234375 62.8310546875 25.33203125 73.998046875 27.9990234375 85.998046875 c 0
 31.9990234375 106.665039062 50.33203125 154.665039062 82.9990234375 229.998046875 c 1
 73.666015625 238.665039062 68.3330078125 249.33203125 67 261.999023438 c 2
 67 263.999023438 l 2
 67 275.33203125 72.6669921875 285.999023438 84 295.999023438 c 0
 93.3330078125 304.666015625 105 311.333007812 119 316 c 1
 205 498.666992188 271.666992188 621 319 683 c 0
 330.333007812 697 341 707.333007812 351 714 c 0
 361 721.333007812 372.333007812 725 385 725 c 2
 393 725 l 2
 406.333007812 725 418.333007812 722 429 716 c 0
 443.666992188 708 452.666992188 695.333007812 456 678 c 0
 470.666992188 598 494.666992188 485 528 339 c 0
 546.666992188 257.666992188 561.333984375 197.833984375 572.000976562 159.500976562 c 0
 582.66796875 121.16796875 590.66796875 97.66796875 596.000976562 89.0009765625 c 0
 602.66796875 77.0009765625 606.000976562 65.66796875 606.000976562 55.0009765625 c 2
 606.000976562 49 l 2
 604.66796875 37 600.500976562 26.66796875 593.500976562 18.0009765625 c 0
 586.500976562 9.333984375 578.333984375 2.9990234375 569.000976562 -1.0009765625 c 0
 557.66796875 -4.333984375 550.334960938 -5.9990234375 547.001953125 -5.9990234375 c 0
 538.334960938 -5.9990234375 529.66796875 -3.66796875 521.000976562 0.9990234375 c 0
 505.66796875 8.9990234375 493.334960938 24.66796875 484.001953125 48.0009765625 c 0
 474.668945312 69.333984375 457.001953125 137.000976562 431.001953125 251.000976562 c 1
 347.668945312 247.66796875 272.3359375 241.000976562 205.002929688 231.000976562 c 1
 182.3359375 178.333984375 160.002929688 117.666992188 138.002929688 49 c 0
EndSplineSet
Validated: 524289
EndChar

StartChar: B
Encoding: 66 66 34
Width: 630
GlyphClass: 2
Flags: W
HStem: -23 21G<128.333 135.666> -9.65137 90.1543<220.37 260.727> 285.003 96.4492<172 363.74> 605.004 103.999<176.532 368>
VStem: 48 121<82.114 137.826 144.104 285.003 383.002 598.597> 423 119<431.807 557.715> 460 124<157.259 228.28>
LayerCount: 2
Fore
SplineSet
51 41 m 2xba
 52.3330078125 60.3330078125 53.3330078125 93.3369140625 54 140.00390625 c 0
 54 227.336914062 52 324.00390625 48 430.00390625 c 1
 46.6669921875 473.336914062 46 502.50390625 46 517.50390625 c 0
 46 532.50390625 46.5 552.50390625 47.5 577.50390625 c 0
 48.5 602.50390625 49 620.00390625 49 630.00390625 c 0
 49.6669921875 650.670898438 55.833984375 666.50390625 67.5009765625 677.50390625 c 0
 79.16796875 688.50390625 93.66796875 694.00390625 111.000976562 694.00390625 c 2
 114.000976562 694.00390625 l 1
 132 699.336914062 154.333984375 703.336914062 181 706.00390625 c 0
 191.66796875 707.336914062 203.16796875 708.169921875 215.5 708.502929688 c 0
 227.833984375 708.8359375 237.333984375 709.002929688 244 709.002929688 c 2
 266 709.002929688 l 1
 278 709.002929688 l 2
 329.333984375 709.002929688 375.333984375 700.669921875 416 684.002929688 c 0
 456 666.669921875 486.66796875 642.002929688 508 610.002929688 c 0
 530.66796875 576.669921875 542 537.669921875 542 493.002929688 c 0xbc
 542 455.002929688 532.66796875 422.002929688 514 394.002929688 c 0
 499.333984375 372.669921875 481 355.669921875 459 343.002929688 c 1
 473.66796875 336.3359375 488 328.668945312 502 320.001953125 c 0
 524.66796875 305.334960938 544 288.66796875 560 270.000976562 c 0
 576 251.333984375 584 233.000976562 584 215.000976562 c 2
 584 214.000976562 l 2
 584 188.000976562 577.16796875 162.333984375 563.5 137.000976562 c 0
 549.833984375 111.66796875 530.166992188 88.5009765625 504.5 67.5009765625 c 0
 478.83203125 46.5009765625 444.666015625 28.66796875 401.999023438 14.0009765625 c 0
 359.33203125 -0.666015625 312.33203125 -9.9990234375 260.999023438 -13.9990234375 c 1
 255.202148438 -11.1005859375 249.341796875 -9.6513671875 243.41796875 -9.6513671875 c 0x7a
 235.71875 -9.6513671875 227.912109375 -12.1005859375 219.999023438 -16.9990234375 c 1
 185.33203125 -19.666015625 163.999023438 -21.3330078125 155.999023438 -22 c 0
 147.33203125 -22.6669921875 139.33203125 -23 131.999023438 -23 c 0
 124.666015625 -23 117.333007812 -22.3330078125 110 -21 c 2
 108 -21 l 2
 91.3330078125 -21 77.3330078125 -15.3330078125 66 -4 c 0
 56 6 51 19 51 35 c 2
 51 41 l 2xba
169 403.00390625 m 2
 169 383.001953125 l 1
 198.33203125 382.334960938 225 381.834960938 249 381.501953125 c 0
 251.3984375 381.46875 253.76171875 381.452148438 256.08984375 381.452148438 c 0
 277.0625 381.452148438 295.19921875 382.801757812 310.5 385.501953125 c 0
 327.5 388.501953125 341.666992188 392.334960938 353 397.001953125 c 0
 364.33203125 401.668945312 374.33203125 407.3359375 383 414.002929688 c 0
 391.666992188 420.669921875 398.333984375 427.336914062 403 434.00390625 c 0
 407.66796875 440.670898438 411.5 448.170898438 414.5 456.50390625 c 0
 417.5 464.836914062 419.66796875 472.336914062 421 479.00390625 c 0
 422.333984375 485.670898438 423 492.670898438 423 500.00390625 c 0
 423 514.670898438 419.66796875 528.170898438 413 540.50390625 c 0
 406.333984375 552.836914062 397.833984375 563.00390625 387.5 571.00390625 c 0
 377.16796875 579.00390625 365.334960938 585.670898438 352.001953125 591.00390625 c 0
 329.502929688 600.37890625 305.831054688 605.06640625 280.98828125 605.06640625 c 0
 279.331054688 605.06640625 277.66796875 605.045898438 276.001953125 605.00390625 c 0
 241.334960938 605.00390625 207.66796875 602.00390625 175 596.00390625 c 1
 174.333984375 584.00390625 173.666992188 566.00390625 173 542.00390625 c 0
 170.33203125 493.336914062 169 447.00390625 169 403.00390625 c 2
445.5 165.501953125 m 0
 455.166992188 177.834960938 460 189.004882812 460 199.004882812 c 0
 460 204.337890625 456.666992188 210.670898438 450 218.00390625 c 0
 443.33203125 225.336914062 432.666015625 233.169921875 417.999023438 241.502929688 c 0
 403.33203125 249.8359375 382.33203125 258.002929688 354.999023438 266.002929688 c 0
 327.666015625 274.002929688 296.33203125 280.3359375 261 285.002929688 c 1
 172 285.002929688 l 1
 174.666992188 193.002929688 177 124.669921875 179 80.0029296875 c 1
 186.33203125 80.0029296875 197 80.169921875 211 80.5029296875 c 0x7a
 225 80.8359375 237 81.3359375 247 82.0029296875 c 0
 279 83.3359375 309 88.3359375 337 97.0029296875 c 0
 365 105.669921875 387.666992188 116.169921875 405 128.502929688 c 0
 422.33203125 140.8359375 435.83203125 153.168945312 445.5 165.501953125 c 0
EndSplineSet
Validated: 524289
EndChar

StartChar: C
Encoding: 67 67 35
Width: 630
GlyphClass: 2
Flags: W
HStem: -30.998 114.001<227.458 407.021> 494.006 246.994<481.917 572.658> 608.006 104.995<343.245 469.259>
VStem: 33 123.999<159.984 372.712> 469 127<517.69 584.105>
LayerCount: 2
Fore
SplineSet
587.998046875 692 m 0xd8
 593.998046875 666 597 638.338867188 597 609.005859375 c 0
 597 589.005859375 596.666992188 577.005859375 596 573.005859375 c 0
 596 556.338867188 590 539.505859375 578 522.505859375 c 0
 566 505.505859375 553 496.338867188 539 495.005859375 c 0
 536.333984375 494.338867188 533.333984375 494.005859375 530 494.005859375 c 0xd8
 518 494.005859375 506 498.005859375 494 506.005859375 c 0
 477.333984375 516.672851562 469 531.005859375 469 549.005859375 c 0
 469 553.672851562 469.666992188 565.672851562 471 585.005859375 c 1
 461.666992188 591.005859375 455.666992188 594.672851562 453 596.005859375 c 0
 450.333984375 597.338867188 446.666015625 599.338867188 441.999023438 602.005859375 c 0
 433.33203125 606.005859375 424.666015625 608.005859375 415.998046875 608.005859375 c 0
 395.998046875 608.005859375 373.998046875 602.005859375 349.998046875 590.005859375 c 0
 325.998046875 578.005859375 302.666015625 560.505859375 279.998046875 537.505859375 c 0
 257.331054688 514.505859375 236.831054688 488.172851562 218.498046875 458.505859375 c 0
 200.166015625 428.838867188 185.33203125 395.171875 173.999023438 357.504882812 c 0
 162.666015625 319.837890625 156.999023438 282.004882812 156.999023438 244.004882812 c 0
 156.999023438 217.337890625 162.999023438 191.670898438 174.999023438 167.00390625 c 0
 186.999023438 142.336914062 203.499023438 122.169921875 224.499023438 106.502929688 c 0
 245.499023438 90.8359375 267.33203125 83.0029296875 289.999023438 83.0029296875 c 0
 312.666015625 83.0029296875 334.666015625 85.169921875 355.999023438 89.5029296875 c 0
 377.33203125 93.8359375 396.499023438 99.3359375 413.499023438 106.002929688 c 0
 430.499023438 112.669921875 445.166015625 119.502929688 457.499023438 126.502929688 c 0
 469.83203125 133.502929688 480.666015625 140.669921875 489.998046875 148.002929688 c 0
 499.331054688 154.669921875 507.6640625 159.669921875 514.998046875 163.002929688 c 0
 522.998046875 167.002929688 531.830078125 169.002929688 541.498046875 169.002929688 c 0
 551.1640625 169.002929688 560.331054688 166.002929688 568.998046875 160.002929688 c 0
 583.666015625 148.669921875 590.998046875 135.169921875 590.998046875 119.502929688 c 0
 590.998046875 103.8359375 582.666015625 86.6689453125 565.998046875 68.001953125 c 0
 507.998046875 2.001953125 415.331054688 -30.998046875 287.998046875 -30.998046875 c 2
 277.998046875 -30.998046875 l 2
 246.666015625 -30.998046875 217.33203125 -26.3310546875 189.999023438 -16.998046875 c 0
 162.666015625 -7.6650390625 139.666015625 5.16796875 120.999023438 21.5009765625 c 0
 102.33203125 37.833984375 86.33203125 56.333984375 73 77.0009765625 c 0
 59.666015625 97.66796875 49.666015625 119.500976562 43 142.500976562 c 0
 36.33203125 165.500976562 33 188.66796875 33 212.000976562 c 0
 33 260.000976562 38.166015625 306.500976562 48.5 351.500976562 c 0
 58.83203125 396.500976562 72.666015625 437.000976562 89.998046875 473.000976562 c 0
 107.33203125 509.000976562 127.6640625 542.333984375 150.998046875 573.000976562 c 0
 176.330078125 603.66796875 202.998046875 629.000976562 230.998046875 649.000976562 c 0
 258.998046875 669.000976562 288.330078125 684.66796875 318.998046875 696.000976562 c 0
 349.6640625 707.333984375 379.331054688 713.000976562 407.998046875 713.000976562 c 0xb8
 431.331054688 713.000976562 452.998046875 711.000976562 472.998046875 707.000976562 c 1
 476.998046875 714.333984375 481.998046875 720.666992188 487.998046875 726 c 0
 497.331054688 734 507.6640625 738.666992188 518.998046875 740 c 0
 523.6640625 740.666992188 526.331054688 741 526.998046875 741 c 2
 527.998046875 741 l 2
 538.666015625 741 549.666015625 737.666992188 560.998046875 731 c 0
 574.998046875 721.666992188 583.998046875 708.666992188 587.998046875 692 c 0xd8
EndSplineSet
Validated: 524289
EndChar

StartChar: D
Encoding: 68 68 36
Width: 630
GlyphClass: 2
Flags: W
HStem: -31 109.998<183.756 408.349> 694 20G<86.6353 106.635>
VStem: 30.7031 121.477<109.381 166.726 194.179 614.997> 38.3027 125<100.593 519.491> 479.305 119.992<169.195 388.265>
LayerCount: 2
Fore
SplineSet
36.298828125 62 m 2xe8
 37.6318359375 84.6669921875 38.302734375 120.331054688 38.302734375 168.998046875 c 0xd8
 38.302734375 256.998046875 36.302734375 361.331054688 32.302734375 481.998046875 c 1
 31.6357421875 517.998046875 31.1357421875 541.831054688 30.802734375 553.498046875 c 0
 30.736328125 555.830078125 30.703125 558.401367188 30.703125 561.212890625 c 0
 30.703125 572.467773438 31.236328125 587.5625 32.302734375 606.499023438 c 0
 33.6357421875 630.166015625 34.302734375 644.666015625 34.302734375 649.999023438 c 1
 34.9697265625 670.666015625 40.9697265625 686.333007812 52.302734375 697 c 0
 63.6357421875 708.333007812 77.96875 714 95.3017578125 714 c 0
 117.96875 714 147.96875 710.666992188 185.301757812 704 c 0
 208.634765625 700 232.467773438 694.5 256.80078125 687.5 c 0
 281.133789062 680.5 307.466796875 670.666992188 335.799804688 658 c 0
 364.1328125 645.333007812 390.965820312 630.833007812 416.298828125 614.5 c 0
 441.631835938 598.166992188 465.96484375 577.333984375 489.297851562 552.000976562 c 0
 511.297851562 527.333984375 530.46484375 500.166992188 546.797851562 470.5 c 0
 563.130859375 440.833007812 575.963867188 405.833007812 585.296875 365.5 c 0
 594.629882812 325.166992188 599.296875 281.666992188 599.296875 235 c 0
 599.296875 211.666992188 595.963867188 187.666992188 589.296875 163 c 0
 582.629882812 138.333007812 572.629882812 114.666015625 559.296875 91.9990234375 c 0
 545.963867188 69.33203125 530.130859375 48.83203125 511.797851562 30.4990234375 c 0
 493.46484375 12.166015625 470.631835938 -2.6669921875 443.298828125 -14 c 0
 415.298828125 -25.3330078125 385.631835938 -31 354.298828125 -31 c 2
 344.298828125 -31 l 2
 311.631835938 -31 278.631835938 -29.5 245.298828125 -26.5 c 0
 211.965820312 -23.5 185.298828125 -20 165.298828125 -16 c 0
 145.298828125 -12 128.798828125 -8.3330078125 115.798828125 -5 c 0
 102.798828125 -1.6669921875 94.9658203125 0 92.298828125 0 c 0
 75.6318359375 0 61.6318359375 5.6669921875 50.298828125 17 c 0
 40.923828125 26.375 36.236328125 38.09375 36.236328125 52.1552734375 c 0
 36.236328125 53.0927734375 36.2568359375 54.041015625 36.298828125 55 c 2
 36.298828125 62 l 2xe8
247.802734375 85.9970703125 m 0
 278.135742188 81.330078125 313.3046875 78.998046875 353.3046875 78.998046875 c 0
 370.637695312 78.998046875 387.137695312 84.6650390625 402.8046875 95.998046875 c 0
 418.471679688 107.331054688 431.8046875 122.1640625 442.8046875 140.497070312 c 0
 453.8046875 158.830078125 462.637695312 179.330078125 469.3046875 201.997070312 c 0
 475.971679688 224.6640625 479.3046875 246.6640625 479.3046875 267.997070312 c 0
 479.3046875 388.6640625 425.971679688 480.997070312 319.3046875 544.997070312 c 0
 281.3046875 567.6640625 225.971679688 590.997070312 153.3046875 614.997070312 c 1
 152.5546875 584.499023438 152.1796875 553.485351562 152.1796875 521.955078125 c 0xe8
 152.1796875 469.401367188 153.221679688 415.416015625 155.3046875 359.997070312 c 0
 156.637695312 331.330078125 157.970703125 289.497070312 159.303710938 234.497070312 c 0
 160.63671875 179.497070312 161.969726562 137.330078125 163.302734375 107.997070312 c 1
 189.302734375 97.9970703125 217.469726562 90.6640625 247.802734375 85.9970703125 c 0
EndSplineSet
Validated: 524289
EndChar

StartChar: E
Encoding: 69 69 37
Width: 630
GlyphClass: 2
Flags: W
HStem: -20 112.001<170.549 514.752> -6 115<254.729 572.326> 301.002 108.999<165.799 439.434> 319.002 106<246.647 558.904> 590 107.999<170.994 574.505>
VStem: 42.7979 124.001<95.1892 301.002 410.001 581.907>
LayerCount: 2
Fore
SplineSet
109.796875 704 m 2x8c
 126.463867188 704 140.469726562 698.666015625 151.802734375 687.999023438 c 1
 209.135742188 694.666015625 282.799804688 697.999023438 372.799804688 697.999023438 c 0
 396.1328125 697.999023438 417.802734375 697.666015625 437.802734375 696.999023438 c 0
 479.135742188 695.666015625 511.46875 693.666015625 534.801757812 690.999023438 c 0
 553.46875 688.999023438 566.96875 683.83203125 575.301757812 675.499023438 c 0
 583.634765625 667.166015625 588.134765625 655.999023438 588.801757812 641.999023438 c 0
 588.801757812 634.666015625 587.96875 627.833007812 586.301757812 621.5 c 0
 584.634765625 615.166992188 582.134765625 609.333984375 578.801757812 604.000976562 c 0
 574.801757812 597.333984375 568.46875 592.333984375 559.801757812 589.000976562 c 0
 553.801757812 586.333984375 547.46875 585.000976562 540.801757812 585.000976562 c 0
 538.134765625 585.000976562 535.467773438 585.333984375 532.80078125 586.000976562 c 0
 494.470703125 588.778320312 454.521484375 590.166992188 412.952148438 590.166992188 c 0
 404.6328125 590.166992188 396.249023438 590.111328125 387.80078125 590 c 2
 333.80078125 590 l 2
 270.467773438 588.666992188 215.467773438 585.333984375 168.80078125 580.000976562 c 1
 166.133789062 522.000976562 164.80078125 465.333984375 164.80078125 410.000976562 c 1xac
 216.133789062 410.66796875 285.466796875 413.334960938 372.799804688 418.001953125 c 0
 458.799804688 422.668945312 507.131835938 425.001953125 517.798828125 425.001953125 c 0
 537.131835938 425.001953125 550.965820312 420.334960938 559.298828125 411.001953125 c 0
 567.631835938 401.668945312 571.798828125 390.001953125 571.798828125 376.001953125 c 0
 571.798828125 360.001953125 568.465820312 347.334960938 561.798828125 338.001953125 c 0
 552.465820312 326.001953125 537.798828125 319.668945312 517.798828125 319.001953125 c 0x1c
 505.798828125 319.001953125 454.131835938 316.334960938 362.798828125 311.001953125 c 0
 269.465820312 305.001953125 203.798828125 301.668945312 165.798828125 301.001953125 c 1
 166.465820312 284.334960938 166.798828125 268.16796875 166.798828125 252.500976562 c 2
 166.798828125 203.000976562 l 2
 167.465820312 158.333984375 168.798828125 127.333984375 170.798828125 110.000976562 c 0
 171.465820312 104.000976562 172.1328125 99.0009765625 172.799804688 95.0009765625 c 0
 186.1328125 93.0009765625 205.965820312 92.0009765625 232.298828125 92.0009765625 c 0xac
 258.631835938 92.0009765625 291.798828125 92.66796875 331.798828125 94.0009765625 c 0
 425.131835938 97.333984375 483.798828125 101.666992188 507.798828125 107 c 0
 517.798828125 108.333007812 526.965820312 109 535.298828125 109 c 0
 543.631835938 109 550.96484375 107.333007812 557.297851562 104 c 0
 563.630859375 100.666992188 568.797851562 97.1669921875 572.797851562 93.5 c 0
 576.797851562 89.8330078125 579.96484375 85.3330078125 582.297851562 80 c 0
 584.630859375 74.6669921875 586.297851562 70 587.297851562 66 c 0
 588.297851562 62 588.801757812 57.6669921875 588.801757812 53 c 0
 588.801757812 37 583.46484375 23 572.797851562 11 c 0
 562.797851562 -0.3330078125 548.797851562 -6.3330078125 530.797851562 -7 c 1
 525.46484375 1.6669921875 520.131835938 2 514.798828125 -6 c 1
 511.798828125 -6 l 2x4c
 496.465820312 -6 467.465820312 -7.3330078125 424.798828125 -10 c 0
 380.798828125 -12.6669921875 335.965820312 -15 290.298828125 -17 c 0
 244.631835938 -19 210.131835938 -20 186.798828125 -20 c 0
 164.131835938 -20 145.46484375 -19.3330078125 130.797851562 -18 c 0
 112.130859375 -16.6669921875 94.130859375 -8 76.7978515625 8 c 0
 59.46484375 24 49.46484375 43 46.7978515625 65 c 0
 44.7978515625 81 43.46484375 109 42.7978515625 149 c 0
 42.7978515625 185.666992188 43.130859375 222.5 43.7978515625 259.5 c 0
 44.46484375 296.5 44.7978515625 327.833007812 44.7978515625 353.5 c 0
 44.7978515625 379.166992188 44.130859375 415 42.7978515625 461 c 0
 42.130859375 499.666992188 41.630859375 525.5 41.2978515625 538.5 c 0
 41.2314453125 541.098632812 41.1982421875 543.916992188 41.1982421875 546.955078125 c 0
 41.1982421875 559.115234375 41.7314453125 574.796875 42.7978515625 594 c 0
 44.130859375 618 44.7978515625 633 44.7978515625 639 c 2
 44.7978515625 640 l 2
 45.46484375 660.666992188 51.46484375 676.5 62.7978515625 687.5 c 0
 74.130859375 698.5 88.4638671875 704 105.796875 704 c 2
 109.796875 704 l 2x8c
EndSplineSet
Validated: 524289
EndChar

StartChar: F
Encoding: 70 70 38
Width: 630
GlyphClass: 2
Flags: W
HStem: -22.002 21G<105.333 113.666> 313.498 106.502<165.999 522.152> 597 109.099<172.966 574.043> 695 20G<110.667 119.667>
VStem: 43 121.749<39.4946 142.728 166.745 310.581 416 589> 47 127.999<-3.56057 304.932>
LayerCount: 2
Fore
SplineSet
111 715 m 0xd8
 128.333007812 715 142.333007812 709.33203125 153 697.999023438 c 1
 230.397460938 703.3984375 305.905273438 706.098632812 379.522460938 706.098632812 c 0
 387.705078125 706.098632812 395.864257812 706.065429688 404 705.999023438 c 0
 457.333007812 705.999023438 501 704.666015625 535 701.999023438 c 0
 553.666992188 700.666015625 567.166992188 695.666015625 575.5 686.999023438 c 0
 583.833007812 678.33203125 588.333007812 666.999023438 589 652.999023438 c 2
 589 651.999023438 l 2
 589 636.666015625 584.166992188 623.333007812 574.5 612 c 0
 564.833007812 600.666992188 550.333007812 595 531 595 c 2
 529 595 l 2
 501.500976562 596.5 472.688476562 597.25 442.565429688 597.25 c 0
 432.522460938 597.25 422.333984375 597.166992188 412 597 c 0
 334.666992188 597 253.666992188 594.333007812 169 589 c 1
 168.333007812 579 167.666015625 563.666992188 166.999023438 543 c 0
 165.499023438 513.500976562 164.749023438 485.501953125 164.749023438 459.002929688 c 0xe8
 164.749023438 450.16796875 164.83203125 441.500976562 164.999023438 433 c 2
 164.999023438 416 l 1
 192.33203125 418.666992188 221.999023438 420 253.999023438 420 c 0
 262.666015625 420 271.333007812 419.666992188 280 419 c 0
 328 418.333007812 371.333007812 416.666015625 410 413.999023438 c 0
 449.333007812 411.33203125 478.833007812 408.165039062 498.5 404.498046875 c 0
 518.166992188 400.831054688 531.833984375 395.1640625 539.500976562 387.497070312 c 0
 547.16796875 379.830078125 551.66796875 369.330078125 553.000976562 355.997070312 c 0
 553.000976562 341.997070312 549.66796875 329.6640625 543.000976562 318.997070312 c 0
 538.333984375 312.330078125 531.666992188 307.330078125 523 303.997070312 c 0
 517 301.997070312 510.333007812 300.997070312 503 300.997070312 c 2
 496 300.997070312 l 2
 475.333007812 304.330078125 445.333007812 307.330078125 406 309.997070312 c 0
 368.662109375 312.368164062 330.270507812 313.553710938 290.825195312 313.553710938 c 0
 285.899414062 313.553710938 280.958007812 313.53515625 276 313.498046875 c 0
 231.333007812 313.165039062 194.666015625 311.665039062 165.999023438 308.998046875 c 1
 169.33203125 222.331054688 172.33203125 130.998046875 174.999023438 34.998046875 c 0
 172.999023438 16.998046875 164.33203125 2.998046875 148.999023438 -7.001953125 c 0
 135.666015625 -16.3349609375 121.33203125 -21.3349609375 105.999023438 -22.001953125 c 0
 104.666015625 -22.001953125 103.666992188 -21.6689453125 103 -21.001953125 c 0
 86.3330078125 -21.001953125 72.3330078125 -15.3349609375 61 -4.001953125 c 0
 51.625 5.373046875 46.9375 17.3837890625 46.9375 32.0322265625 c 0
 46.9375 33.0087890625 46.9580078125 33.998046875 47 34.998046875 c 2
 47 40.998046875 l 2xe4
 48.3330078125 61.6650390625 49 96.33203125 49 144.999023438 c 0
 49 236.999023438 47 338.999023438 43 450.999023438 c 0
 41.6669921875 494.33203125 41 523.499023438 41 538.499023438 c 0
 41 553.499023438 41.5 573.499023438 42.5 598.499023438 c 0
 43.5 623.499023438 44.3330078125 640.666015625 45 649.999023438 c 0
 45.6669921875 670.666015625 51.6669921875 686.333007812 63 697 c 0
 74.3330078125 708.333007812 88.666015625 714 105.999023438 714 c 0
 108.666015625 714.666992188 110.333007812 715 111 715 c 0xd8
EndSplineSet
Validated: 524289
EndChar

StartChar: G
Encoding: 71 71 39
Width: 630
GlyphClass: 2
Flags: W
HStem: -30.9951 113.997<225.073 349.129> 619.005 104.999<342.592 480.141>
VStem: 31.002 123.998<160.189 376.151>
LayerCount: 2
Fore
SplineSet
358.99609375 -16 m 0
 332.329101562 -26 305.66796875 -30.9951171875 279.000976562 -30.9951171875 c 0
 246.333984375 -30.9951171875 216.000976562 -26.328125 188.000976562 -16.9951171875 c 0
 160.66796875 -7.662109375 137.8359375 5.1708984375 119.501953125 21.50390625 c 0
 101.169921875 37.8369140625 85.169921875 56.3369140625 71.501953125 77.00390625 c 0
 57.8359375 97.6708984375 47.66796875 119.50390625 41.001953125 142.50390625 c 0
 34.333984375 165.50390625 31.001953125 188.670898438 31.001953125 212.00390625 c 0
 31.001953125 260.670898438 36.16796875 308.00390625 46.501953125 354.00390625 c 0
 56.833984375 400.00390625 70.66796875 441.336914062 88 478.00390625 c 0
 105.333984375 514.670898438 125.666015625 548.670898438 149 580.00390625 c 0
 174.33203125 610.670898438 201.165039062 636.50390625 229.498046875 657.50390625 c 0
 257.83203125 678.50390625 286.998046875 694.670898438 316.998046875 706.00390625 c 0
 347.665039062 718.00390625 377.998046875 724.00390625 407.998046875 724.00390625 c 0
 437.998046875 724.00390625 471.665039062 717.336914062 508.998046875 704.00390625 c 0
 544.998046875 690.670898438 568.665039062 678.337890625 579.998046875 667.004882812 c 0
 591.998046875 655.004882812 598.33203125 640.671875 598.998046875 624.004882812 c 0
 598.998046875 616.004882812 597.33203125 607.337890625 593.998046875 598.004882812 c 0
 589.998046875 586.004882812 581.33203125 577.337890625 567.998046875 572.004882812 c 0
 561.33203125 569.337890625 554.6640625 568.004882812 547.997070312 568.004882812 c 0
 540.6640625 568.004882812 534.33203125 569.004882812 528.998046875 571.004882812 c 0
 523.665039062 573.004882812 513.665039062 578.337890625 498.998046875 587.004882812 c 0
 484.33203125 595.671875 469.33203125 603.171875 453.998046875 609.504882812 c 0
 438.665039062 615.837890625 425.33203125 619.004882812 414 619.004882812 c 0
 394 619.004882812 372 612.837890625 348 600.504882812 c 0
 324 588.171875 300.83203125 570.171875 278.5 546.504882812 c 0
 256.166015625 522.837890625 235.666015625 495.670898438 217 465.00390625 c 0
 198.33203125 434.336914062 183.33203125 399.669921875 172 361.002929688 c 0
 160.666015625 322.3359375 155 283.668945312 155 245.001953125 c 0
 155 218.334960938 161 192.501953125 173 167.501953125 c 0
 185 142.501953125 201.5 122.168945312 222.5 106.501953125 c 0
 243.5 90.8349609375 265.666015625 83.001953125 289 83.001953125 c 0
 304.33203125 83.001953125 320 87.501953125 336 96.501953125 c 0
 352 105.501953125 367 117.334960938 381 132.001953125 c 0
 395 146.668945312 408.33203125 163.3359375 421 182.002929688 c 0
 440.33203125 210.669921875 455.665039062 240.002929688 466.998046875 270.002929688 c 1
 428.33203125 268.002929688 389.33203125 264.502929688 349.998046875 259.502929688 c 0
 310.665039062 254.502929688 283.33203125 248.3359375 268 241.002929688 c 0
 260 237.002929688 252 235.002929688 244 235.002929688 c 0
 236 235.002929688 228 237.3359375 220 242.002929688 c 0
 205.33203125 250.002929688 196.665039062 261.3359375 193.998046875 276.002929688 c 0
 193.33203125 279.3359375 192.998046875 282.668945312 192.998046875 286.001953125 c 0
 192.998046875 300.001953125 198.665039062 312.668945312 209.998046875 324.001953125 c 0
 217.998046875 332.001953125 228.998046875 339.001953125 242.998046875 345.001953125 c 0
 264.998046875 355.001953125 310.33203125 362.334960938 378.998046875 367.001953125 c 0
 428.33203125 370.334960938 469.6640625 372.001953125 502.997070312 372.001953125 c 2
 535.997070312 372.001953125 l 2
 555.330078125 370.668945312 569.330078125 366.668945312 577.997070312 360.001953125 c 0
 589.330078125 351.334960938 594.997070312 337.66796875 594.997070312 319.000976562 c 0
 594.997070312 299.000976562 587.6640625 284.66796875 572.997070312 276.000976562 c 0
 572.997070312 274.000976562 572.330078125 270.000976562 570.997070312 264.000976562 c 0
 570.330078125 260.66796875 569.6640625 255.000976562 568.99609375 247.000976562 c 0
 565.6640625 218.333984375 552.330078125 181.666992188 528.997070312 137 c 0
 517.6640625 116.333007812 503.6640625 96 486.997070312 76 c 0
 469.6640625 56 450.6640625 38.1669921875 429.997070312 22.5 c 0
 409.330078125 6.8330078125 385.6640625 -6 358.99609375 -16 c 0
EndSplineSet
Validated: 524289
EndChar

StartChar: H
Encoding: 72 72 40
Width: 630
GlyphClass: 2
Flags: W
HStem: -21.999 21G<110.334 118.667 502.335 511.001> 312.001 86.0049<182.998 389.945> 694.003 20G<113.332 132.998 505.667 525.334>
VStem: 58.499 122.499<-3.04591 184.934 189.06 312.001 398.006 696.499> 443.001 128<-5.04489 337.626> 450.999 124.335<44.0761 341.001 420.471 696.468>
LayerCount: 2
Fore
SplineSet
51.9990234375 33 m 2xf8
 51.9990234375 41.0048828125 l 2
 53.33203125 59.0048828125 53.9990234375 103.671875 53.9990234375 175.004882812 c 0
 53.9990234375 215.671875 54.83203125 265.171875 56.4990234375 323.504882812 c 0
 58.166015625 381.837890625 58.9990234375 416.837890625 58.9990234375 428.504882812 c 2
 58.9990234375 463.504882812 l 2
 58.9990234375 475.171875 58.83203125 494.671875 58.4990234375 522.004882812 c 0
 58.166015625 549.337890625 57.9990234375 567.504882812 57.9990234375 576.504882812 c 0
 57.9990234375 585.504882812 58.166015625 594.671875 58.4990234375 604.004882812 c 0
 58.83203125 613.337890625 58.9990234375 619.004882812 58.9990234375 621.004882812 c 0
 58.9990234375 623.004882812 59.166015625 625.671875 59.4990234375 629.004882812 c 0
 59.83203125 632.337890625 59.9990234375 635.504882812 59.9990234375 638.504882812 c 2
 59.9990234375 646.504882812 l 1
 59.9990234375 650.004882812 l 2
 60.666015625 670.671875 66.9990234375 686.3359375 78.9990234375 697.002929688 c 0
 90.33203125 708.3359375 104.665039062 714.002929688 121.998046875 714.002929688 c 2
 124.998046875 714.002929688 l 2
 140.998046875 714.002929688 154.665039062 709.3359375 165.998046875 700.002929688 c 0
 179.331054688 689.3359375 186.331054688 673.005859375 186.998046875 651.005859375 c 0
 186.998046875 643.672851562 185.998046875 629.005859375 183.998046875 607.005859375 c 0
 181.998046875 585.005859375 180.998046875 565.172851562 180.998046875 547.505859375 c 0
 180.998046875 529.838867188 181.331054688 505.005859375 181.998046875 473.005859375 c 0
 182.665039062 441.005859375 182.998046875 416.005859375 182.998046875 398.005859375 c 1
 240.998046875 399.338867188 311.665039062 405.338867188 394.998046875 416.005859375 c 0
 419.665039062 419.338867188 438.333007812 421.671875 450.999023438 423.004882812 c 0
 450.999023438 425.671875 450.833007812 430.171875 450.499023438 436.504882812 c 0
 450.166015625 442.837890625 449.833007812 457.670898438 449.500976562 481.00390625 c 0
 449.166992188 504.336914062 449.000976562 522.50390625 449.000976562 535.50390625 c 0
 449.000976562 548.50390625 449.499023438 569.00390625 450.499023438 597.00390625 c 0
 451.499023438 625.00390625 452.333007812 642.00390625 453.000976562 648.00390625 c 0
 453.666992188 669.336914062 459.666992188 685.669921875 471.000976562 697.002929688 c 0
 483.000976562 708.3359375 497.333007812 714.002929688 514.000976562 714.002929688 c 2
 517.000976562 714.002929688 l 2
 533.666992188 714.002929688 547.666992188 709.3359375 559.000976562 700.002929688 c 0
 571.666992188 689.3359375 578.000976562 673.668945312 578.000976562 653.001953125 c 0
 578.000976562 640.334960938 577.666992188 615.001953125 577.000976562 577.001953125 c 0
 576.333007812 530.334960938 575.833007812 488.501953125 575.500976562 451.501953125 c 0
 575.388671875 439.180664062 575.333984375 427.709960938 575.333984375 417.088867188 c 0xf4
 575.333984375 395.815429688 575.555664062 377.954101562 576.000976562 363.501953125 c 0
 576.668945312 341.834960938 577.000976562 321.66796875 577.000976562 303.000976562 c 0
 577.000976562 266.333984375 576.000976562 219.500976562 574.000976562 162.500976562 c 0
 572.000976562 105.500976562 571.000976562 65.66796875 571.000976562 43.0009765625 c 2
 571.000976562 35.0009765625 l 2
 569.000976562 17.0009765625 561.000976562 3.0009765625 547.000976562 -6.9990234375 c 0
 533.668945312 -16.33203125 519.000976562 -21.33203125 503.000976562 -21.9990234375 c 0
 501.668945312 -21.9990234375 500.668945312 -21.666015625 500.000976562 -20.9990234375 c 0
 483.333984375 -20.9990234375 469.666992188 -15.33203125 459.000976562 -3.9990234375 c 0
 448.333007812 6.0009765625 443.000976562 19.333984375 443.000976562 36.0009765625 c 2
 443.000976562 43.0009765625 l 1
 449.666992188 127.000976562 453.000976562 220.333984375 453.000976562 323.000976562 c 2
 453.000976562 341.000976562 l 1
 431.000976562 339.000976562 388.500976562 333.833984375 325.500976562 325.500976562 c 0
 262.500976562 317.16796875 214.000976562 312.66796875 180.000976562 312.000976562 c 1
 180.000976562 303.000976562 l 2
 178.000976562 269.66796875 177.000976562 231.000976562 177.000976562 187.000976562 c 0
 177.000976562 143.000976562 178.000976562 92.66796875 180.000976562 36.0009765625 c 0
 178.000976562 17.333984375 169.333007812 3.0009765625 154.000976562 -6.9990234375 c 0
 140.666992188 -16.33203125 126.333984375 -21.33203125 111.000976562 -21.9990234375 c 0
 109.66796875 -21.9990234375 108.66796875 -21.666015625 108.000976562 -20.9990234375 c 0
 91.333984375 -20.9990234375 77.333984375 -15.33203125 66.0009765625 -3.9990234375 c 0
 56.66796875 5.333984375 51.9990234375 17.6669921875 51.9990234375 33 c 2xf8
EndSplineSet
Validated: 524289
EndChar

StartChar: I
Encoding: 73 73 41
Width: 630
GlyphClass: 2
Flags: W
HStem: -11.001 102.999<57.5044 236.312 380 440.94 444.959 531 534 576.104> -7.00098 98.999<380 531 534 576.104> 599.998 110.001<65.0194 250.002>
VStem: 244.002 135.998<92.998 192.728> 251.002 134.999<94.249 597.999>
LayerCount: 2
Fore
SplineSet
194 -12 m 1x70
 150 -13.3330078125 119.66796875 -14.001953125 103.000976562 -14.001953125 c 0
 83.0009765625 -14.001953125 67.66796875 -9.6689453125 57.0009765625 -1.001953125 c 0
 45.66796875 7.6650390625 40.0009765625 18.998046875 40.0009765625 32.998046875 c 2
 40.0009765625 35.998046875 l 2
 40.0009765625 49.3310546875 44.833984375 60.998046875 54.5009765625 70.998046875 c 0
 64.16796875 80.998046875 79.3349609375 86.3310546875 100.001953125 86.998046875 c 0
 126.668945312 88.3310546875 174.668945312 89.6640625 244.001953125 90.9970703125 c 1x70
 248.668945312 160.330078125 251.001953125 232.330078125 251.001953125 306.997070312 c 0
 251.001953125 346.330078125 250.334960938 386.330078125 249.001953125 426.997070312 c 0
 247.668945312 455.6640625 247.001953125 486.6640625 247.001953125 519.997070312 c 2
 247.001953125 540.997070312 l 2
 247.001953125 547.6640625 247.501953125 557.831054688 248.501953125 571.498046875 c 0
 249.501953125 585.165039062 250.001953125 594.665039062 250.001953125 599.998046875 c 1
 211.334960938 600.665039062 182.66796875 600.998046875 164.000976562 600.998046875 c 0
 146.66796875 600.998046875 129.000976562 600.665039062 111.000976562 599.998046875 c 2
 109.000976562 599.998046875 l 2
 90.333984375 599.998046875 75.5009765625 604.665039062 64.5009765625 613.998046875 c 0
 53.5009765625 623.331054688 47.66796875 635.998046875 47.0009765625 651.998046875 c 2
 47.0009765625 653.998046875 l 2
 47.0009765625 667.998046875 52.16796875 680.331054688 62.5009765625 690.998046875 c 0
 72.833984375 701.665039062 88.333984375 707.33203125 109.000976562 707.999023438 c 0
 166.333984375 709.33203125 221.333984375 709.999023438 274.000976562 709.999023438 c 0
 378.66796875 709.999023438 464.333007812 706.999023438 531 700.999023438 c 0
 546.333007812 699.666015625 558.66796875 695.333007812 568.000976562 688 c 0
 580.66796875 678.666992188 587.334960938 665.666992188 588.001953125 649 c 2
 588.001953125 648 l 2
 588.001953125 633.333007812 583.668945312 619.666015625 575.001953125 606.999023438 c 0
 570.334960938 599.666015625 563.66796875 593.999023438 555.000976562 589.999023438 c 0
 549.66796875 587.33203125 543.66796875 585.999023438 537.000976562 585.999023438 c 0
 533.66796875 585.999023438 529.66796875 586.666015625 525.000976562 587.999023438 c 0
 506.333984375 590.666015625 460.333984375 593.999023438 387.000976562 597.999023438 c 1
 387.000976562 590.666015625 386.333984375 577.333007812 385.000976562 558 c 0
 384.333984375 539.333007812 384.000976562 524.833007812 384.000976562 514.5 c 2
 384.000976562 484 l 2
 384.000976562 444.666992188 384.333984375 412.166992188 385.000976562 386.5 c 0
 385.66796875 360.833007812 386.000976562 334.666015625 386.000976562 307.999023438 c 0x68
 386.000976562 281.33203125 385.16796875 243.665039062 383.500976562 194.998046875 c 0
 381.833984375 146.331054688 380.666992188 112.331054688 380 92.998046875 c 1
 408 92.998046875 431 92.6650390625 449 91.998046875 c 2
 531 91.998046875 l 1xb0
 531 97.3310546875 531.333007812 97.3310546875 532 91.998046875 c 1
 532 97.3310546875 532.33203125 97.3310546875 532.999023438 91.998046875 c 1
 532.999023438 97.3310546875 533.333007812 97.3310546875 534 91.998046875 c 1x70
 534 97.3310546875 534.333007812 97.3310546875 535 91.998046875 c 1
 554.333007812 91.998046875 568.166015625 87.498046875 576.499023438 78.498046875 c 0
 584.83203125 69.498046875 589.33203125 58.3310546875 589.999023438 44.998046875 c 2
 589.999023438 43.9990234375 l 2
 589.999023438 37.33203125 589.334960938 30.9990234375 588.001953125 24.9990234375 c 0
 586.668945312 18.9990234375 584.333007812 12.9990234375 581 6.9990234375 c 0
 576.333007812 -0.333984375 569.666015625 -5.333984375 560.999023438 -8.0009765625 c 0
 555.666015625 -10.0009765625 550.666015625 -11.0009765625 545.999023438 -11.0009765625 c 2
 532.999023438 -11.0009765625 l 2xb0
 514.999023438 -8.333984375 484.999023438 -7.0009765625 442.999023438 -7.0009765625 c 0
 398.999023438 -7.0009765625 359.33203125 -7.333984375 323.999023438 -8.0009765625 c 1
 305.942382812 -5.22265625 287.88671875 -3.833984375 269.830078125 -3.833984375 c 0
 194 -12 l 1x70
EndSplineSet
Validated: 524289
EndChar

StartChar: J
Encoding: 74 74 42
Width: 630
GlyphClass: 2
Flags: W
HStem: -35 125.998<209.068 311.458> 599.998 110.002<69.5029 312 432.998 540.842>
VStem: 37.502 114.498<150.857 256.964> 311.75 121.248<425.658 596.001> 315 125.998<103.937 595.189>
LayerCount: 2
Fore
SplineSet
437.998046875 217 m 0xe8
 426.666015625 101 403.001953125 26.3330078125 367.001953125 -7 c 0
 347.66796875 -25.6669921875 324.66796875 -35 298.001953125 -35 c 0
 271.333984375 -35 245.501953125 -30.6669921875 220.501953125 -22 c 0
 195.501953125 -13.3330078125 174.001953125 -2.3330078125 156.001953125 11 c 0
 138.66796875 25 122.834960938 40.1669921875 108.501953125 56.5 c 0
 94.169921875 72.8330078125 82.169921875 89 72.501953125 105 c 0
 62.8359375 121 55.16796875 135.666992188 49.501953125 149 c 0
 43.833984375 162.333007812 40.333984375 173 39.001953125 181 c 0
 37.001953125 188.333007812 36.501953125 196.5 37.501953125 205.5 c 0
 38.501953125 214.5 40.001953125 223 42.001953125 231 c 0
 44.66796875 240.333007812 50.001953125 248.666015625 58.001953125 255.999023438 c 0
 66.001953125 263.33203125 76.333984375 267.999023438 89.001953125 269.999023438 c 0
 93.001953125 270.666015625 97.001953125 270.999023438 101.001953125 270.999023438 c 0
 114.333984375 270.999023438 125.666992188 266.999023438 135 258.999023438 c 0
 146.333984375 248.33203125 152 234.665039062 152 217.998046875 c 0
 152 201.998046875 157.333984375 182.998046875 168 160.998046875 c 0
 174.666992188 148.331054688 182.666992188 136.998046875 192 126.998046875 c 0
 201.333984375 116.998046875 214 108.498046875 230 101.498046875 c 0
 246 94.498046875 264 90.998046875 284 90.998046875 c 0
 284.666992188 90.998046875 285.333984375 91.3310546875 286.001953125 91.998046875 c 0
 290.66796875 95.3310546875 295.001953125 102.998046875 299.001953125 114.998046875 c 0
 308.333984375 143.665039062 313.666992188 186.998046875 315 244.998046875 c 2
 315 246.998046875 l 1
 315 267.498046875 l 2xe8
 315 279.831054688 314.666992188 312.998046875 314 366.998046875 c 0
 312.5 426.99609375 311.75 485.682617188 311.75 543.055664062 c 0
 311.75 562.182617188 311.833984375 581.163085938 312 599.998046875 c 1
 274.333984375 600.998046875 239.083984375 601.498046875 206.25 601.498046875 c 0
 173.416992188 601.498046875 143 600.998046875 115 599.998046875 c 2
 113 599.998046875 l 2
 94.333984375 599.998046875 79.666015625 604.665039062 69 613.998046875 c 0
 58.33203125 623.331054688 52.666015625 635.998046875 51.998046875 651.998046875 c 0
 51.998046875 652.665039062 51.666015625 653.33203125 50.998046875 653.999023438 c 0
 50.998046875 667.999023438 56.33203125 680.33203125 66.998046875 690.999023438 c 0
 77.666015625 701.666015625 93.33203125 707.333007812 114 708 c 0
 171.999023438 709.333007812 226.999023438 710 278.999023438 710 c 0
 382.999023438 710 468.33203125 707 534.999023438 701 c 0
 550.33203125 699.666992188 562.666015625 695.333984375 571.998046875 688.000976562 c 0
 584.666015625 678.66796875 591.666015625 665.334960938 592.998046875 648.001953125 c 0
 592.998046875 633.334960938 588.666015625 619.66796875 579.998046875 607.000976562 c 0
 575.331054688 599.66796875 568.331054688 594.000976562 558.998046875 590.000976562 c 0
 553.666015625 587.333984375 547.666015625 586.000976562 540.998046875 586.000976562 c 0
 537.666015625 586.000976562 533.998046875 586.66796875 529.998046875 588.000976562 c 0
 509.331054688 591.333984375 476.998046875 594.000976562 432.998046875 596.000976562 c 1xf0
 432.998046875 579.333984375 435.331054688 521.000976562 439.998046875 421.000976562 c 0
 441.064453125 399.131835938 441.59765625 380.036132812 441.59765625 363.713867188 c 0
 441.59765625 359.63671875 441.564453125 355.732421875 441.498046875 352.000976562 c 0
 441.166015625 333.333984375 440.998046875 321.666992188 440.998046875 317 c 0
 440.998046875 275 439.998046875 241.666992188 437.998046875 217 c 0xe8
EndSplineSet
Validated: 524289
EndChar

StartChar: K
Encoding: 75 75 43
Width: 630
GlyphClass: 2
Flags: W
HStem: -22 21G<107.233 115.899 531.054 533.903> 694.065 20G<96.5693 105.036 495.566 500.233>
VStem: 50.9004 116.999<107.028 271.001 452.999 540.271 541.723 700.529>
LayerCount: 2
Fore
SplineSet
107.899414062 -22 m 0
 106.56640625 -22 105.234375 -21.666015625 103.901367188 -20.9990234375 c 0
 87.234375 -20.9990234375 73.5673828125 -16.666015625 62.900390625 -7.9990234375 c 0
 52.900390625 0.0009765625 47.900390625 10.66796875 47.900390625 24.0009765625 c 0
 47.900390625 26.66796875 48.2333984375 29.3349609375 48.900390625 32.001953125 c 0
 50.2333984375 53.3349609375 50.900390625 88.66796875 50.900390625 138.000976562 c 0
 50.900390625 233.333984375 48.900390625 338.666992188 44.900390625 454 c 0
 43.5673828125 496.666992188 42.900390625 525.666992188 42.900390625 541 c 0
 42.900390625 556.333007812 43.5673828125 578 44.900390625 606 c 0
 46.2333984375 634.666992188 46.900390625 652.666992188 46.900390625 660 c 1
 47.5673828125 677.333007812 53.5673828125 691 64.900390625 701 c 0
 75.4775390625 709.7109375 88.66796875 714.065429688 104.470703125 714.065429688 c 0
 105.600585938 714.065429688 106.743164062 714.043945312 107.899414062 713.999023438 c 2
 110.899414062 713.999023438 l 2
 126.899414062 713.999023438 140.899414062 710.33203125 152.899414062 702.999023438 c 0
 165.59765625 694.745117188 171.946289062 682.258789062 171.946289062 665.540039062 c 0
 171.946289062 651.19921875 171.309570312 618.120117188 169.8984375 567.999023438 c 0
 168.565429688 521.33203125 167.565429688 482.999023438 166.8984375 452.999023438 c 1
 191.565429688 472.999023438 226.8984375 501.666015625 272.8984375 538.999023438 c 0
 371.565429688 627.666015625 429.8984375 679.333007812 447.8984375 694 c 0
 459.231445312 702.666992188 470.231445312 708.666992188 480.8984375 712 c 0
 487.565429688 714 493.232421875 715 497.899414062 715 c 0
 502.56640625 715 506.899414062 714.666992188 510.899414062 714 c 0
 519.56640625 712 527.233398438 708 533.900390625 702 c 0
 543.233398438 694 547.900390625 685.333007812 547.900390625 676 c 0
 547.900390625 658 540.567382812 638.666992188 525.900390625 618 c 0
 515.900390625 605.333007812 479.900390625 569 417.900390625 509 c 1
 353.900390625 453 297.567382812 404.333007812 248.900390625 363 c 1
 274.233398438 339 314.56640625 303.333007812 369.899414062 256 c 0
 425.232421875 211.333007812 473.232421875 171 513.899414062 135 c 0
 536.56640625 113 553.233398438 95.6669921875 563.900390625 83 c 0
 575.233398438 67.6669921875 581.900390625 57 583.900390625 51 c 0
 586.567382812 42.3330078125 587.567382812 34 586.900390625 26 c 0
 586.900390625 20.6669921875 585.900390625 15.333984375 583.900390625 10.0009765625 c 0
 579.233398438 0.66796875 571.56640625 -6.6650390625 560.899414062 -11.998046875 c 0
 546.354492188 -18.05859375 536.493164062 -21.0888671875 531.313476562 -21.0888671875 c 0
 530.794921875 -21.0888671875 530.32421875 -21.05859375 529.899414062 -20.998046875 c 2
 528.899414062 -20.998046875 l 2
 510.899414062 -20.998046875 493.899414062 -12.6650390625 477.899414062 4.001953125 c 0
 471.232421875 12.001953125 445.899414062 35.001953125 401.899414062 73.001953125 c 0
 357.899414062 110.334960938 309.899414062 151.66796875 257.899414062 197.000976562 c 0
 220.56640625 226.333984375 190.56640625 251.000976562 167.899414062 271.000976562 c 1
 176.899414062 25.0009765625 l 2
 174.899414062 10.333984375 166.232421875 -1.3330078125 150.899414062 -10 c 0
 138.232421875 -18 123.899414062 -22 107.899414062 -22 c 0
EndSplineSet
Validated: 524289
EndChar

StartChar: L
Encoding: 76 76 44
Width: 630
GlyphClass: 2
Flags: W
HStem: -14.999 116.996<171.044 172.029 173.029 455.668>
VStem: 43.0312 127.997<95.9971 265.875> 72.3652 118.668<163.162 688.982>
LayerCount: 2
Fore
SplineSet
178.033203125 209 m 0xa0
 174.033203125 161 171.6953125 123.330078125 171.028320312 95.9970703125 c 1
 171.361328125 99.9970703125 171.6953125 101.997070312 172.029296875 101.997070312 c 0
 173.029296875 95.9970703125 l 1
 230.361328125 95.9970703125 297.361328125 99.330078125 374.029296875 105.997070312 c 0
 449.361328125 112.6640625 499.029296875 119.331054688 523.029296875 125.998046875 c 0
 526.763671875 127.064453125 530.498046875 127.59765625 534.231445312 127.59765625 c 0
 537.029296875 127.498046875 l 0
 541.697265625 127.165039062 546.364257812 125.998046875 551.03125 123.998046875 c 0
 559.697265625 120.665039062 567.03125 115.33203125 573.03125 107.999023438 c 0
 577.697265625 101.33203125 581.03125 94.33203125 583.03125 86.9990234375 c 0
 585.697265625 78.9990234375 587.03125 71.9990234375 587.03125 65.9990234375 c 0
 587.03125 50.666015625 583.03125 38.3330078125 575.03125 29 c 0
 567.03125 19.6669921875 553.364257812 13.333984375 534.03125 10.0009765625 c 0
 488.03125 1.333984375 414.864257812 -4.9990234375 314.53125 -8.9990234375 c 0
 214.197265625 -12.9990234375 142.365234375 -14.9990234375 99.03125 -14.9990234375 c 0
 82.365234375 -14.9990234375 68.365234375 -9.33203125 57.03125 2.0009765625 c 0
 47.65625 11.3759765625 42.96875 23.38671875 42.96875 38.03515625 c 0
 42.96875 39.01171875 42.990234375 40.0009765625 43.03125 41.0009765625 c 2
 43.03125 50.0009765625 l 2xc0
 43.03125 54.0009765625 46.865234375 90.333984375 54.53125 159.000976562 c 0
 62.19921875 227.66796875 67.69921875 293.66796875 71.03125 357.000976562 c 0
 71.919921875 369.88671875 72.365234375 384.697265625 72.365234375 401.432617188 c 0
 72.365234375 409.806640625 72.25390625 418.663085938 72.03125 428.000976562 c 0
 72.03125 452.66796875 71.36328125 523.66796875 70.03125 641.000976562 c 2
 70.03125 642.000976562 l 2
 70.697265625 662.66796875 76.865234375 678.500976562 88.53125 689.500976562 c 0
 100.19921875 700.500976562 114.365234375 706.000976562 131.033203125 706.000976562 c 2
 134.033203125 706.000976562 l 2
 150.033203125 706.000976562 164.365234375 701.333984375 177.033203125 692.000976562 c 0
 190.396484375 681.819335938 197.079101562 667.081054688 197.079101562 647.788085938 c 0
 197.079101562 647 197.068359375 618.723632812 196.033203125 569 c 0
 194.700195312 525.666992188 193.033203125 485 191.033203125 447 c 0
 189.033203125 405 187.365234375 363 186.033203125 321 c 0
 184.700195312 294.333007812 182.033203125 257 178.033203125 209 c 0xa0
EndSplineSet
Validated: 524289
EndChar

StartChar: M
Encoding: 77 77 45
Width: 630
GlyphClass: 2
Flags: W
HStem: -10.001 21G<69.3315 82.3315 298.002 329.002>
VStem: 24.998 108<16.5645 315.532>
LayerCount: 2
Fore
SplineSet
132.998046875 63.9990234375 m 2
 132.998046875 52.9990234375 l 2
 132.998046875 34.9990234375 127.666015625 19.9990234375 116.998046875 7.9990234375 c 0
 104.998046875 -4.0009765625 90.6650390625 -10.0009765625 73.998046875 -10.0009765625 c 2
 72.998046875 -10.0009765625 l 2
 65.6650390625 -10.0009765625 58.998046875 -8.66796875 52.998046875 -6.0009765625 c 0
 44.3310546875 -2.0009765625 37.3310546875 5.33203125 31.998046875 15.9990234375 c 0
 27.3310546875 27.9990234375 24.998046875 43.9990234375 24.998046875 63.9990234375 c 0
 24.998046875 72.666015625 25.998046875 86.9990234375 27.998046875 106.999023438 c 0
 29.998046875 126.33203125 32.3310546875 151.999023438 34.998046875 183.999023438 c 0
 38.3310546875 217.999023438 41.998046875 258.33203125 45.998046875 304.999023438 c 0
 49.998046875 352.33203125 52.998046875 389.665039062 54.998046875 416.998046875 c 0
 63.6650390625 512.998046875 71.33203125 579.331054688 77.9990234375 615.998046875 c 0
 82.666015625 639.331054688 87.666015625 655.6640625 92.9990234375 664.997070312 c 0
 100.999023438 678.997070312 113.33203125 689.330078125 129.999023438 695.997070312 c 0
 143.999023438 701.330078125 157.999023438 703.998046875 171.999023438 703.998046875 c 2
 177.999023438 703.998046875 l 2
 194.666015625 703.998046875 208.333984375 701.6640625 219 696.997070312 c 0
 233.666992188 690.997070312 243.666992188 680.997070312 249 666.997070312 c 0
 257.666992188 637.6640625 267 589.331054688 277 521.998046875 c 0
 287 454.665039062 297.666992188 377.665039062 309 290.998046875 c 0
 311.666992188 271.665039062 313.666992188 254.33203125 315 238.999023438 c 1
 319.666992188 286.999023438 324.333984375 331.666015625 329.001953125 372.999023438 c 0
 335.66796875 428.33203125 344.66796875 483.665039062 356.001953125 538.998046875 c 0
 367.333984375 594.331054688 377.001953125 636.997070312 385.001953125 666.997070312 c 0
 388.333984375 676.997070312 396.001953125 685.331054688 408.001953125 691.998046875 c 0
 418.66796875 697.998046875 430.001953125 701.665039062 442.001953125 702.998046875 c 0
 449.333984375 704.331054688 455.501953125 704.831054688 460.501953125 704.498046875 c 0
 465.501953125 704.165039062 469.66796875 703.998046875 473.001953125 703.998046875 c 2
 476.001953125 703.998046875 l 1
 491.501953125 703.998046875 l 2
 495.833984375 703.998046875 501.666992188 702.998046875 509 700.998046875 c 0
 516.333984375 699.665039062 522.5 697.665039062 527.5 694.998046875 c 0
 532.5 692.331054688 537.333984375 688.331054688 542 682.998046875 c 0
 546.666992188 676.998046875 549.666992188 669.998046875 551 661.998046875 c 0
 553.666992188 641.998046875 561.333984375 544.998046875 574.001953125 370.998046875 c 0
 586.66796875 197.665039062 595.66796875 99.6650390625 601.001953125 76.998046875 c 0
 603.66796875 63.6650390625 605.001953125 51.33203125 605.001953125 39.9990234375 c 0
 605.001953125 30.666015625 603.001953125 22.666015625 599.001953125 15.9990234375 c 0
 593.66796875 6.666015625 584.66796875 -0.0009765625 572.001953125 -4.0009765625 c 0
 564.66796875 -6.0009765625 557.001953125 -7.16796875 549.001953125 -7.5009765625 c 0
 541.001953125 -7.833984375 532.66796875 -6.0009765625 524.001953125 -2.0009765625 c 0
 508.66796875 4.666015625 497.334960938 18.3330078125 490.001953125 39 c 0
 476.669921875 79 464.669921875 234 454.001953125 504 c 1
 445.334960938 452.666992188 439.334960938 404 436.001953125 358 c 0
 429.334960938 282 420.334960938 210 409.001953125 142 c 0
 397.669921875 74 388.669921875 32.3330078125 382.001953125 17 c 0
 372.001953125 1 348.001953125 -7 310.001953125 -7 c 2
 305.001953125 -7 l 2
 291.001953125 -7 278.669921875 -5 268.001953125 -1 c 0
 255.334960938 3.6669921875 247.334960938 10.333984375 244.001953125 19.0009765625 c 0
 235.334960938 51.0009765625 221.001953125 124.000976562 201.001953125 238.000976562 c 0
 187.669921875 316.000976562 175.001953125 391.66796875 163.001953125 465.000976562 c 1
 161.669921875 451.66796875 160.001953125 427.66796875 158.001953125 393.000976562 c 2
 154.001953125 340.000976562 l 1
 148.001953125 253.000976562 l 2
 146.001953125 225.66796875 143.669921875 197.000976562 141.001953125 167.000976562 c 0
 139.001953125 144.333984375 136.669921875 120.666992188 134.001953125 96 c 0
 133.334960938 82 132.998046875 71.33203125 132.998046875 63.9990234375 c 2
EndSplineSet
Validated: 524289
EndChar

StartChar: N
Encoding: 78 78 46
Width: 630
GlyphClass: 2
Flags: W
HStem: -11.998 21G<85.1675 103.501 489.167 517.167>
VStem: 44.501 108<6.53685 180.455> 52.501 107<79.7041 486> 478.834 106.665<187.325 656.813>
LayerCount: 2
Fore
SplineSet
157.500976562 486 m 1xb0
 158.833984375 456 159.500976562 431.002929688 159.500976562 411.002929688 c 0xb0
 159.500976562 389.669921875 159.16796875 359.669921875 158.500976562 321.002929688 c 0
 157.833984375 283.669921875 156.833984375 237.669921875 155.500976562 183.002929688 c 0
 153.500976562 128.3359375 152.500976562 93.6689453125 152.500976562 79.001953125 c 2
 152.500976562 52.001953125 l 1
 152.500976562 44.001953125 l 2
 152.500976562 26.001953125 147.16796875 12.001953125 136.500976562 2.001953125 c 0
 125.16796875 -7.3310546875 111.500976562 -11.998046875 95.5009765625 -11.998046875 c 0
 74.833984375 -11.998046875 60.833984375 -5.998046875 53.5009765625 6.001953125 c 0
 47.5009765625 17.3349609375 44.5009765625 33.66796875 44.5009765625 55.0009765625 c 0xd0
 44.5009765625 68.333984375 45.5009765625 120.000976562 47.5009765625 210.000976562 c 0
 50.833984375 348.66796875 52.5009765625 444.000976562 52.5009765625 496.000976562 c 0
 52.5009765625 547.333984375 51.833984375 594.666992188 50.5009765625 638 c 2
 50.5009765625 647 l 2
 50.5009765625 657 52.16796875 666 55.5009765625 674 c 0
 60.833984375 683.333007812 68.1669921875 690 77.5 694 c 0
 90.8330078125 701.333007812 105.833007812 705 122.5 705 c 0
 125.833007812 705 129.5 704.666992188 133.5 704 c 0
 148.166992188 704 160.833984375 701.666992188 171.500976562 697 c 0
 186.16796875 691 196.500976562 681 202.500976562 667 c 0
 217.833984375 624.333007812 259.500976562 545.333007812 327.500976562 430 c 0
 385.500976562 332.666992188 435.500976562 251.333984375 477.500976562 186.000976562 c 1
 478.389648438 224.213867188 478.833984375 270.274414062 478.833984375 324.18359375 c 0
 478.833984375 351.158203125 478.72265625 380.096679688 478.5 411.000976562 c 0
 477.166992188 529.000976562 474.166992188 607.000976562 469.5 645.000976562 c 0
 468.833007812 649.000976562 468.5 653.000976562 468.5 657.000976562 c 0
 468.5 669.000976562 472.833007812 679.66796875 481.5 689.000976562 c 0
 492.166992188 699.66796875 506.166992188 705.000976562 523.5 705.000976562 c 0
 539.5 705.000976562 552.5 702.333984375 562.5 697.000976562 c 0
 567.833007812 694.333984375 571.5 690.333984375 573.5 685.000976562 c 0
 575.5 679.66796875 577.166992188 675.000976562 578.5 671.000976562 c 0
 579.833007812 666.333984375 581.166015625 659.333984375 582.499023438 650.000976562 c 0
 584.499023438 638.66796875 585.499023438 585.334960938 585.499023438 490.001953125 c 2
 585.499023438 448.001953125 l 2
 585.499023438 364.668945312 584.499023438 278.668945312 582.499023438 190.001953125 c 0
 581.166015625 132.668945312 578.833007812 90.001953125 575.5 62.001953125 c 0
 572.833007812 35.3349609375 569.833007812 18.3349609375 566.5 11.001953125 c 0
 557.166992188 -4.998046875 534.833984375 -13.3310546875 499.500976562 -13.998046875 c 2
 495.500976562 -13.998046875 l 2
 482.833984375 -13.998046875 471.500976562 -11.6650390625 461.500976562 -6.998046875 c 0
 449.500976562 -1.6650390625 441.500976562 5.001953125 437.500976562 13.001953125 c 0
 430.833984375 26.3349609375 413.500976562 55.66796875 385.500976562 101.000976562 c 0
 356.16796875 148.333984375 327.16796875 193.666992188 298.500976562 237 c 0
 268.500976562 286.333007812 236.833984375 341.333007812 203.500976562 402 c 0
 185.500976562 432 170.16796875 460 157.500976562 486 c 1xb0
EndSplineSet
Validated: 524289
EndChar

StartChar: O
Encoding: 79 79 47
Width: 630
GlyphClass: 2
Flags: W
HStem: -23.9951 108<220.601 373.091> 612.006 105.995<255.497 397.922>
VStem: 45.9688 121<154.456 486.5> 463.969 120.062<178.33 537.54>
LayerCount: 2
Fore
SplineSet
236.96875 94.005859375 m 0
 248.96875 87.3388671875 262.635742188 84.0048828125 277.96875 84.0048828125 c 0
 315.96875 84.0048828125 349.635742188 92.337890625 378.96875 109.004882812 c 0
 394.30078125 117.004882812 407.96875 128.171875 419.96875 142.504882812 c 0
 431.96875 156.837890625 441.30078125 173.337890625 447.96875 192.004882812 c 0
 450.635742188 199.337890625 453.46875 217.837890625 456.46875 247.504882812 c 0
 459.46875 277.171875 461.96875 312.671875 463.96875 354.004882812 c 0
 464.302734375 360.004882812 464.46875 366.004882812 464.46875 372.004882812 c 0
 464.46875 378.004882812 464.302734375 384.004882812 463.96875 390.004882812 c 0
 463.96875 418.671875 462.635742188 447.338867188 459.96875 476.005859375 c 0
 455.96875 515.338867188 441.635742188 548.005859375 416.96875 574.005859375 c 0
 392.96875 599.338867188 363.46875 612.005859375 328.46875 612.005859375 c 0
 293.46875 612.005859375 263.96875 600.672851562 239.96875 578.005859375 c 0
 215.30078125 554.005859375 197.30078125 520.672851562 185.96875 478.005859375 c 0
 173.30078125 430.005859375 166.96875 375.005859375 166.96875 313.005859375 c 0
 166.96875 274.338867188 168.96875 240.338867188 172.96875 211.005859375 c 0
 175.635742188 194.338867188 179.96875 177.838867188 185.96875 161.505859375 c 0
 191.96875 145.172851562 198.96875 131.505859375 206.96875 120.505859375 c 0
 214.96875 109.505859375 224.96875 100.672851562 236.96875 94.005859375 c 0
578.96875 480 m 0
 582.34375 438.375 584.03125 397.172851562 584.03125 356.392578125 c 0
 584.03125 324.67578125 583.010742188 293.213867188 580.96875 262.005859375 c 0
 578.30078125 222.672851562 573.634765625 192.33984375 566.967773438 171.006835938 c 0
 558.30078125 139.673828125 547.30078125 112.673828125 533.967773438 90.0068359375 c 0
 520.634765625 67.33984375 505.80078125 48.6728515625 489.46875 34.005859375 c 0
 473.135742188 19.3388671875 453.302734375 7.671875 429.96875 -0.9951171875 c 0
 406.63671875 -9.662109375 383.13671875 -15.662109375 359.46875 -18.9951171875 c 0
 335.802734375 -22.328125 308.635742188 -23.9951171875 277.96875 -23.9951171875 c 0
 230.635742188 -23.328125 188.302734375 -10.6611328125 150.96875 14.005859375 c 0
 116.302734375 39.3388671875 89.96875 72.671875 71.96875 114.004882812 c 0
 54.63671875 154.004882812 45.96875 197.337890625 45.96875 244.004882812 c 2
 45.96875 249.004882812 l 1
 45.96875 266.004882812 l 2
 45.96875 295.337890625 46.13671875 318.670898438 46.46875 336.00390625 c 0
 46.802734375 353.336914062 47.96875 376.669921875 49.96875 406.002929688 c 0
 53.96875 463.3359375 65.63671875 516.668945312 84.96875 566.001953125 c 1
 84.96875 567.000976562 l 1
 102.96875 611.66796875 134.302734375 648.000976562 178.96875 676.000976562 c 0
 226.96875 704.000976562 281.302734375 718.000976562 341.96875 718.000976562 c 0
 372.63671875 718.000976562 401.96875 712.333984375 429.96875 701.000976562 c 0
 457.96875 690.333984375 482.302734375 675.166992188 502.96875 655.5 c 0
 523.63671875 635.833007812 540.63671875 611 553.96875 581 c 0
 567.302734375 551 575.635742188 517.333007812 578.96875 480 c 0
EndSplineSet
Validated: 524289
EndChar

StartChar: P
Encoding: 80 80 48
Width: 630
GlyphClass: 2
Flags: W
HStem: -18.9971 21G<122.72 139.72> 218 105.918<185.556 388.305> 605.004 105.999<189.183 405.508>
VStem: 70.0537 129.999<-2.55739 224.218> 70.0537 113.996<32.1765 93.9443 96.7622 226 328.472 599.255> 459.055 115.995<391.836 558.239>
LayerCount: 2
Fore
SplineSet
193.049804688 109 m 0xec
 197.716796875 61 200.052734375 35.3369140625 200.052734375 32.00390625 c 0
 200.052734375 15.3369140625 191.719726562 2.669921875 175.052734375 -5.9970703125 c 0
 161.719726562 -14.6640625 147.38671875 -18.9970703125 132.053710938 -18.9970703125 c 0
 113.38671875 -18.9970703125 98.0537109375 -13.6640625 86.0537109375 -2.9970703125 c 0
 75.38671875 6.3359375 70.0537109375 18.6689453125 70.0537109375 34.001953125 c 0xf4
 70.0537109375 36.6689453125 70.38671875 41.001953125 71.0537109375 47.001953125 c 0
 71.720703125 56.3349609375 72.0537109375 72.3349609375 72.0537109375 95.001953125 c 0
 72.0537109375 132.334960938 71.38671875 183.66796875 70.0537109375 249.000976562 c 0
 67.38671875 359.66796875 65.7197265625 425.334960938 65.052734375 446.001953125 c 0
 64.830078125 463.56640625 64.71875 481.538085938 64.71875 499.91796875 c 0
 64.71875 536.650390625 65.1630859375 575.01171875 66.0517578125 615.001953125 c 1
 65.384765625 609.668945312 64.7177734375 610.3359375 64.05078125 617.002929688 c 1
 64.05078125 611.669921875 63.7177734375 611.669921875 63.05078125 617.002929688 c 0
 57.05078125 625.669921875 54.3837890625 634.336914062 55.05078125 643.00390625 c 2
 55.05078125 651.00390625 l 2
 57.05078125 661.00390625 61.7177734375 670.00390625 69.05078125 678.00390625 c 0
 76.3837890625 686.00390625 84.716796875 691.00390625 94.0498046875 693.00390625 c 0
 118.716796875 698.336914062 155.383789062 702.669921875 204.05078125 706.002929688 c 0
 255.383789062 709.3359375 291.383789062 711.002929688 312.05078125 711.002929688 c 0
 364.05078125 711.002929688 410.383789062 703.002929688 451.05078125 687.002929688 c 0
 488.383789062 670.3359375 518.216796875 645.168945312 540.549804688 611.501953125 c 0
 562.8828125 577.834960938 574.3828125 538.001953125 575.049804688 492.001953125 c 1
 575.049804688 454.668945312 568.716796875 419.168945312 556.049804688 385.501953125 c 0
 543.3828125 351.834960938 526.049804688 322.66796875 504.049804688 298.000976562 c 0
 482.049804688 273.333984375 453.716796875 253.666992188 419.049804688 239 c 0
 385.25390625 224.970703125 349.017578125 217.956054688 310.341796875 217.956054688 c 0
 308.583007812 217.956054688 306.818359375 217.970703125 305.049804688 218 c 0
 256.3828125 218 216.049804688 220.666992188 184.049804688 226 c 1
 186.049804688 188 189.049804688 149 193.049804688 109 c 0xec
181.052734375 334.00390625 m 1
 204.88671875 327.28125 232.3671875 323.91796875 263.485351562 323.91796875 c 0
 266.313476562 323.91796875 269.170898438 323.9453125 272.05859375 324.000976562 c 0
 292.05859375 324.000976562 310.391601562 325.333984375 327.05859375 328.000976562 c 0
 343.725585938 330.66796875 358.05859375 334.000976562 370.05859375 338.000976562 c 0
 382.05859375 342.000976562 392.55859375 347.333984375 401.55859375 354.000976562 c 0
 410.55859375 360.66796875 418.225585938 367.334960938 424.55859375 374.001953125 c 0
 430.891601562 380.668945312 436.224609375 388.501953125 440.557617188 397.501953125 c 0
 444.890625 406.501953125 448.223632812 414.668945312 450.556640625 422.001953125 c 0
 452.889648438 429.334960938 454.72265625 438.16796875 456.055664062 448.500976562 c 0
 457.388671875 458.833984375 458.221679688 467.333984375 458.5546875 474.000976562 c 0
 458.887695312 480.66796875 459.0546875 488.334960938 459.0546875 497.001953125 c 0
 459.0546875 513.668945312 455.721679688 528.3359375 449.0546875 541.002929688 c 0
 442.387695312 553.669921875 434.0546875 563.836914062 424.0546875 571.50390625 c 0
 414.0546875 579.170898438 402.221679688 585.670898438 388.5546875 591.00390625 c 0
 374.887695312 596.336914062 361.720703125 600.00390625 349.053710938 602.00390625 c 0
 336.38671875 604.00390625 324.053710938 605.00390625 312.053710938 605.00390625 c 0
 288.720703125 605.00390625 247.053710938 602.670898438 187.053710938 598.00390625 c 1
 184.38671875 518.00390625 182.719726562 464.336914062 182.052734375 437.00390625 c 0
 181.385742188 400.336914062 181.052734375 366.00390625 181.052734375 334.00390625 c 1
EndSplineSet
Validated: 524289
EndChar

StartChar: Q
Encoding: 81 81 49
Width: 630
GlyphClass: 2
Flags: W
HStem: -24 21G<285 312> 612 106<251.162 394.668>
VStem: 40.999 120.952<161.037 483.098> 252.999 106<138.764 207.502> 462.999 118.145<137.38 526.522>
LayerCount: 2
Fore
SplineSet
559.001953125 -204 m 0
 550.334960938 -209.333007812 541 -212 531 -212 c 0
 526.333007812 -212 521 -211.333007812 515 -210 c 0
 499.666992188 -206 487.333984375 -197.666992188 478.000976562 -185 c 0
 467.333984375 -172.333007812 450.166992188 -150 426.5 -118 c 0
 402.833007812 -86 380 -53.6669921875 358 -21 c 1
 340.666992188 -23 322 -24 302 -24 c 0
 268 -24 236.666992188 -19 208 -9 c 0
 179.333007812 0.3330078125 155.333007812 13.666015625 136 30.9990234375 c 0
 116.666992188 48.33203125 100 68.33203125 86 90.9990234375 c 0
 59.3330078125 134.999023438 44.666015625 187.666015625 41.9990234375 248.999023438 c 0
 41.33203125 266.33203125 40.9990234375 282.999023438 40.9990234375 298.999023438 c 0
 40.9990234375 403.666015625 54.666015625 491.333007812 81.9990234375 562 c 1
 99.9990234375 606.666992188 131.666015625 644 176.999023438 674 c 0
 224.999023438 703.333007812 278.666015625 718 337.999023438 718 c 0
 401.33203125 718 454.33203125 699 496.999023438 661 c 0
 517.666015625 642.333007812 534.833007812 617.5 548.5 586.5 c 0
 562.166992188 555.5 571.333984375 520 576.000976562 480 c 0
 579.4296875 449.14453125 581.143554688 413.879882812 581.143554688 374.208984375 c 0
 581.143554688 367.594726562 581.096679688 360.858398438 581.000976562 354 c 0
 581.000976562 269.333007812 576.66796875 206.333007812 568.000976562 165 c 0
 554.000976562 97 523.000976562 47 475.000976562 15 c 1
 496.333984375 -14.3330078125 522.333984375 -48 553.000976562 -86 c 0
 571.66796875 -109.333007812 581.000976562 -121.333007812 581.000976562 -122 c 0
 586.333984375 -130 589.000976562 -138.333007812 589.000976562 -147 c 0
 589.000976562 -149.666992188 588.66796875 -152 588.000976562 -154 c 0
 586.66796875 -164 583.334960938 -173.666992188 578.001953125 -183 c 0
 572.001953125 -192.333007812 565.668945312 -199.333007812 559.001953125 -204 c 0
264 114 m 0
 256.666992188 131.333007812 252.999023438 147 252.999023438 161 c 0
 252.999023438 182.333007812 261.666015625 199 278.999023438 211 c 0
 288.999023438 218.333007812 299.666015625 222.333007812 310.999023438 223 c 0
 320.33203125 223 329.33203125 220 337.999023438 214 c 0
 346.666015625 208 353.666015625 198.666992188 358.999023438 186 c 0
 370.33203125 156.666992188 386.33203125 125 406.999023438 91 c 1
 428.999023438 108.333007812 443.999023438 134 451.999023438 168 c 0
 453.999023438 177.333007812 456.166015625 197 458.499023438 227 c 0
 460.83203125 257 462.33203125 294.666992188 462.999023438 340 c 2
 462.999023438 356 l 2
 462.999023438 395.333007812 460.666015625 433 455.999023438 469 c 0
 449.999023438 513.666992188 435.33203125 549 411.999023438 575 c 0
 389.33203125 599.666992188 360.165039062 612 324.498046875 612 c 0
 288.831054688 612 258.998046875 600.333007812 234.998046875 577 c 0
 210.331054688 553 192.331054688 518.666992188 180.998046875 474 c 0
 168.299804688 425.112304688 161.951171875 374.108398438 161.951171875 320.98828125 c 0
 161.951171875 318.331054688 161.966796875 315.66796875 161.999023438 313 c 0
 161.999023438 293 162.666015625 272.333007812 163.999023438 251 c 1
 166.666015625 214.333007812 174.333007812 181.5 187 152.5 c 0
 199.666992188 123.5 216 100.666992188 236 84 c 0
 252.666992188 70.6669921875 271 63 291 61 c 1
 279 82.3330078125 270 100 264 114 c 0
EndSplineSet
Validated: 524289
EndChar

StartChar: R
Encoding: 82 82 50
Width: 630
GlyphClass: 2
Flags: W
HStem: -18.9961 21G<101.167 121.501 516.501 532.167> 694.002 20G<98.8325 115.499>
VStem: 51.501 118.999<129 609.003> 56.167 123.334<-2.55641 249.432> 56.5 115.001<371.653 607.007> 56.5 104.999<34.426 251 369.003 497.376> 456.501 116.998<408.488 493.809>
LayerCount: 2
Fore
SplineSet
168.500976562 449.00390625 m 0xca
 167.16796875 431.670898438 164.83203125 405.3359375 161.499023438 370.002929688 c 1xc6
 166.83203125 369.3359375 173.83203125 369.002929688 182.499023438 369.002929688 c 0
 191.166015625 369.002929688 201.833007812 369.669921875 214.5 371.002929688 c 0
 243.833007812 372.3359375 268.5 373.668945312 288.5 375.001953125 c 0
 339.166992188 379.001953125 375.833984375 384.334960938 398.500976562 391.001953125 c 0
 410.500976562 395.001953125 421.16796875 399.668945312 430.500976562 405.001953125 c 0
 439.833984375 410.334960938 446.500976562 416.16796875 450.500976562 422.500976562 c 0
 454.500976562 428.833984375 456.500976562 436.333984375 456.500976562 445.000976562 c 0
 456.500976562 461.000976562 449.66796875 476.833984375 436.000976562 492.500976562 c 0
 422.333984375 508.16796875 404.500976562 522.334960938 382.500976562 535.001953125 c 0
 360.500976562 547.668945312 335.333984375 559.3359375 307.000976562 570.002929688 c 0
 278.66796875 580.669921875 252.834960938 589.002929688 229.501953125 595.002929688 c 0
 206.168945312 601.002929688 185.501953125 605.669921875 167.501953125 609.002929688 c 1
 168.834960938 566.3359375 170.16796875 529.3359375 171.500976562 498.002929688 c 0
 171.500976562 484.669921875 170.500976562 468.336914062 168.500976562 449.00390625 c 0xca
170.5 129 m 0xe2
 176.5 74.3330078125 179.500976562 42.669921875 179.500976562 34.0029296875 c 0xd2
 179.500976562 16.669921875 171.833984375 3.3369140625 156.500976562 -5.99609375 c 0
 143.833984375 -14.6630859375 129.500976562 -18.99609375 113.500976562 -18.99609375 c 2
 109.500976562 -18.99609375 l 2
 92.833984375 -18.3291015625 78.833984375 -12.99609375 67.5009765625 -2.99609375 c 0
 56.833984375 6.3369140625 51.5009765625 18.669921875 51.5009765625 34.0029296875 c 2
 51.5009765625 42.0029296875 l 2xe2
 54.16796875 75.3359375 55.5 103.3359375 55.5 126.002929688 c 0
 55.5 132.002929688 55.66796875 145.169921875 56.0009765625 165.502929688 c 0
 56.1123046875 172.274414062 56.1669921875 179.895507812 56.1669921875 188.3671875 c 0xd2
 56.1669921875 205.334960938 55.9453125 225.712890625 55.5 249.502929688 c 0
 54.8330078125 285.169921875 54.5 307.502929688 54.5 316.502929688 c 0
 54.5 325.502929688 55.1669921875 343.3359375 56.5 370.002929688 c 0xc6
 57.5 393.002929688 58 414.752929688 58 435.252929688 c 0
 58 455.752929688 57.5 475.002929688 56.5 493.002929688 c 0xca
 55.8330078125 515.002929688 54.16796875 544.66796875 51.5009765625 582.000976562 c 0
 48.833984375 619.333984375 47.4990234375 642.002929688 47.4990234375 650.002929688 c 2
 47.4990234375 655.002929688 l 2
 47.4990234375 656.3359375 47.166015625 657.668945312 46.4990234375 659.001953125 c 0
 46.4990234375 671.001953125 51.9990234375 683.168945312 62.9990234375 695.501953125 c 0
 73.9990234375 707.834960938 89.166015625 714.001953125 108.499023438 714.001953125 c 0
 122.499023438 714.001953125 134.166015625 711.334960938 143.499023438 706.001953125 c 1
 201.499023438 703.334960938 255.499023438 696.16796875 305.499023438 684.500976562 c 0
 355.499023438 672.833984375 397.499023438 658.333984375 431.499023438 641.000976562 c 0
 464.166015625 623.66796875 491.166015625 604.000976562 512.499023438 582.000976562 c 0
 533.83203125 560.000976562 549.33203125 537.66796875 558.999023438 515.000976562 c 0
 568.666015625 492.333984375 573.499023438 469.333984375 573.499023438 446.000976562 c 0
 573.499023438 394.000976562 552.83203125 355.000976562 511.499023438 329.000976562 c 0
 498.166015625 321.000976562 483.833007812 314.000976562 468.5 308.000976562 c 0
 452.5 302.66796875 433.666992188 297.834960938 412 293.501953125 c 0
 390.333007812 289.168945312 371.833007812 286.168945312 356.5 284.501953125 c 0
 341.166992188 282.834960938 328.5 281.66796875 318.5 281.000976562 c 1
 377.166992188 251.000976562 429.5 217.333984375 475.5 180.000976562 c 0
 528.166992188 134.66796875 562.833984375 95.0009765625 579.500976562 61.0009765625 c 0
 582.16796875 53.66796875 583.500976562 46.66796875 583.500976562 40.0009765625 c 0
 583.500976562 33.333984375 582.500976562 27.0009765625 580.500976562 21.0009765625 c 0
 575.833984375 9.0009765625 568.166992188 -0.666015625 557.5 -7.9990234375 c 0
 548.166992188 -14.666015625 537.833984375 -17.9990234375 526.500976562 -17.9990234375 c 0
 506.500976562 -17.9990234375 489.16796875 -7.9990234375 474.500976562 12.0009765625 c 0
 463.833984375 25.333984375 448.000976562 42.1669921875 427.000976562 62.5 c 0
 406.000976562 82.8330078125 380.500976562 105.333007812 350.500976562 130 c 0
 320.500976562 154.666992188 286.500976562 179 248.500976562 203 c 0
 217.833984375 222.333007812 188.166992188 238.333007812 159.5 251 c 1
 161.5 217.666992188 165.166992188 177 170.5 129 c 0xe2
EndSplineSet
Validated: 524289
EndChar

StartChar: S
Encoding: 83 83 51
Width: 630
GlyphClass: 2
Flags: W
HStem: -29 108.995<189.656 370.49> 620.998 102.998<265.853 530.886>
VStem: 39.96 10.0801<80.1222 81> 70.0439 127.998<475.646 569.182> 466.045 123.995<155.55 280.464>
LayerCount: 2
Fore
SplineSet
50.0400390625 73 m 1
 43.318359375 87.0537109375 39.9599609375 99.705078125 39.9599609375 110.958984375 c 0
 39.9599609375 115.76953125 40.2177734375 120.87109375 41.04296875 124.99609375 c 0
 45.04296875 140.329101562 54.3759765625 151.662109375 69.04296875 158.995117188 c 0
 77.7099609375 162.995117188 84.376953125 165.495117188 89.0439453125 166.495117188 c 0
 93.7109375 167.495117188 97.8779296875 167.995117188 101.544921875 167.995117188 c 2
 110.044921875 167.995117188 l 2
 118.044921875 167.328125 125.544921875 163.995117188 132.544921875 157.995117188 c 0
 139.544921875 151.995117188 146.377929688 144.328125 153.044921875 134.995117188 c 0
 164.377929688 118.328125 180.544921875 104.995117188 201.544921875 94.9951171875 c 0
 222.544921875 84.9951171875 246.377929688 79.9951171875 273.044921875 79.9951171875 c 0
 289.044921875 79.9951171875 306.044921875 81.9951171875 324.044921875 85.9951171875 c 0
 342.044921875 89.9951171875 359.544921875 96.162109375 376.544921875 104.495117188 c 0
 393.544921875 112.828125 408.711914062 122.328125 422.044921875 132.995117188 c 0
 435.377929688 143.662109375 446.044921875 155.995117188 454.044921875 169.995117188 c 0
 462.044921875 183.995117188 466.044921875 198.995117188 466.044921875 214.995117188 c 0
 466.044921875 223.662109375 465.377929688 231.495117188 464.044921875 238.495117188 c 0
 462.711914062 245.495117188 460.211914062 252.995117188 456.544921875 260.995117188 c 0
 452.877929688 268.995117188 448.044921875 276.328125 442.044921875 282.995117188 c 0
 436.044921875 289.662109375 427.377929688 296.495117188 416.044921875 303.495117188 c 0
 404.711914062 310.495117188 391.211914062 316.662109375 375.544921875 321.995117188 c 0
 359.877929688 327.328125 340.2109375 332.328125 316.543945312 336.995117188 c 0
 292.876953125 341.662109375 266.876953125 345.329101562 238.543945312 347.99609375 c 0
 210.2109375 350.663085938 184.7109375 356.99609375 162.043945312 366.99609375 c 0
 140.7109375 376.99609375 123.543945312 389.49609375 110.543945312 404.49609375 c 0
 97.5439453125 419.49609375 87.5439453125 435.329101562 80.5439453125 451.99609375 c 0
 73.5439453125 468.663085938 70.0439453125 485.330078125 70.0439453125 501.997070312 c 0
 70.0439453125 525.330078125 74.2109375 547.663085938 82.5439453125 568.99609375 c 0
 90.876953125 590.329101562 103.543945312 610.49609375 120.543945312 629.49609375 c 0
 137.543945312 648.49609375 158.376953125 664.99609375 183.043945312 678.99609375 c 0
 208.376953125 692.99609375 238.709960938 703.99609375 274.04296875 711.99609375 c 0
 309.375976562 719.99609375 347.375976562 723.99609375 388.04296875 723.99609375 c 0
 408.04296875 723.99609375 435.375976562 722.329101562 470.04296875 718.99609375 c 0
 502.04296875 715.663085938 524.375976562 711.663085938 537.04296875 706.99609375 c 0
 552.375976562 701.663085938 563.708984375 692.663085938 571.041992188 679.99609375 c 0
 576.375 670.663085938 579.041992188 660.330078125 579.041992188 648.997070312 c 0
 579.041992188 634.330078125 575.041992188 622.997070312 567.041992188 614.997070312 c 0
 560.375 608.330078125 552.375 604.330078125 543.041992188 602.997070312 c 0
 538.375 602.330078125 534.375 601.997070312 531.041992188 601.997070312 c 0
 527.708984375 601.997070312 524.041992188 602.330078125 520.041992188 602.997070312 c 0
 512.708984375 603.6640625 505.041992188 605.331054688 497.041992188 607.998046875 c 0
 485.708984375 610.665039062 476.708984375 612.665039062 470.041992188 613.998046875 c 0
 462.708984375 615.331054688 451.041992188 616.831054688 435.041992188 618.498046875 c 0
 419.041992188 620.165039062 400.375 620.998046875 379.041992188 620.998046875 c 0
 347.041992188 620.998046875 317.375 616.831054688 290.041992188 608.498046875 c 0
 262.708984375 600.165039062 240.541992188 588.33203125 223.541992188 572.999023438 c 0
 206.541992188 557.666015625 198.041992188 540.666015625 198.041992188 521.999023438 c 0
 198.041992188 500.666015625 208.375 482.666015625 229.041992188 467.999023438 c 0
 251.708984375 452.666015625 284.041992188 443.999023438 326.041992188 441.999023438 c 0
 367.375 439.999023438 404.375 434.33203125 437.041992188 424.999023438 c 0
 469.041992188 415.666015625 494.208984375 403.999023438 512.541992188 389.999023438 c 0
 530.875 375.999023438 546.208007812 359.499023438 558.541015625 340.499023438 c 0
 570.874023438 321.499023438 579.20703125 302.999023438 583.540039062 284.999023438 c 0
 587.873046875 266.999023438 590.040039062 247.666015625 590.040039062 226.999023438 c 0
 590.040039062 196.33203125 584.540039062 167.33203125 573.540039062 139.999023438 c 0
 562.540039062 112.666015625 547.373046875 88.8330078125 528.040039062 68.5 c 0
 508.70703125 48.1669921875 486.040039062 30.6669921875 460.040039062 16 c 0
 432.040039062 1.3330078125 402.040039062 -9.6669921875 370.040039062 -17 c 0
 337.373046875 -24.3330078125 303.706054688 -28.3330078125 269.0390625 -29 c 0
 215.706054688 -29 169.373046875 -19 130.040039062 1 c 0
 92.0400390625 20.3330078125 65.70703125 44.3330078125 51.0400390625 73 c 0
 50.373046875 81 50.0400390625 81 50.0400390625 73 c 1
EndSplineSet
Validated: 524289
EndChar

StartChar: T
Encoding: 84 84 52
Width: 630
GlyphClass: 2
Flags: W
HStem: -13.002 21G<311.002 332.668> 591 110<393.266 575.528> 622 92<54.4397 244.029>
VStem: 248.002 135.998<346.537 596> 261.002 136.998<4.95311 342.594>
LayerCount: 2
Fore
SplineSet
371 1 m 0xc8
 357 -8.3330078125 341.334960938 -13.001953125 324.001953125 -13.001953125 c 2
 320.001953125 -13.001953125 l 2
 302.001953125 -13.001953125 287.001953125 -7.3349609375 275.001953125 3.998046875 c 0
 264.334960938 13.3310546875 259.001953125 25.998046875 259.001953125 41.998046875 c 0
 259.001953125 44.6650390625 259.334960938 48.83203125 260.001953125 54.4990234375 c 0
 260.66796875 60.166015625 261.001953125 73.3330078125 261.001953125 94 c 0xc8
 261.001953125 140 258.834960938 222.333007812 254.501953125 341 c 0
 250.16796875 459.666992188 248.001953125 544 248.001953125 594 c 2
 248.001953125 600 l 1
 162.66796875 604 113.66796875 607 101.001953125 609 c 0
 84.333984375 611.666992188 70.66796875 616 60 622 c 0
 46 630.666992188 39 642.666992188 39 658 c 2
 39 661 l 2
 39 675 44 687.666992188 54 699 c 0
 63.333984375 709 75.666015625 714 91 714 c 0xb0
 95 714 99.33203125 713.666992188 104 713 c 0
 140 707 282.666992188 703 532 701 c 0
 551.33203125 701 566 696 576 686 c 0
 586 676 591 664 591 650 c 0
 591 634.666992188 586 621 576 609 c 0
 566 597 552 591 534 591 c 0
 533.33203125 591 483.33203125 592.666992188 384 596 c 1xd0
 385.33203125 465.333007812 390 281.333007812 398 44 c 0
 396 25.3330078125 387 11 371 1 c 0xc8
EndSplineSet
Validated: 524289
EndChar

StartChar: U
Encoding: 85 85 53
Width: 630
GlyphClass: 2
Flags: W
HStem: -28.9971 114.999<226.955 394.214> 689.002 20G<90.938 109.271 530.272 542.606>
VStem: 34.7275 118.544<176.994 688.531> 477.771 117.501<180.084 691.435>
LayerCount: 2
Fore
SplineSet
465.272460938 17 m 0
 447.272460938 7 428.268554688 -1.6640625 408.268554688 -8.9970703125 c 0
 388.935546875 -16.330078125 370.102539062 -21.4970703125 351.76953125 -24.4970703125 c 0
 333.436523438 -27.4970703125 314.103515625 -28.9970703125 293.770507812 -28.9970703125 c 0
 273.4375 -28.9970703125 251.9375 -26.1640625 229.270507812 -20.4970703125 c 0
 206.603515625 -14.830078125 183.603515625 -5.330078125 160.270507812 8.0029296875 c 0
 138.270507812 21.3359375 118.603515625 38.1689453125 101.270507812 58.501953125 c 0
 83.9375 78.8349609375 69.6044921875 104.834960938 58.271484375 136.501953125 c 0
 46.9384765625 168.168945312 40.60546875 203.668945312 39.2724609375 243.001953125 c 0
 36.2421875 352.708007812 34.7275390625 437.065429688 34.7275390625 496.07421875 c 0
 34.7275390625 501.969726562 34.7421875 507.612304688 34.7724609375 513.001953125 c 0
 35.10546875 572.334960938 35.9384765625 615.66796875 37.271484375 643.000976562 c 0
 37.9384765625 663.66796875 44.271484375 679.834960938 56.271484375 691.501953125 c 0
 68.271484375 703.168945312 82.6044921875 709.001953125 99.271484375 709.001953125 c 0
 119.271484375 709.001953125 133.938476562 702.334960938 143.271484375 689.001953125 c 0
 149.938476562 679.001953125 153.271484375 665.334960938 153.271484375 648.001953125 c 0
 153.271484375 430.668945312 154.938476562 299.668945312 158.271484375 255.001953125 c 0
 159.604492188 236.334960938 162.104492188 219.66796875 165.771484375 205.000976562 c 0
 169.438476562 190.333984375 174.938476562 175.333984375 182.271484375 160.000976562 c 0
 189.604492188 144.66796875 198.604492188 131.834960938 209.271484375 121.501953125 c 0
 219.938476562 111.168945312 233.438476562 102.668945312 249.771484375 96.001953125 c 0
 266.104492188 89.3349609375 284.604492188 86.001953125 305.271484375 86.001953125 c 0
 353.271484375 86.001953125 392.104492188 100.168945312 421.771484375 128.501953125 c 0
 451.438476562 156.168945312 468.271484375 200.001953125 472.271484375 260.001953125 c 0
 474.271484375 287.334960938 475.938476562 318.334960938 477.271484375 353.001953125 c 0
 477.604492188 376.3359375 477.771484375 397.8359375 477.771484375 417.501953125 c 0
 477.771484375 437.168945312 477.604492188 455.001953125 477.271484375 471.001953125 c 0
 476.604492188 538.334960938 476.271484375 577.16796875 476.271484375 587.500976562 c 2
 476.271484375 634.000976562 l 2
 476.271484375 649.333984375 477.604492188 662.500976562 480.271484375 673.500976562 c 0
 482.938476562 684.500976562 487.60546875 692.66796875 494.272460938 698.000976562 c 0
 500.939453125 703.333984375 507.272460938 706.666992188 513.272460938 708 c 0
 519.272460938 709.333007812 526.272460938 710 534.272460938 710 c 0
 550.939453125 710 564.439453125 704 574.772460938 692 c 0
 585.10546875 680 590.60546875 664.333007812 591.272460938 645 c 0
 593.939453125 594.333007812 595.272460938 537.166015625 595.272460938 473.499023438 c 0
 595.272460938 409.83203125 593.939453125 339.33203125 591.272460938 261.999023438 c 0
 589.939453125 231.999023438 585.772460938 203.83203125 578.772460938 177.499023438 c 0
 571.772460938 151.166015625 562.772460938 128.333007812 551.772460938 109 c 0
 540.772460938 89.6669921875 527.939453125 72 513.272460938 56 c 0
 498.60546875 40 482.60546875 27 465.272460938 17 c 0
EndSplineSet
Validated: 524289
EndChar

StartChar: V
Encoding: 86 86 54
Width: 630
GlyphClass: 2
Flags: W
HStem: -12 21G<313.503 330.499> 691.001 20G<76.501 84.501>
LayerCount: 2
Fore
SplineSet
321.499023438 -12 m 2
 313.502929688 -11.9990234375 l 2
 297.502929688 -11.9990234375 283.8359375 -9.666015625 272.502929688 -4.9990234375 c 0
 257.169921875 1.0009765625 246.169921875 11.0009765625 239.502929688 25.0009765625 c 0
 209.502929688 95.66796875 168.169921875 205.000976562 115.502929688 353.000976562 c 0
 64.8359375 502.333984375 36.1689453125 593.333984375 29.501953125 626.000976562 c 0
 26.8349609375 639.333984375 25.16796875 651.666992188 24.5009765625 663 c 0
 24.5009765625 671.666992188 26.833984375 679.666992188 31.5009765625 687 c 0
 36.833984375 695.666992188 45.5009765625 702.333984375 57.5009765625 707.000976562 c 0
 64.833984375 709.66796875 72.5009765625 711.000976562 80.5009765625 711.000976562 c 0
 88.5009765625 711.000976562 96.833984375 709.333984375 105.500976562 706.000976562 c 0
 120.833984375 699.333984375 132.166992188 685.333984375 139.5 664.000976562 c 0
 143.5 649.333984375 177.166992188 549.000976562 240.5 363.000976562 c 0
 269.833007812 278.333984375 292.5 214.000976562 308.5 170.000976562 c 1
 334.5 240.66796875 368.5 335.66796875 410.5 455.000976562 c 2
 484.5 664.000976562 l 2
 492.5 684.66796875 504.5 698.334960938 520.5 705.001953125 c 0
 529.166992188 708.334960938 537.666992188 710.16796875 546 710.500976562 c 0
 554.333007812 710.833984375 562.166015625 709.666992188 569.499023438 707 c 0
 578.83203125 703.666992188 586.83203125 698.666992188 593.499023438 692 c 0
 599.499023438 684.666992188 603.499023438 676 605.499023438 666 c 2
 605.499023438 660 l 2
 605.499023438 648 602.83203125 635 597.499023438 621 c 0
 582.83203125 587 548.499023438 494 494.499023438 342 c 0
 437.166015625 188 400.499023438 83 384.499023438 27 c 0
 380.499023438 15.6669921875 374.166015625 6.6669921875 365.499023438 0 c 0
 354.166015625 -8 339.499023438 -12 321.499023438 -12 c 2
EndSplineSet
Validated: 524289
EndChar

StartChar: W
Encoding: 87 87 55
Width: 630
GlyphClass: 2
Flags: W
HStem: -11 21G<442.49 464.157> 693.053 20.9482G<79.1577 92.4912 307.415 325.876 333.824 341.824 543.117 551.31>
VStem: 26.4912 112.001<400.659 693.625> 496.49 107.019<369.179 695.466>
LayerCount: 2
Fore
SplineSet
496.490234375 632 m 0
 496.490234375 638 496.15625 644.333007812 495.489257812 651 c 0
 495.489257812 669.666992188 500.822265625 684.666992188 511.489257812 696 c 0
 522.225585938 707.368164062 535.35546875 713.052734375 550.87890625 713.052734375 c 0
 551.741210938 713.052734375 552.611328125 713.03515625 553.489257812 713 c 0
 586.834960938 713 603.508789062 689.594726562 603.508789062 642.782226562 c 0
 603.508789062 601.635742188 599.71484375 546.993164062 593.489257812 481 c 0
 585.489257812 391.666992188 581.489257812 345.333984375 581.489257812 342.000976562 c 0
 578.822265625 313.333984375 574.822265625 271.666992188 569.489257812 217 c 0
 563.489257812 161.666992188 557.822265625 118.666992188 552.489257812 88 c 0
 547.15625 58.6669921875 541.823242188 38.6669921875 536.490234375 28 c 0
 528.490234375 14 515.823242188 3.6669921875 498.490234375 -3 c 0
 484.490234375 -8.3330078125 470.823242188 -11 457.490234375 -11 c 2
 450.490234375 -11 l 2
 434.490234375 -11 420.823242188 -8.6669921875 409.490234375 -4 c 0
 394.823242188 2 384.823242188 12 379.490234375 26 c 0
 361.490234375 89.3330078125 347.490234375 174 337.490234375 280 c 2
 320.490234375 459 l 1
 313.157226562 390.333007812 305.157226562 320.333007812 296.490234375 249 c 0
 282.490234375 134.333007812 270.490234375 60 260.490234375 26 c 0
 257.157226562 16 249.157226562 8 236.490234375 2 c 0
 225.157226562 -4 213.82421875 -8 202.491210938 -10 c 0
 195.158203125 -11.3330078125 188.825195312 -11.8330078125 183.4921875 -11.5 c 0
 178.159179688 -11.1669921875 174.159179688 -11 171.4921875 -11 c 2
 167.4921875 -11 l 2
 161.4921875 -11 156.4921875 -10.6669921875 152.4921875 -10 c 0
 148.4921875 -10 142.4921875 -9.3330078125 134.4921875 -8 c 0
 127.159179688 -6.6669921875 120.826171875 -4.6669921875 115.493164062 -2 c 0
 110.16015625 0.6669921875 105.493164062 5 101.493164062 11 c 0
 96.826171875 17 93.826171875 24 92.4931640625 32 c 1
 91.826171875 36.6669921875 88.1591796875 58.333984375 81.4921875 97.0009765625 c 0
 74.8251953125 135.000976562 70.158203125 170.000976562 67.4912109375 202.000976562 c 0
 59.4912109375 278.000976562 46.158203125 420.66796875 27.4912109375 630.000976562 c 0
 26.82421875 636.000976562 26.4912109375 642.000976562 26.4912109375 648.000976562 c 0
 26.4912109375 679.333984375 38.82421875 700.333984375 63.4912109375 711.000976562 c 0
 69.4912109375 713.000976562 75.82421875 714.000976562 82.4912109375 714.000976562 c 2
 88.4912109375 714.000976562 l 2
 96.4912109375 713.333984375 104.158203125 711.333984375 111.491210938 708.000976562 c 0
 120.158203125 705.333984375 126.825195312 700.666992188 131.4921875 694 c 0
 136.159179688 686 138.4921875 677.333007812 138.4921875 668 c 2
 138.4921875 660 l 2
 138.4921875 615.333007812 149.825195312 475.666015625 172.4921875 240.999023438 c 0
 173.825195312 224.999023438 176.158203125 204.666015625 179.491210938 179.999023438 c 1
 180.82421875 189.999023438 183.157226562 207.666015625 186.490234375 232.999023438 c 0
 196.490234375 309.666015625 202.823242188 359.333007812 205.490234375 382 c 0
 230.157226562 562.666992188 247.490234375 664.333984375 257.490234375 687.000976562 c 0
 267.10546875 703.026367188 289.6640625 711.0390625 325.166015625 711.0390625 c 0
 326.586914062 711.0390625 328.028320312 711.026367188 329.490234375 711.000976562 c 0
 331.490234375 711.000976562 333.157226562 711.333984375 334.490234375 712.000976562 c 0
 349.157226562 712.000976562 361.490234375 709.66796875 371.490234375 705.000976562 c 0
 384.157226562 700.333984375 392.157226562 693.666992188 395.490234375 685 c 0
 398.823242188 673 402.823242188 653 407.490234375 625 c 0
 415.490234375 573.666992188 423.490234375 515.666992188 431.490234375 451 c 0
 439.490234375 385.666992188 445.490234375 339.666992188 449.490234375 313 c 0
 453.490234375 281.666992188 458.823242188 246.666992188 465.490234375 208 c 1
 474.157226562 287.333007812 482.157226562 382.333007812 489.490234375 493 c 0
 494.157226562 559.666992188 496.490234375 606 496.490234375 632 c 0
EndSplineSet
Validated: 524289
EndChar

